<svg width="177" height="63" viewBox="0 0 177 63" fill="none" xmlns="http://www.w3.org/2000/svg">
<path d="M84.9063 22.344H81.797V50.2152H64.9181V22.344H61.8088V52.8145H85.9428L86.0908 58.1578H88.6078V50.2152H84.9063V22.344Z" fill="#B0084F"/>
<path d="M109.04 47.4714L98.5278 22.344H94.5303V52.8145H97.3434V27.1096L108.3 52.6702L108.448 52.8145H109.484L120.589 27.1096V52.8145H123.55V22.344H119.701L109.04 47.4714Z" fill="#B0084F"/>
<path fill-rule="evenodd" clip-rule="evenodd" d="M132.582 22.344H141.022C147.981 22.344 151.83 25.3767 151.682 31.1531V31.2975C151.682 36.9294 147.981 40.1065 141.022 40.1065H135.544V52.8145H132.582V22.344ZM148.869 31.1531V31.0086C148.869 26.8207 146.352 24.799 141.17 24.799H135.692V37.5071H141.318C146.352 37.5071 148.869 35.4853 148.869 31.1531Z" fill="#B0084F"/>
<path d="M154.94 22.344V24.799H164.415V52.8145H167.376V24.799H177V22.344H154.94Z" fill="#B0084F"/>
<path fill-rule="evenodd" clip-rule="evenodd" d="M23.3048 44.8042L43.3436 58.9878L23.3223 4.11714L3.47741 58.9543L23.3048 44.8042ZM23.3114 48.4592L3.56849 62.5491C1.71419 63.8725 -0.640795 61.8735 0.161315 59.6571L21.1868 1.55786C21.9374 -0.516222 24.6953 -0.52027 25.4514 1.55163L46.6604 59.6776C47.4678 61.8905 45.1207 63.8962 43.2627 62.581L23.3114 48.4592Z" fill="#AFB8C0"/>
<path d="M35.9949 31.0717C40.495 38.4487 38.4724 48.3026 31.4947 53.0949C24.5676 57.8336 15.2641 55.7335 10.8146 48.3565C6.31447 40.9795 8.33698 31.1256 15.3147 26.3331C22.2418 21.5407 31.4947 23.6947 35.9949 31.0717Z" fill="url(#paint0_radial_361_178)"/>
<path d="M23.7078 23.8036C18.9044 23.9102 16.3763 25.1497 13.3424 27.9499C10.7131 30.6421 9.04462 33.7652 8.539 37.5345C7.88168 42.2191 9.39848 47.2809 11.9772 49.4885C13.7469 50.9963 18.0953 51.3733 20.5223 51.2655C27.0449 51.0502 31.3427 43.4039 32.3539 36.4038C32.9608 32.2576 31.6462 28.4344 28.8652 26.1729C27.0449 24.6112 26.1348 23.7497 23.7078 23.8036Z" fill="url(#paint1_radial_361_178)" fill-opacity="0.6"/>
<path d="M23.0498 27.3026C24.0105 28.9179 23.7072 33.1179 20.6735 35.1103C17.6397 37.1026 13.1396 36.2412 12.1789 34.6257C11.2182 33.0103 12.3307 29.2949 15.3644 27.3026C18.3476 25.2563 22.0891 25.6872 23.0498 27.3026Z" fill="url(#paint2_radial_361_178)" fill-opacity="0.5"/>
<path d="M24.9205 23.8563C24.9205 23.8563 34.3759 28.6486 31.2915 43.995C33.6175 42.3796 33.9713 39.2026 33.9713 39.2026C33.9713 39.2026 34.3759 26.2256 25.1733 23.9102C25.0217 23.8563 24.9205 23.8563 24.9205 23.8563Z" fill="#891347" fill-opacity="0.7"/>
<path d="M33.6681 51.2646C30.9377 53.9568 27.4995 55.6261 23.3027 55.6261C19.5611 55.5723 16.1229 54.226 13.3924 51.4799C13.2407 51.3183 17.0329 52.826 23.5555 52.6107C29.623 52.3953 34.0221 50.8876 33.6681 51.2646Z" fill="url(#paint3_linear_361_178)"/>
<path d="M46.1572 39.1486C46.1067 38.5024 46.0055 37.9102 45.8539 37.264C45.6516 36.6717 45.3988 36.0794 45.0955 35.5948C44.4381 34.5716 43.629 33.7101 42.719 32.9563C40.8987 31.4485 38.8255 30.4794 36.702 29.7254C36.2469 29.5639 35.5896 29.3486 35.1345 29.2408L35.2862 29.9946C35.4378 30.0485 35.9434 30.8562 35.9434 30.9101C36.0952 30.9639 36.1457 30.9639 36.2469 31.0178C38.2694 31.7716 40.1908 32.7948 41.7583 34.1409C42.5672 34.8409 43.2751 35.5948 43.7302 36.4564C43.983 36.8871 44.1853 37.3179 44.3369 37.8025C44.4886 38.2871 44.5392 38.7179 44.5392 39.2025C44.5392 43.1099 39.2212 46.1519 36.348 47.1718C32.3536 48.6257 28.0558 49.218 23.7579 49.218C19.5106 49.3256 15.1622 48.7872 11.1172 47.3872C9.14521 46.6873 7.17326 45.7718 5.55525 44.4796C3.98781 43.1872 2.72375 41.4641 2.62261 39.5795C2.62261 39.0947 2.67317 38.6102 2.77431 38.1795C2.92599 37.6947 3.07767 37.264 3.3305 36.8332C3.735 36.0255 4.34175 35.3256 5.04963 34.6794C5.10019 34.6255 5.20131 34.5716 5.25189 34.464C6.81933 33.064 8.69016 32.0408 10.7127 31.2332C10.8138 31.1793 10.9149 30.9101 11.2183 30.5331C11.5722 29.9946 12.0273 29.4023 12.0273 29.4023C11.4711 29.5639 10.7632 29.7793 10.2576 29.9946C8.18452 30.8025 6.11144 31.8255 4.34175 33.3332C4.19005 33.4408 4.08893 33.6025 3.93725 33.7101C3.88669 33.764 3.83612 33.764 3.78556 33.8178C2.92599 34.5716 2.06642 35.4332 1.45967 36.5101C1.15628 37.0487 0.903478 37.5871 0.751794 38.1795C0.600095 38.7718 0.448457 39.3102 0.448457 39.9563C0.448457 40.6025 0.600095 41.3563 0.751794 41.9486C0.954039 42.541 1.15628 43.1333 1.51023 43.6717C2.11698 44.7488 2.97655 45.6641 3.83612 46.418C5.65638 47.9795 7.72946 49.0564 9.8531 49.8643C14.1509 51.4796 18.7016 52.1795 23.2018 52.1795C27.7017 52.0719 32.2524 51.3181 36.4997 49.595C40.6016 47.9308 46.1572 44.5311 46.1572 39.1486Z" fill="url(#paint4_linear_361_178)"/>
<path d="M29.4718 51.2643C29.4718 51.2643 29.3201 51.695 29.0167 52.1795C30.5336 51.9103 31.8988 51.5874 31.8988 51.5874C31.8988 51.5874 32.5562 50.6719 32.6067 49.595C32.6067 49.0564 34.1563 47.8772 34.1563 47.8772C32.6067 48.2931 29.9774 48.8411 29.0167 48.895C30.382 49.0027 29.4718 51.2643 29.4718 51.2643Z" fill="url(#paint5_linear_361_178)"/>
<path d="M35.0328 29.1872C35.0328 29.1872 36.3981 29.5641 37.207 29.941C37.3082 29.9949 36.3981 29.6718 37.1565 31.8256C36.8025 31.718 36.2463 31.5564 36.2463 31.5564C36.2463 31.5564 35.4374 30.1564 35.1846 29.941C35.1339 29.5641 35.0328 29.1872 35.0328 29.1872Z" fill="url(#paint6_linear_361_178)"/>
<path d="M12.8364 49.918C12.2296 50.8871 7.27445 48.7333 3.73505 46.1487C0.195652 43.564 -0.0571558 39.6871 0.954102 37.5331C1.28378 37.0358 2.05935 37.2366 2.72379 38.61C2.21816 40.764 3.86652 43.0346 5.25193 44.2639C7.40242 45.9816 10.8138 47.4948 13.342 48.0332C13.755 48.38 13.1308 49.6044 12.8364 49.918Z" fill="url(#paint7_radial_361_178)"/>
<path d="M36.7525 49.1103C32.4547 50.9412 27.904 51.7488 23.3533 51.8566C18.8027 51.8566 14.2015 51.1565 9.90365 49.4334C7.77999 48.5718 5.65636 47.4411 3.83611 45.8257C2.92597 45.018 2.11696 44.0487 1.51021 42.9179C1.04481 42.0919 0.701264 41.5718 0.448457 40.2257C0.448457 39.9563 0.448457 40.441 0.448457 40.2257C0.448457 40.7641 0.549518 41.3563 0.701202 42.0025C0.903462 42.6487 1.10571 43.2411 1.45965 43.8334C2.0664 44.9642 2.92597 45.9333 3.78553 46.7411C5.6058 48.3565 7.67887 49.4873 9.80251 50.3488C14.1004 52.0719 18.6511 52.7181 23.1511 52.7719C27.6512 52.6104 32.2019 51.8027 36.4491 50.0257C40.3597 48.3401 44.9437 45.0719 45.8032 41.3026C44.9178 45.0744 39.7709 47.8093 36.7525 49.1103Z" fill="url(#paint8_linear_361_178)"/>
<path d="M44.4389 37.2103C44.2872 36.7258 44.0849 36.2412 43.8321 35.8103C43.3265 34.8949 42.5681 34.1411 41.8096 33.4412C40.1916 32.041 38.2197 31.018 36.1971 30.2642C36.0455 30.2103 35.287 29.9411 35.1858 29.9411C35.6409 30.4256 36.2477 31.5564 36.2477 31.5564C38.2702 32.2026 39.5848 32.8488 41.1523 34.0333C42.0119 34.6795 42.7703 35.4335 43.3265 36.3488C43.5793 36.7796 43.7816 37.2642 43.9333 37.7488C44.0849 38.2335 44.1354 38.7181 44.1861 39.2565C44.2366 41.0874 42.6693 43.1873 42.1637 43.7258C43.4277 42.6489 44.7478 40.9873 44.6917 38.7181C44.6917 38.1796 44.5905 37.6951 44.4389 37.2103Z" fill="#600C34"/>
<path d="M10.7627 30.6408C8.79078 31.5024 6.86939 32.5794 5.30194 34.0871C5.25136 34.1409 5.15024 34.2487 5.09968 34.3026C4.49293 34.9486 3.9873 35.7026 3.53223 36.4564C6.11094 33.064 10.3077 31.7179 10.4593 31.7179L11.2183 30.5331C11.1172 30.4792 10.8638 30.5871 10.7627 30.6408Z" fill="url(#paint9_radial_361_178)"/>
<path d="M23.9597 60.0951C23.4541 60.0951 22.9485 60.0412 22.4427 59.9335C21.9371 59.8259 21.4315 59.6105 20.9764 59.395C20.0157 58.9105 17.3864 56.595 16.0719 53.5797C14.9843 53.0604 14.3729 52.3084 13.8472 51.8027C13.6641 51.6264 13.5374 51.6326 13.3415 51.4796C13.9988 53.1488 15.3134 55.7873 16.5775 57.0796C17.3359 57.8874 18.7517 59.1797 20.4708 59.9874C20.9764 60.2027 21.1788 60.5797 21.6844 60.6874C22.1901 60.795 22.9485 60.9567 23.4541 60.9567C25.5272 60.8489 27.3979 59.4489 28.7632 57.7258L29.016 57.1874C27.7519 58.6412 25.8304 60.0412 23.9597 60.0951Z" fill="#630E37"/>
<path d="M28.0045 18.6868C26.9933 17.0714 24.8648 15.1868 22.4426 15.1868C21.9368 15.1868 21.4312 15.3483 20.9256 15.5098C20.42 15.6714 19.9649 15.8329 19.5098 16.1021C18.5997 16.6406 17.5379 17.4484 16.83 18.2561C14.0996 21.2714 13.5815 25.3888 13.5815 27.8199C13.7332 27.7123 15.0584 26.5888 15.8675 25.9965C15.8675 24.781 15.667 21.8638 17.5884 19.0099C20.177 15.1046 24.9707 15.1868 28.0045 18.6868C28.055 18.7406 28.0045 18.7406 28.0045 18.6868Z" fill="#841142"/>
<path d="M36.1958 38.3948C36.0948 33.6024 35.2857 28.7562 33.516 24.2331C32.6058 21.9715 31.4429 19.7638 29.7743 17.8791C29.7238 17.8254 29.6227 17.7715 29.5722 17.6638C29.471 17.5562 29.3699 17.3945 29.2687 17.2869C28.4092 16.3715 27.4485 15.4561 26.3361 14.8637C25.7799 14.5406 25.1226 14.2714 24.5159 14.1099C23.8585 13.9483 23.2012 13.8407 22.5438 13.8407C21.8866 13.8407 21.2293 13.9483 20.5719 14.1637C19.9652 14.3792 19.3584 14.6484 18.8022 14.9715C17.6898 15.6175 16.7291 16.6946 16.0212 17.6638C14.5549 19.5485 13.746 21.3253 12.8864 23.5869C12.2796 25.1485 11.2684 28.5947 11.0662 30.8024C12.0774 29.1871 13.5815 27.8199 13.5815 27.8199C13.5815 27.2814 13.9482 21.8101 16.9819 18.5253C17.7403 17.7176 18.7517 16.91 19.6617 16.3715C20.1168 16.1023 20.6224 15.9406 21.0775 15.7792C21.5831 15.6714 22.0889 15.5638 22.5945 15.5638C24.6169 15.5638 26.4878 16.91 27.8529 18.5792L27.9036 18.6331C28.0552 18.7945 28.2069 18.9562 28.3587 19.1715C29.7743 20.8407 30.7857 22.887 31.5441 25.0408C33.1115 29.2947 33.7183 33.8717 33.6678 38.4487C33.7688 42.9718 33.2127 47.6026 31.7464 51.8565C30.9879 53.9566 30.0273 56.0028 28.6115 57.7259C27.2462 59.3952 25.4259 60.6874 23.4034 60.7413C22.8978 60.7413 22.3922 60.6874 21.8866 60.526C21.381 60.3643 20.9259 60.149 20.4708 59.9336C16.173 57.9413 15.1112 54.172 14.3021 52.2874C13.9988 52.0719 13.4426 51.5334 13.4426 51.5334C12.9369 51.4258 12.8864 51.372 12.4313 51.2642C13.2909 53.7413 14.6561 56.3797 16.2235 58.2644C16.3752 58.4259 16.4763 58.5336 16.6281 58.6951C16.6786 58.749 16.6786 58.8028 16.7291 58.8567C17.5382 59.8259 18.4482 60.6874 19.5607 61.3336C20.1168 61.6567 20.7236 61.926 21.3303 62.1413C21.9877 62.3567 22.645 62.4105 23.3024 62.4644C23.9596 62.4644 24.6675 62.3567 25.2743 62.1952C25.9317 61.9798 26.5383 61.7643 27.0945 61.4414C28.2575 60.7952 29.1676 59.9336 30.0273 59.0182C31.6957 57.1336 32.8081 54.9258 33.7183 52.6642C35.4374 48.0335 36.1453 43.241 36.1958 38.3948Z" fill="url(#paint10_linear_361_178)"/>
<path d="M12.3305 51.2104L13.5946 51.5335C14.3531 52.3412 15.1115 53.1489 16.1228 53.6875C16.8812 55.3567 18.1452 56.8643 18.1452 56.8643C18.1452 56.8643 14.6085 56.0325 14.1535 55.171C13.6479 54.3094 12.3305 51.2104 12.3305 51.2104Z" fill="url(#paint11_linear_361_178)"/>
<defs>
<radialGradient id="paint0_radial_361_178" cx="0" cy="0" r="1" gradientUnits="userSpaceOnUse" gradientTransform="translate(63.127 12.8796) rotate(-12.9249) scale(101.893 48.7747)">
<stop stop-color="#F7AFA1"/>
<stop offset="0.0936919" stop-color="#F3A89D"/>
<stop offset="0.2157" stop-color="#E89493"/>
<stop offset="0.3534" stop-color="#D87683"/>
<stop offset="0.5025" stop-color="#C24F6F"/>
<stop offset="0.6593" stop-color="#A82458"/>
<stop offset="0.7233" stop-color="#9D134F"/>
<stop offset="0.8275" stop-color="#94134B"/>
<stop offset="0.9839" stop-color="#7D1342"/>
<stop offset="1" stop-color="#7A1341"/>
</radialGradient>
<radialGradient id="paint1_radial_361_178" cx="0" cy="0" r="1" gradientUnits="userSpaceOnUse" gradientTransform="translate(56.796 23.4593) rotate(17.9875) scale(81.9453 49.3405)">
<stop stop-color="#FFFFEB"/>
<stop offset="1" stop-color="#FFFFF2" stop-opacity="0.01"/>
</radialGradient>
<radialGradient id="paint2_radial_361_178" cx="0" cy="0" r="1" gradientUnits="userSpaceOnUse" gradientTransform="translate(87.1801 30.5256) rotate(-12.6368) scale(71.1792 34.0918)">
<stop stop-color="white"/>
<stop offset="1" stop-color="white" stop-opacity="0.01"/>
</radialGradient>
<linearGradient id="paint3_linear_361_178" x1="198.984" y1="62.98" x2="200.131" y2="-20.5057" gradientUnits="userSpaceOnUse">
<stop stop-color="#FFFFEB"/>
<stop offset="0.2115" stop-color="#FFFFED" stop-opacity="0.7885"/>
<stop offset="1" stop-color="#FFFFF2" stop-opacity="0.01"/>
</linearGradient>
<linearGradient id="paint4_linear_361_178" x1="28.4356" y1="70.4626" x2="128.203" y2="-23.7922" gradientUnits="userSpaceOnUse">
<stop stop-color="#EC7285"/>
<stop offset="0.1801" stop-color="#E76B81"/>
<stop offset="0.4282" stop-color="#D95674"/>
<stop offset="0.7143" stop-color="#C33862"/>
<stop offset="1" stop-color="#AA174E"/>
</linearGradient>
<linearGradient id="paint5_linear_361_178" x1="25.1353" y1="39.127" x2="46.4807" y2="73.9929" gradientUnits="userSpaceOnUse">
<stop stop-color="#841142" stop-opacity="0.01"/>
<stop offset="0.2463" stop-color="#7E1040" stop-opacity="0.2438"/>
<stop offset="0.5669" stop-color="#700F39" stop-opacity="0.5612"/>
<stop offset="0.9272" stop-color="#590D2E" stop-opacity="0.9179"/>
<stop offset="1" stop-color="#540C2B" stop-opacity="0.99"/>
</linearGradient>
<linearGradient id="paint6_linear_361_178" x1="124.79" y1="5.01576" x2="95.4985" y2="52.1262" gradientUnits="userSpaceOnUse">
<stop stop-color="#8C113A" stop-opacity="0.01"/>
<stop offset="0.2413" stop-color="#881139" stop-opacity="0.2413"/>
<stop offset="0.4573" stop-color="#7E1035" stop-opacity="0.4573"/>
<stop offset="0.6636" stop-color="#6E0F30" stop-opacity="0.6636"/>
<stop offset="0.8628" stop-color="#580D28" stop-opacity="0.8628"/>
<stop offset="1" stop-color="#470C22"/>
</linearGradient>
<radialGradient id="paint7_radial_361_178" cx="0" cy="0" r="1" gradientUnits="userSpaceOnUse" gradientTransform="translate(53.1883 36.9416) rotate(14.7716) scale(89.5526 44.1982)">
<stop stop-color="white"/>
<stop offset="1" stop-color="white" stop-opacity="0.01"/>
</radialGradient>
<linearGradient id="paint8_linear_361_178" x1="-20.3391" y1="57.146" x2="118.743" y2="137.09" gradientUnits="userSpaceOnUse">
<stop stop-color="#9B1549"/>
<stop offset="0.317" stop-color="#630E37"/>
<stop offset="0.4741" stop-color="#690F39"/>
<stop offset="0.6815" stop-color="#7B113F"/>
<stop offset="0.916" stop-color="#9B1549"/>
<stop offset="1" stop-color="#AA174E"/>
</linearGradient>
<radialGradient id="paint9_radial_361_178" cx="0" cy="0" r="1" gradientUnits="userSpaceOnUse" gradientTransform="translate(88.7655 24.0815) scale(94.1501 33.5112)">
<stop stop-color="#AF4560"/>
<stop offset="0.2737" stop-color="#AC415D"/>
<stop offset="0.5187" stop-color="#A23655"/>
<stop offset="0.7528" stop-color="#922549"/>
<stop offset="0.9789" stop-color="#7C113B"/>
<stop offset="1" stop-color="#7A0F39"/>
</radialGradient>
<linearGradient id="paint10_linear_361_178" x1="9.51158" y1="-3.6541" x2="6.74198" y2="59.793" gradientUnits="userSpaceOnUse">
<stop stop-color="#EC7285"/>
<stop offset="0.1773" stop-color="#E66A80"/>
<stop offset="0.4215" stop-color="#D65571"/>
<stop offset="0.7045" stop-color="#BC375D"/>
<stop offset="1" stop-color="#9E1445"/>
</linearGradient>
<linearGradient id="paint11_linear_361_178" x1="14.7466" y1="53.1478" x2="13.882" y2="54.7146" gradientUnits="userSpaceOnUse">
<stop stop-color="#560C2C" stop-opacity="0.99"/>
<stop offset="0.2567" stop-color="#5C0D2F" stop-opacity="0.7359"/>
<stop offset="0.6164" stop-color="#6B0F37" stop-opacity="0.3797"/>
<stop offset="1" stop-color="#841142" stop-opacity="0.01"/>
</linearGradient>
</defs>
</svg>
