<svg width="50" height="32" viewBox="0 0 50 32" fill="none" xmlns="http://www.w3.org/2000/svg">
<path d="M19.6486 24.8838C19.3291 26.5744 18.5836 28.0537 17.4121 29.3216C16.3472 30.4839 14.803 31.0651 12.7796 31.0651H3.51438C2.55591 31.0651 1.70394 30.7481 0.958467 30.1141C0.319489 29.3745 0 28.5292 0 27.5782C0 27.1555 0.053248 26.7857 0.159744 26.4687L8.46645 5.07185C9.74441 1.69062 12.0341 0 15.3355 0H19.3291C20.2875 0 21.0863 0.369824 21.7252 1.10947C22.4707 1.74345 22.8434 2.53593 22.8434 3.4869V3.80389L19.6486 24.8838ZM46.8051 24.8838C46.4856 26.5744 45.7401 28.0537 44.5687 29.3216C43.5037 30.4839 41.9595 31.0651 39.9361 31.0651H30.6709C29.7125 31.0651 28.8605 30.7481 28.115 30.1141C27.476 29.3745 27.1565 28.5292 27.1565 27.5782C27.1565 27.1555 27.2098 26.7857 27.3163 26.4687L35.623 5.07185C36.901 1.69062 39.1906 0 42.492 0H46.4856C47.4441 0 48.2428 0.369824 48.8818 1.10947C49.6273 1.74345 50 2.53593 50 3.4869V3.80389L46.8051 24.8838Z" fill="#D78DFF"/>
</svg>
