<svg width="24" height="24" viewBox="0 0 24 24" fill="none" xmlns="http://www.w3.org/2000/svg">
<rect width="24" height="24" rx="12" fill="#D78DFF"/>
<path d="M12.4584 9.51066C12.6886 9.93823 12.9807 10.3305 13.326 10.6744C13.6699 11.0195 14.062 11.3115 14.4893 11.5416L11.4946 14.5364C11.2294 14.8016 11.1157 14.9144 10.9925 15.0105L10.9923 15.0107C10.8428 15.1275 10.6809 15.2276 10.5094 15.3094C10.3682 15.3764 10.2166 15.4276 9.86062 15.5461L9.86043 15.5462L8.02315 16.159L8.02265 16.1592C7.99732 16.1677 7.97011 16.169 7.9441 16.1629C7.91809 16.1567 7.8943 16.1435 7.87541 16.1246C7.85651 16.1057 7.84326 16.0819 7.83715 16.0559C7.83103 16.0299 7.83229 16.0027 7.84079 15.9773L7.84095 15.9769L8.45383 14.1396L8.45385 14.1395C8.57243 13.7838 8.62353 13.6318 8.69057 13.4907C8.77236 13.3193 8.87257 13.1573 8.98943 13.0076L8.9895 13.0075C9.08558 12.8843 9.19843 12.7706 9.46364 12.5054L12.4584 9.51066ZM14.2751 9.72628L14.2751 9.72627L14.2737 9.72489C13.9234 9.37664 13.6488 8.96053 13.4663 8.5027L13.7151 8.25396C13.9844 7.98464 14.3497 7.83333 14.7306 7.83333C15.1114 7.83333 15.4767 7.98464 15.746 8.25396C16.0154 8.52328 16.1667 8.88856 16.1667 9.26944C16.1667 9.65031 16.0154 10.0156 15.746 10.2849L15.4973 10.5337C15.0396 10.3513 14.6235 10.0767 14.2751 9.72628Z" fill="white" stroke="white" stroke-width="0.666667"/>
</svg>
