<svg width="34" height="33" viewBox="0 0 34 33" fill="none" xmlns="http://www.w3.org/2000/svg">
<path fill-rule="evenodd" clip-rule="evenodd" d="M13.3333 8.66666C13.3333 5.86666 13.3333 4.46666 13.8783 3.39666C14.3577 2.45589 15.1226 1.69102 16.0633 1.21166C17.1333 0.666656 18.5333 0.666656 21.3333 0.666656H25.3333C28.1333 0.666656 29.5333 0.666656 30.6033 1.21166C31.5441 1.69102 32.309 2.45589 32.7883 3.39666C33.3333 4.46666 33.3333 5.86666 33.3333 8.66666V24.3333C33.3333 27.1333 33.3333 28.5333 32.7883 29.6033C32.309 30.5441 31.5441 31.309 30.6033 31.7883C29.5333 32.3333 28.1333 32.3333 25.3333 32.3333H21.3333C18.5333 32.3333 17.1333 32.3333 16.0633 31.7883C15.1226 31.309 14.3577 30.5441 13.8783 29.6033C13.3333 28.5333 13.3333 27.1333 13.3333 24.3333V21.9167H20C21.4366 21.9167 22.8143 21.346 23.8302 20.3302C24.846 19.3143 25.4167 17.9366 25.4167 16.5C25.4167 15.0634 24.846 13.6857 23.8302 12.6698C22.8143 11.654 21.4366 11.0833 20 11.0833H13.3333V8.66666ZM8.97333 12.9733C9.16682 12.7798 9.32029 12.5501 9.425 12.2974C9.52972 12.0446 9.58361 11.7736 9.58361 11.5C9.58361 11.2264 9.52972 10.9554 9.425 10.7026C9.32029 10.4498 9.16682 10.2201 8.97333 10.0267C8.77985 9.83318 8.55016 9.6797 8.29736 9.57499C8.04457 9.47028 7.77362 9.41638 7.5 9.41638C7.22638 9.41638 6.95543 9.47028 6.70264 9.57499C6.44984 9.6797 6.22015 9.83318 6.02667 10.0267L1.02667 15.0267C0.833154 15.2201 0.679647 15.4498 0.574916 15.7026C0.470184 15.9554 0.416279 16.2264 0.416279 16.5C0.416279 16.7736 0.470184 17.0446 0.574916 17.2974C0.679647 17.5502 0.833154 17.7799 1.02667 17.9733L6.02667 22.9733C6.41742 23.3641 6.94739 23.5836 7.5 23.5836C8.05261 23.5836 8.58258 23.3641 8.97333 22.9733C9.36409 22.5826 9.58361 22.0526 9.58361 21.5C9.58361 20.9474 9.36409 20.4174 8.97333 20.0267L7.53 18.5833H20C20.5525 18.5833 21.0824 18.3638 21.4731 17.9731C21.8638 17.5824 22.0833 17.0525 22.0833 16.5C22.0833 15.9475 21.8638 15.4176 21.4731 15.0269C21.0824 14.6362 20.5525 14.4167 20 14.4167H7.53L8.97333 12.9733Z" fill="#D78DFF"/>
</svg>
