<svg width="37" height="38" viewBox="0 0 37 38" fill="none" xmlns="http://www.w3.org/2000/svg">
<rect y="0.802246" width="36.6017" height="36.6017" rx="12" fill="#F6EEFF"/>
<path d="M18.2998 18.9854L26.5663 14.4764C26.3034 13.6114 25.7701 12.8534 25.0448 12.3138C24.3194 11.7741 23.4401 11.4812 22.5361 11.478H14.0635C13.1594 11.4812 12.2801 11.7741 11.5547 12.3138C10.8294 12.8534 10.2961 13.6114 10.0332 14.4764L18.2998 18.9854Z" fill="#D78DFF"/>
<path d="M18.7066 20.694C18.5821 20.7619 18.4425 20.7975 18.3007 20.7975C18.1589 20.7975 18.0194 20.7619 17.8949 20.694L9.82812 16.2939V22.492C9.82945 23.6151 10.2762 24.6919 11.0704 25.4861C11.8645 26.2802 12.9413 26.727 14.0644 26.7283H22.537C23.6602 26.727 24.7369 26.2802 25.5311 25.4861C26.3253 24.6919 26.772 23.6151 26.7733 22.492V16.2939L18.7066 20.694Z" fill="#D78DFF"/>
</svg>
