<svg width="37" height="37" viewBox="0 0 37 37" fill="none" xmlns="http://www.w3.org/2000/svg">
<rect width="36.6017" height="36.6017" rx="12" fill="#F6EEFF"/>
<path d="M24.7011 21.6934L22.6427 20.2553C22.3735 20.0676 22.0589 19.9686 21.7327 19.9686C21.2139 19.9686 20.7269 20.223 20.4303 20.6487L19.9525 21.3335C19.1516 20.7964 18.258 20.0465 17.4062 19.1947C16.5545 18.343 15.8047 17.4494 15.2677 16.6486L15.9522 16.1708C16.3011 15.9278 16.5341 15.5639 16.6081 15.1463C16.682 14.7289 16.5889 14.3073 16.3456 13.9582L14.9078 11.8998C14.6072 11.4698 14.1221 11.2129 13.6099 11.2129C13.4325 11.2129 13.2584 11.2442 13.0927 11.3054C12.9045 11.3749 12.7292 11.4602 12.5573 11.5682L12.2731 11.7683C12.2021 11.8235 12.136 11.884 12.0727 11.9473C11.7259 12.2939 11.4799 12.7326 11.341 13.2514C10.7486 15.4724 12.2163 18.8308 14.9933 21.6078C17.3253 23.9398 20.127 25.3885 22.3047 25.3888H22.3048C22.6778 25.3888 23.0293 25.3454 23.3498 25.2597C23.8686 25.121 24.3073 24.875 24.6542 24.5281C24.7172 24.4651 24.7774 24.399 24.8419 24.3155L25.0422 24.0298C25.1401 23.8734 25.2253 23.6981 25.2957 23.5085C25.5379 22.8538 25.2934 22.1073 24.7011 21.6934Z" fill="#D78DFF"/>
</svg>
