<svg width="18" height="18" viewBox="0 0 18 18" fill="none" xmlns="http://www.w3.org/2000/svg">
<path d="M12.9167 0.5H4.30555C1.93771 0.5 0 2.43687 0 4.80555V13.4167C0 15.7845 1.93771 17.7222 4.30555 17.7222H12.9167C15.2845 17.7222 17.2222 15.7845 17.2222 13.4167V4.80555C17.2222 2.43687 15.2845 0.5 12.9167 0.5ZM8.61111 12.6989C6.62925 12.6989 5.02308 11.0921 5.02308 9.11111C5.02308 7.12925 6.62925 5.52308 8.61111 5.52308C10.5921 5.52308 12.1991 7.12925 12.1991 9.11111C12.1991 11.0921 10.5921 12.6989 8.61111 12.6989ZM13.2755 5.52308C12.6805 5.52308 12.1991 5.04106 12.1991 4.44669C12.1991 3.85232 12.6805 3.3703 13.2755 3.3703C13.8706 3.3703 14.3519 3.85232 14.3519 4.44669C14.3519 5.04106 13.8706 5.52308 13.2755 5.52308Z" fill="#D78DFF"/>
</svg>
