<svg width="14" height="20" viewBox="0 0 14 20" fill="none" xmlns="http://www.w3.org/2000/svg">
<path d="M7 0.5C3.14018 0.5 0 3.64018 0 7.49996C0 12.2901 6.26431 19.3222 6.53102 19.6193C6.78154 19.8983 7.21892 19.8978 7.46898 19.6193C7.73569 19.3222 14 12.2901 14 7.49996C13.9999 3.64018 10.8598 0.5 7 0.5ZM7 11.0218C5.05803 11.0218 3.47816 9.44193 3.47816 7.49996C3.47816 5.55799 5.05807 3.97812 7 3.97812C8.94193 3.97812 10.5218 5.55803 10.5218 7.5C10.5218 9.44197 8.94193 11.0218 7 11.0218Z" fill="#D78DFF"/>
</svg>
