<svg width="125" height="108" viewBox="0 0 125 108" fill="none" xmlns="http://www.w3.org/2000/svg">
<path fill-rule="evenodd" clip-rule="evenodd" d="M121.356 107.875V108H113.097H111.717H109.042V96.7821H113.095V93.5048H109.042V89.9753H111.717H111.829H113.097H121.368H125V93.5048H113.097V96.7821H123.987V100.312H113.097V104.345H125V107.875H121.356Z" fill="#D78DFF"/>
<path fill-rule="evenodd" clip-rule="evenodd" d="M103.314 100.747C102.58 102.459 100.871 103.671 98.8588 103.671C96.1685 103.671 94.0205 101.505 94.0205 98.8742C94.0205 96.2434 96.1685 94.0779 98.8588 94.0779C100.962 94.0779 102.733 95.4007 103.406 97.2347H107.648C106.875 93.1031 103.234 89.9753 98.8588 89.9753C93.9209 89.9753 89.918 93.9595 89.918 98.8742C89.918 103.789 93.9209 107.773 98.8588 107.773C103.151 107.773 106.737 104.763 107.601 100.747H103.314Z" fill="#D78DFF"/>
<path fill-rule="evenodd" clip-rule="evenodd" d="M74.0876 94.1963V89.723L85.1058 99.8071V89.723H88.7785V107.622L80.5491 100.083L80.5501 100.082L80.2088 99.7713L77.6337 97.4121V97.4259L74.0876 94.1963ZM74.0876 98.0629V107.622H77.6337V101.293L74.0876 98.0629Z" fill="#D78DFF"/>
<path fill-rule="evenodd" clip-rule="evenodd" d="M60.4542 93.4968L62.5636 89.7231L73.0751 107.622H68.0093L64.0505 100.2L64.051 100.2L63.9627 100.035L62.5636 97.4122L62.5594 97.4202L60.4542 93.4968ZM58.7964 96.4626L52.5586 107.622H57.3711L60.9784 100.529L58.7964 96.4626Z" fill="#D78DFF"/>
<path d="M36.9817 107.622V89.7231H40.4011V103.841H51.0393V107.622H36.9817Z" fill="#D78DFF"/>
<path fill-rule="evenodd" clip-rule="evenodd" d="M23.0943 93.4972L25.2039 89.723L35.7155 107.622H30.6497L26.6909 100.2L26.6899 100.198L25.2039 97.4121L25.1996 97.4207L23.0943 93.4972ZM21.4366 96.463L15.199 107.622H20.0115L23.6186 100.529L21.4366 96.463Z" fill="#D78DFF"/>
<path fill-rule="evenodd" clip-rule="evenodd" d="M0 97.083V107.848H9.61644C10.3644 107.848 11.12 107.772 11.8832 107.618C12.6616 107.448 13.3791 107.167 14.0354 106.776C14.6918 106.384 15.2184 105.84 15.6153 105.142C16.0121 104.444 16.2106 103.559 16.2106 102.486C16.2106 101.584 16.0198 100.827 15.6382 100.214C15.2718 99.5841 14.7834 99.0819 14.1728 98.7074C13.7704 98.4606 13.3547 98.2582 12.9257 98.1001C13.6105 97.8115 14.1483 97.4182 14.5391 96.9201C15.0887 96.2222 15.3634 95.3797 15.3634 94.3924C15.3634 93.4732 15.1192 92.6817 14.6307 92.0178C14.1575 91.354 13.4478 90.8518 12.5014 90.5114C11.5703 90.1539 10.4102 89.9752 9.02114 89.9752H0V93.3015H3.29706V93.2945H9.02114C9.8454 93.2945 10.5323 93.4307 11.0818 93.703C11.6466 93.9754 11.929 94.452 11.929 95.1328C11.929 95.5414 11.8069 95.8903 11.5626 96.1797C11.3337 96.4691 11.0055 96.6903 10.5781 96.8435C10.1659 96.9967 9.70802 97.0733 9.20431 97.0733H3.6801V97.083H0ZM9.70802 104.529H3.29706V100.137H9.59354C10.0515 100.137 10.5247 100.205 11.0131 100.342C11.5168 100.461 11.9366 100.682 12.2724 101.005C12.6235 101.312 12.799 101.754 12.799 102.333C12.799 102.827 12.6616 103.244 12.3869 103.584C12.1274 103.908 11.7611 104.146 11.2879 104.299C10.8299 104.452 10.3033 104.529 9.70802 104.529Z" fill="#D78DFF"/>
<path d="M70.7907 41.5715L75.9873 50.3116L81.2203 41.5715H87.6386L79.0141 55.9029V64.0086H72.9787V55.9029L64.3359 41.5715H70.7907Z" fill="#D78DFF"/>
<path fill-rule="evenodd" clip-rule="evenodd" d="M48.9019 41.4466H41.7915V45.8172H46.9811V45.8069H48.3627C50.7216 45.8069 52.5413 46.4441 53.8218 47.7187C55.0574 48.9485 55.6752 50.5584 55.6752 52.5485C55.6752 54.941 54.9451 56.741 53.4848 57.9485C52.2717 58.9547 50.5643 59.4578 48.3627 59.4578H46.9811V49.7192H41.7915V63.818H49.0704C52.7547 63.818 55.7089 62.7 57.933 60.464C59.9774 58.4292 60.9996 55.7907 60.9996 52.5485C60.9996 49.2839 59.9212 46.6118 57.7645 44.5323C55.6303 42.4752 52.6761 41.4466 48.9019 41.4466Z" fill="#D78DFF"/>
<path d="M84.6476 25.5939C84.6476 30.4065 80.7246 34.3278 75.8608 34.3278C70.9969 34.3278 67.074 30.4065 67.074 25.5939C67.074 20.7813 70.9969 16.86 75.8608 16.86C80.7246 16.86 84.6476 20.7813 84.6476 25.5939Z" stroke="#D78DFF" stroke-width="4.96925"/>
<path fill-rule="evenodd" clip-rule="evenodd" d="M41.7915 36.6888V14.3445H52.6999C54.3795 14.3445 55.7823 14.5679 56.9082 15.0148C58.0526 15.4404 58.9109 16.0682 59.483 16.8981C60.0737 17.728 60.369 18.7176 60.369 19.8667C60.369 21.101 60.0368 22.1543 59.3723 23.0268C58.8997 23.6495 58.2494 24.1412 57.4213 24.5019C57.94 24.6996 58.4427 24.9527 58.9293 25.2613C59.6676 25.7294 60.2582 26.3572 60.7012 27.1446C61.1627 27.9107 61.3934 28.8576 61.3934 29.9855C61.3934 31.3261 61.1534 32.4327 60.6735 33.3052C60.1936 34.1777 59.5569 34.8587 58.7632 35.3481C57.9695 35.8376 57.102 36.1887 56.1607 36.4015C55.2378 36.593 54.3242 36.6888 53.4197 36.6888H41.7915ZM45.7783 32.5391H53.5305C54.2503 32.5391 54.8871 32.4434 55.4408 32.2518C56.013 32.0603 56.456 31.7624 56.7698 31.3581C57.102 30.9325 57.2681 30.4111 57.2681 29.794C57.2681 29.0704 57.0559 28.5171 56.6313 28.1341C56.2253 27.7298 55.7177 27.4531 55.1086 27.3042C54.518 27.1339 53.9458 27.0488 53.3921 27.0488H45.7783V32.5391ZM52.9214 23.2184H46.4392V23.2338H41.792V18.5063H45.7783V18.4941H52.6999C53.6966 18.4941 54.5272 18.6644 55.1917 19.0049C55.8746 19.3453 56.2161 19.9412 56.2161 20.7924C56.2161 21.3031 56.0684 21.7394 55.7731 22.1011C55.4962 22.4629 55.0994 22.7395 54.5826 22.9311C54.0842 23.1226 53.5305 23.2184 52.9214 23.2184Z" fill="#D78DFF"/>
<path d="M99.0354 3H26.0879V34.3712L30.6247 39.3621L26.0879 43.9964V75.7241H99.0354V43.9964L94.4986 39.3621L99.0354 34.3712V3Z" stroke="#D78DFF" stroke-width="4.82649"/>
</svg>
