<svg width="109" height="94" viewBox="0 0 109 94" fill="none" xmlns="http://www.w3.org/2000/svg">
<path fill-rule="evenodd" clip-rule="evenodd" d="M105.376 93.1818V93.2907H98.2094H97.0114H94.6909V83.5563H98.2076V80.7124H94.6909V77.6497H97.0114H97.1086H98.2094H105.387H108.538V80.7124H98.2094V83.5563H107.659V86.6189H98.2094V90.1191H108.538V93.1818H105.376Z" fill="white"/>
<path fill-rule="evenodd" clip-rule="evenodd" d="M89.6576 86.9972C89.0246 88.4502 87.5682 89.4768 85.8541 89.4768C83.5508 89.4768 81.7126 87.6229 81.7126 85.3717C81.7126 83.1206 83.5508 81.2666 85.8541 81.2666C87.6468 81.2666 89.1578 82.3897 89.7396 83.949H93.4811C92.8103 80.3639 89.6506 77.6497 85.8541 77.6497C81.5693 77.6497 78.0957 81.107 78.0957 85.3717C78.0957 89.6365 81.5693 93.0938 85.8541 93.0938C89.5787 93.0938 92.6904 90.4814 93.4403 86.9972H89.6576Z" fill="white"/>
<path fill-rule="evenodd" clip-rule="evenodd" d="M64.3594 81.3127V77.4307L73.9204 86.1812V77.4307H77.1073V92.9628L69.9662 86.4205L69.9669 86.4198L69.7148 86.1902L67.4365 84.103V84.1152L64.3594 81.3127ZM64.3594 84.6679V92.9628H67.4365V87.4704L64.3594 84.6679Z" fill="white"/>
<path fill-rule="evenodd" clip-rule="evenodd" d="M52.5289 80.7054L54.3593 77.4308L63.4807 92.9628H59.0848L55.6496 86.5222L55.65 86.522L55.5683 86.3697L54.3593 84.103L54.3557 84.11L52.5289 80.7054ZM51.0904 83.2789L45.6775 92.9628H49.8535L52.9838 86.8076L51.0904 83.2789Z" fill="white"/>
<path d="M32.1606 92.9628V77.4308H35.1278V89.6814H44.3591V92.9628H32.1606Z" fill="white"/>
<path fill-rule="evenodd" clip-rule="evenodd" d="M20.1097 80.7058L21.9404 77.4307L31.0617 92.9628H26.6659L23.2306 86.5221L23.2306 86.5221L23.2265 86.5142L21.9404 84.103L21.9366 84.1104L20.1097 80.7058ZM18.6712 83.2793L13.2585 92.9628H17.4346L20.5647 86.808L18.6712 83.2793Z" fill="white"/>
<path fill-rule="evenodd" clip-rule="evenodd" d="M0.0695801 83.8174V93.1589H8.41425C9.06328 93.1589 9.71893 93.0924 10.3812 92.9595C11.0567 92.8118 11.6793 92.5681 12.2488 92.2283C12.8184 91.8886 13.2753 91.4159 13.6197 90.8103C13.9641 90.2047 14.1363 89.4367 14.1363 88.5061C14.1363 87.7233 13.9707 87.066 13.6396 86.5342C13.3217 85.9877 12.8979 85.552 12.368 85.227C12.0188 85.0128 11.6581 84.8371 11.2859 84.7C11.8801 84.4496 12.3468 84.1083 12.6859 83.6761C13.1628 83.0705 13.4012 82.3393 13.4012 81.4826C13.4012 80.685 13.1893 79.9982 12.7654 79.4221C12.3548 78.846 11.7389 78.4103 10.9176 78.1149C10.1097 77.8047 9.10301 77.6496 7.89767 77.6496H0.0695801V80.536H2.93061V80.5299H7.89767C8.61293 80.5299 9.20898 80.6481 9.68582 80.8844C10.1759 81.1207 10.4209 81.5343 10.4209 82.1251C10.4209 82.4796 10.315 82.7824 10.103 83.0335C9.90437 83.2846 9.61959 83.4767 9.24871 83.6096C8.89109 83.7425 8.49372 83.809 8.05662 83.809H3.26288V83.8174H0.0695801ZM8.49372 90.2786H2.93061V86.4677H8.39438C8.79174 86.4677 9.20235 86.5268 9.62621 86.645C10.0633 86.7484 10.4276 86.9404 10.719 87.2211C11.0236 87.4869 11.1759 87.871 11.1759 88.3732C11.1759 88.8015 11.0567 89.1634 10.8183 89.4588C10.5931 89.7395 10.2752 89.9462 9.86463 90.0792C9.46727 90.2121 9.01029 90.2786 8.49372 90.2786Z" fill="white"/>
<path d="M61.4983 35.6473L66.0077 43.2314L70.5487 35.6473H76.1181L68.6342 48.0833V55.1171H63.397V48.0833L55.8972 35.6473H61.4983Z" fill="white"/>
<path fill-rule="evenodd" clip-rule="evenodd" d="M42.5042 35.5389H36.3342V39.3314H40.8375V39.3225H42.0364C44.0833 39.3225 45.6624 39.8755 46.7736 40.9815C47.8457 42.0486 48.3818 43.4456 48.3818 45.1725C48.3818 47.2486 47.7483 48.8106 46.4811 49.8584C45.4284 50.7315 43.9468 51.1681 42.0364 51.1681H40.8375V42.7174H36.3342V54.9517H42.6505C45.8476 54.9517 48.4111 53.9815 50.3411 52.0412C52.1151 50.2755 53.0021 47.986 53.0021 45.1725C53.0021 42.3397 52.0663 40.021 50.1948 38.2165C48.3429 36.4314 45.7793 35.5389 42.5042 35.5389Z" fill="white"/>
<path d="M73.4882 21.7827C73.4882 25.9396 70.0997 29.3271 65.898 29.3271C61.6963 29.3271 58.3077 25.9396 58.3077 21.7827C58.3077 17.6258 61.6963 14.2383 65.898 14.2383C70.0997 14.2383 73.4882 17.6258 73.4882 21.7827Z" stroke="white" stroke-width="4.38106"/>
<path fill-rule="evenodd" clip-rule="evenodd" d="M36.3342 31.4103V12.021H45.8C47.2575 12.021 48.4747 12.2149 49.4518 12.6027C50.4448 12.972 51.1895 13.5168 51.6861 14.2369C52.1986 14.9571 52.4549 15.8158 52.4549 16.8129C52.4549 17.884 52.1666 18.798 51.59 19.5551C51.1799 20.0954 50.6156 20.5221 49.897 20.8352C50.3471 21.0067 50.7833 21.2263 51.2056 21.494C51.8462 21.9003 52.3588 22.445 52.7432 23.1283C53.1436 23.7931 53.3438 24.6148 53.3438 25.5935C53.3438 26.7568 53.1356 27.7171 52.7191 28.4742C52.3027 29.2313 51.7501 29.8222 51.0614 30.2469C50.3727 30.6716 49.6199 30.9763 48.8031 31.161C48.0023 31.3272 47.2094 31.4103 46.4246 31.4103H36.3342ZM39.7938 27.8094H46.5207C47.1454 27.8094 47.6979 27.7263 48.1784 27.5601C48.675 27.3939 49.0594 27.1354 49.3316 26.7845C49.6199 26.4152 49.7641 25.9628 49.7641 25.4273C49.7641 24.7995 49.5799 24.3193 49.2115 23.987C48.8591 23.6361 48.4187 23.396 47.8901 23.2668C47.3776 23.1191 46.8811 23.0452 46.4006 23.0452H39.7938V27.8094ZM45.9922 19.7213H40.3673V19.7348H36.3347V15.6324H39.7938V15.6219H45.8C46.6649 15.6219 47.3856 15.7696 47.9622 16.0651C48.5548 16.3605 48.8511 16.8776 48.8511 17.6162C48.8511 18.0594 48.723 18.4379 48.4667 18.7519C48.2265 19.0658 47.8821 19.3058 47.4337 19.472C47.0012 19.6382 46.5207 19.7213 45.9922 19.7213Z" fill="white"/>
<path d="M86.0077 2.17683H22.7075V29.3992L26.6444 33.73L22.7075 37.7515V65.2832H86.0077V37.7515L82.0709 33.73L86.0077 29.3992V2.17683Z" stroke="white" stroke-width="4.2552"/>
</svg>
