<svg width="20" height="15" viewBox="0 0 20 15" fill="none" xmlns="http://www.w3.org/2000/svg">
<path d="M11.6714 9.7538C11.1739 10.0855 10.5959 10.2609 10 10.2609C9.40414 10.2609 8.82617 10.0855 8.32859 9.7538L0.133164 4.29001C0.087922 4.25976 0.0435173 4.22828 0 4.1956L0 13.1486C0 14.1751 0.833008 14.9897 1.84113 14.9897H18.1588C19.1853 14.9897 20 14.1567 20 13.1486V4.19556C19.9564 4.22833 19.9119 4.25987 19.8665 4.29017L11.6714 9.7538Z" fill="#D78DFF"/>
<path d="M0.783204 3.31487L8.97863 8.7787C9.28887 8.98554 9.64441 9.08894 9.99996 9.08894C10.3555 9.08894 10.7111 8.9855 11.0214 8.7787L19.2168 3.31487C19.7072 2.98812 20 2.44124 20 1.85101C20 0.836123 19.1743 0.010498 18.1595 0.010498H1.84051C0.825665 0.0105371 9.68791e-07 0.836162 9.68791e-07 1.85198C-0.000303273 2.14152 0.0710559 2.42662 0.207714 2.68188C0.344372 2.93713 0.54208 3.1546 0.783204 3.31487Z" fill="#D78DFF"/>
</svg>
