<svg width="12" height="12" viewBox="0 0 12 12" fill="none" xmlns="http://www.w3.org/2000/svg">
<path d="M6.45839 3.51066C6.68859 3.93823 6.98073 4.3305 7.32604 4.67444C7.66985 5.01954 8.06196 5.31152 8.48934 5.54162L5.49459 8.53636C5.22938 8.80157 5.11572 8.91442 4.99253 9.0105L4.99229 9.01068C4.84282 9.12747 4.68093 9.22758 4.50936 9.30939C4.36823 9.37645 4.21657 9.42761 3.86062 9.54611L3.86043 9.54617L2.02315 10.159L2.02265 10.1592C1.99732 10.1677 1.97011 10.169 1.9441 10.1629C1.91809 10.1567 1.8943 10.1435 1.87541 10.1246C1.85651 10.1057 1.84326 10.0819 1.83715 10.0559C1.83103 10.0299 1.83229 10.0027 1.84079 9.97735L1.84095 9.97685L2.45383 8.13957L2.45385 8.1395C2.57243 7.78377 2.62353 7.63182 2.69057 7.49072C2.77236 7.3193 2.87257 7.1573 2.98943 7.00757L2.9895 7.00747C3.08558 6.88428 3.19843 6.77062 3.46364 6.50541L6.45839 3.51066ZM8.27511 3.72628L8.27511 3.72627L8.27372 3.72489C7.92343 3.37664 7.64881 2.96053 7.46634 2.5027L7.71509 2.25396C7.98441 1.98464 8.34969 1.83333 8.73056 1.83333C9.11144 1.83333 9.47672 1.98464 9.74604 2.25396C10.0154 2.52328 10.1667 2.88856 10.1667 3.26944C10.1667 3.65031 10.0154 4.01559 9.74604 4.28491L9.49729 4.53367C9.03962 4.35126 8.62348 4.0767 8.27511 3.72628Z" fill="white" stroke="white" stroke-width="0.666667"/>
</svg>
