<svg width="285" height="34" viewBox="0 0 285 34" fill="none" xmlns="http://www.w3.org/2000/svg">
<path d="M0 33.2867H9.0725V23.9664H13.5375C21.66 23.9664 27.5975 19.9245 27.5975 12.221V12.1259C27.5975 4.8979 22.2775 0.665746 14.0125 0.665746H0V33.2867ZM9.0725 16.8811V8.22658H13.3C16.5775 8.22658 18.525 9.70071 18.525 12.5063V12.6014C18.525 15.1692 16.5775 16.8336 13.3475 16.8336H9.0725V16.8811ZM47.8325 33.9525C57.9025 33.9525 65.455 26.3441 65.455 16.9762V16.8811C65.455 7.51329 57.9975 0 47.9275 0C37.8575 0 30.305 7.6084 30.305 16.9762V17.0713C30.305 26.4392 37.7625 33.9525 47.8325 33.9525ZM47.9275 25.7734C42.9875 25.7734 39.5675 21.6839 39.5675 16.9762V16.8811C39.5675 12.1734 42.8925 8.17903 47.8325 8.17903C52.82 8.17903 56.24 12.2685 56.24 16.9762V17.0713C56.24 21.779 52.915 25.7734 47.9275 25.7734ZM77.045 33.5245H84.93L91.485 14.7413L98.04 33.5245H105.925L116.85 0.618191H107.493L101.793 19.4965L95.475 0.52308H87.685L81.3675 19.4965L75.6675 0.618191H66.12C66.12 0.665743 77.045 33.5245 77.045 33.5245ZM120.413 33.2867H146.917V25.5832H129.39V20.4H145.065V13.2671H129.39V8.32168H146.68V0.618191H120.413C120.413 0.665743 120.413 33.2867 120.413 33.2867ZM151.572 33.2867H160.645V23.3958H164.587L171.142 33.2867H181.592L173.802 21.9217C177.84 20.2098 180.5 16.8811 180.5 11.8881V11.793C180.5 8.55945 179.503 6.03917 177.602 4.18462C175.417 1.94966 171.95 0.618191 166.962 0.618191H151.525L151.572 33.2867ZM160.597 16.3105V8.46434H166.535C169.575 8.46434 171.427 9.74826 171.427 12.3161V12.4112C171.427 14.7888 169.67 16.2629 166.582 16.2629C166.582 16.3105 160.597 16.3105 160.597 16.3105ZM185.107 33.2867H197.505C209.285 33.2867 216.125 26.2965 216.125 16.8811V16.786C216.125 7.37064 209.38 0.665746 197.695 0.665746H185.107V33.2867ZM194.132 25.2979V8.70211H197.837C203.253 8.70211 206.863 11.7455 206.863 16.9762V17.0713C206.863 22.3497 203.253 25.3455 197.837 25.3455C197.837 25.2979 194.132 25.2979 194.132 25.2979ZM266.142 33.2867H275.215V8.55944H285V0.618191H256.358V8.55944H266.142V33.2867Z" fill="black"/>
<path d="M244.292 1.56924L231.895 13.9804H237.5L228.665 24.442L249.802 12.1259H242.583L250.087 5.99161C252.7 9.03497 254.173 12.9818 254.125 17.0238C254.125 26.3916 246.525 34 237.12 34C227.715 34 220.115 26.3916 220.115 17.0238C220.115 7.65595 227.715 0.0475524 237.12 0.0475524C239.685 -4.60581e-08 242.107 0.570635 244.292 1.56924Z" fill="#C91619"/>
</svg>
