<svg width="177" height="61" viewBox="0 0 177 61" fill="none" xmlns="http://www.w3.org/2000/svg">
<path d="M84.2921 52.4496H22.6763V58.4048H84.2921V52.4496Z" fill="#111111"/>
<path d="M20.9716 48.27H13.3136V33.0542H7.84747V48.27H0.32477V10.1075H14.829L20.6198 15.8441V25.5692L16.3173 29.339L20.9446 33.3274V48.27H20.9716ZM13.3136 17.21H7.84747V25.9516H13.3136V17.21Z" fill="#C8102E"/>
<path d="M44.9198 42.5607L39.3454 48.2973H30.1991L24.2729 42.5607V15.8441L30.172 10.1075H39.0477L44.9198 15.8441V42.5607ZM37.37 17.21H32.0662V41.1948H37.37V17.21Z" fill="#C8102E"/>
<path d="M69.1926 42.5607L63.4288 48.27H54.3907L48.654 42.5607V15.8441L54.3907 10.1075H63.1582L69.1926 15.8441V24.5858H61.5346V17.21H56.1767V41.1948H61.5346V31.9615H69.1926V42.5607Z" fill="#C8102E"/>
<path d="M95.6303 48.27H87.1064L80.4496 31.3332V48.27H72.9269V10.1075H80.4496V27.5634L86.5381 10.1075H94.7373L87.4311 27.9185L95.6303 48.27Z" fill="#C8102E"/>
<path d="M113.95 17.6198H108.809V48.27H100.988V17.6198H95.7385V10.1075H113.95V17.6198Z" fill="#111111"/>
<path d="M137.33 48.27H129.51L128.617 41.2221H122.257L121.419 48.27H113.598L119.254 10.1075H131.241L137.33 48.27ZM127.778 34.0376L125.721 17.21H124.72L122.988 34.0376H127.778Z" fill="#111111"/>
<path d="M158.572 29.7488L152.619 35.2942H146.206V48.2973H138.683V10.1075H152.619L158.572 15.8441V29.7488ZM151.049 17.21H146.206V28.1917H151.049V17.21Z" fill="#111111"/>
<path d="M177 48.27H161.035V10.1075H177V17.21H168.557V24.5858H175.701V31.6883H168.557V41.1948H177V48.27Z" fill="#111111"/>
<path d="M19.7809 52.4496H6.9815V58.4048H19.7809V52.4496Z" fill="#111111"/>
<path d="M5.2226 52.4496H0V58.4048H5.2226V52.4496Z" fill="#111111"/>
<path d="M154.053 0H92.4373V5.95522H154.053V0Z" fill="#C8102E"/>
<path d="M169.748 0H156.948V5.95522H169.748V0Z" fill="#C8102E"/>
<path d="M96.7669 53.3238L96.2527 53.8155C95.8739 53.4331 95.468 53.1599 95.035 52.9687C94.6021 52.7774 94.1691 52.6682 93.7361 52.6682C93.222 52.6682 92.7078 52.8048 92.2478 53.0779C91.7878 53.3511 91.409 53.7062 91.1384 54.1433C90.8678 54.6077 90.7595 55.0721 90.7595 55.5638C90.7595 56.0829 90.8948 56.5746 91.1654 57.039C91.436 57.5034 91.8149 57.8585 92.2749 58.1317C92.762 58.4049 93.2761 58.5414 93.8444 58.5414C94.5209 58.5414 95.1162 58.3502 95.5762 57.9405C96.0633 57.5307 96.3339 57.039 96.4151 56.3834H94.2773V55.7277H97.1457C97.1457 56.7931 96.821 57.64 96.2257 58.2409C95.6303 58.8692 94.8185 59.1697 93.7903 59.1697C92.5455 59.1697 91.5713 58.7327 90.8678 57.8858C90.3266 57.2302 90.0289 56.4653 90.0289 55.5911C90.0289 54.9355 90.1913 54.3345 90.516 53.7882C90.8407 53.2145 91.2737 52.7774 91.8149 52.477C92.3831 52.1765 93.0055 52.0126 93.682 52.0126C94.2503 52.0126 94.7915 52.1218 95.2786 52.313C95.8198 52.5043 96.3068 52.8594 96.7669 53.3238Z" fill="#111111"/>
<path d="M100.691 53.8155C101.448 53.8155 102.071 54.0887 102.585 54.6623C103.045 55.1814 103.261 55.7824 103.261 56.4926C103.261 57.2029 103.018 57.8039 102.531 58.3502C102.044 58.8692 101.421 59.1424 100.664 59.1424C99.9058 59.1424 99.2835 58.8692 98.7964 58.3502C98.3093 57.8312 98.0658 57.2029 98.0658 56.4926C98.0658 55.7824 98.2822 55.1814 98.7422 54.6623C99.2834 54.0887 99.9058 53.8155 100.691 53.8155ZM100.664 54.4438C100.149 54.4438 99.6894 54.635 99.3105 55.0448C98.9317 55.4545 98.7422 55.9189 98.7422 56.4926C98.7422 56.8477 98.8234 57.2029 99.0129 57.5034C99.1752 57.8312 99.4188 58.0497 99.7164 58.2409C100.014 58.4048 100.339 58.5141 100.691 58.5141C101.042 58.5141 101.367 58.4322 101.665 58.2409C101.962 58.077 102.206 57.8312 102.368 57.5034C102.531 57.1755 102.639 56.8477 102.639 56.4926C102.639 55.9189 102.449 55.4545 102.071 55.0448C101.665 54.6623 101.205 54.4438 100.664 54.4438Z" fill="#111111"/>
<path d="M109.485 54.4984L109.079 54.9355C108.727 54.6077 108.403 54.4165 108.078 54.4165C107.861 54.4165 107.699 54.4711 107.537 54.635C107.401 54.7716 107.32 54.9355 107.32 55.1267C107.32 55.2906 107.374 55.4546 107.51 55.5911C107.645 55.755 107.888 55.9189 108.267 56.1375C108.727 56.3833 109.052 56.6292 109.241 56.8751C109.404 57.1209 109.485 57.3668 109.485 57.6673C109.485 58.077 109.35 58.4322 109.052 58.7327C108.781 59.0058 108.403 59.1697 107.997 59.1697C107.699 59.1697 107.428 59.1151 107.185 58.9785C106.914 58.8419 106.698 58.678 106.535 58.4595L106.941 57.9951C107.266 58.3775 107.618 58.5687 107.97 58.5687C108.213 58.5687 108.43 58.4868 108.619 58.3229C108.809 58.159 108.89 57.9678 108.89 57.7219C108.89 57.5307 108.836 57.3668 108.7 57.2302C108.592 57.0936 108.321 56.9024 107.888 56.6838C107.456 56.438 107.131 56.2194 106.968 55.9736C106.806 55.755 106.725 55.4819 106.725 55.1814C106.725 54.7989 106.86 54.4711 107.104 54.2253C107.347 53.9794 107.672 53.8428 108.078 53.8428C108.565 53.8155 109.025 54.034 109.485 54.4984Z" fill="#111111"/>
<path d="M111.163 52.0672H111.812V53.9521H112.814V54.4984H111.812V59.0058H111.163V54.4984H110.297V53.9521H111.163V52.0672Z" fill="#111111"/>
<path d="M113.517 53.9521H114.167V54.6897C114.356 54.3892 114.572 54.1706 114.789 54.034C115.005 53.8974 115.222 53.8155 115.465 53.8155C115.655 53.8155 115.817 53.8701 116.034 53.9794L115.709 54.5257C115.574 54.4711 115.465 54.4438 115.384 54.4438C115.168 54.4438 114.978 54.5258 114.762 54.717C114.572 54.9082 114.41 55.1814 114.302 55.5638C114.221 55.837 114.194 56.438 114.194 57.3121V59.0331H113.544V53.9521H113.517Z" fill="#111111"/>
<path d="M118.875 53.8155C119.633 53.8155 120.255 54.0887 120.769 54.6623C121.229 55.1814 121.446 55.7824 121.446 56.4926C121.446 57.2029 121.202 57.8039 120.715 58.3502C120.228 58.8692 119.606 59.1424 118.875 59.1424C118.117 59.1424 117.495 58.8692 117.008 58.3502C116.521 57.8312 116.277 57.2029 116.277 56.4926C116.277 55.7824 116.494 55.1814 116.954 54.6623C117.495 54.0887 118.117 53.8155 118.875 53.8155ZM118.875 54.4438C118.334 54.4438 117.901 54.635 117.522 55.0448C117.143 55.4545 116.954 55.9189 116.954 56.4926C116.954 56.8477 117.035 57.2029 117.224 57.5034C117.387 57.8312 117.63 58.0497 117.928 58.2409C118.226 58.4048 118.55 58.5141 118.902 58.5141C119.254 58.5141 119.579 58.4322 119.876 58.2409C120.174 58.077 120.417 57.8312 120.58 57.5034C120.742 57.1755 120.85 56.8477 120.85 56.4926C120.85 55.9189 120.661 55.4545 120.282 55.0448C119.849 54.6623 119.416 54.4438 118.875 54.4438Z" fill="#111111"/>
<path d="M122.636 53.9521H123.259V54.8536C123.502 54.4984 123.8 54.2526 124.097 54.0613C124.395 53.8974 124.747 53.8155 125.099 53.8155C125.478 53.8155 125.802 53.8974 126.073 54.0887C126.371 54.2799 126.56 54.5531 126.695 54.8536C126.831 55.1814 126.912 55.7004 126.912 56.3833V58.9785H126.289V56.5472C126.289 55.9736 126.262 55.5638 126.208 55.3726C126.127 55.0448 125.992 54.7716 125.775 54.6077C125.559 54.4438 125.288 54.3618 124.963 54.3618C124.585 54.3618 124.233 54.4984 123.935 54.7443C123.637 54.9901 123.421 55.318 123.34 55.7277C123.286 55.9736 123.259 56.438 123.259 57.0936V58.9512H122.636V53.9521Z" fill="#111111"/>
<path d="M132.567 53.9521H133.19V57.9951C133.19 58.7053 133.136 59.2244 133 59.5522C132.838 60.0166 132.54 60.3717 132.134 60.6176C131.728 60.8634 131.241 61 130.646 61C130.213 61 129.834 60.9454 129.51 60.8088C129.185 60.6995 128.887 60.5083 128.698 60.3171C128.481 60.0985 128.292 59.798 128.102 59.4156H128.779C128.968 59.7434 129.212 59.9893 129.51 60.1532C129.807 60.3171 130.186 60.399 130.619 60.399C131.052 60.399 131.431 60.3171 131.729 60.1532C132.026 59.9893 132.243 59.7707 132.378 59.5249C132.513 59.279 132.567 58.8692 132.567 58.3229V58.0497C132.324 58.3502 132.026 58.5961 131.701 58.76C131.35 58.9239 130.998 59.0058 130.592 59.0058C130.132 59.0058 129.699 58.8965 129.32 58.6507C128.914 58.4322 128.617 58.1043 128.4 57.7219C128.184 57.3395 128.075 56.9024 128.075 56.438C128.075 55.9736 128.184 55.5365 128.427 55.1267C128.644 54.717 128.968 54.3892 129.374 54.1706C129.78 53.9248 130.186 53.8155 130.646 53.8155C131.025 53.8155 131.35 53.8974 131.674 54.0613C131.999 54.2253 132.297 54.4711 132.594 54.8262V53.9521H132.567ZM130.7 54.4438C130.348 54.4438 129.997 54.5258 129.699 54.717C129.401 54.9082 129.158 55.154 128.968 55.4545C128.806 55.755 128.698 56.1102 128.698 56.4653C128.698 57.0116 128.887 57.476 129.239 57.8585C129.591 58.2136 130.078 58.4048 130.646 58.4048C131.241 58.4048 131.701 58.2136 132.053 57.8585C132.405 57.5034 132.594 57.0116 132.594 56.438C132.594 56.0555 132.513 55.7004 132.351 55.4272C132.189 55.1267 131.945 54.8809 131.647 54.717C131.35 54.5258 131.025 54.4438 130.7 54.4438Z" fill="#111111"/>
<path d="M138.737 57.3395L139.278 57.6399C139.116 57.9951 138.899 58.2682 138.683 58.4868C138.439 58.7053 138.196 58.8692 137.898 58.9785C137.601 59.0878 137.276 59.1424 136.924 59.1424C136.112 59.1424 135.49 58.8692 135.03 58.3229C134.57 57.7765 134.353 57.1755 134.353 56.4926C134.353 55.837 134.543 55.2633 134.922 54.7716C135.409 54.1433 136.058 53.8155 136.87 53.8155C137.709 53.8155 138.385 54.1433 138.899 54.7989C139.251 55.2633 139.441 55.837 139.441 56.5199H135.003C135.003 57.1209 135.192 57.5853 135.544 57.9678C135.896 58.3502 136.329 58.5414 136.87 58.5414C137.113 58.5414 137.357 58.4868 137.601 58.4048C137.844 58.3229 138.034 58.1863 138.196 58.0497C138.358 57.9131 138.521 57.6673 138.737 57.3395ZM138.737 55.9736C138.656 55.6184 138.521 55.3453 138.358 55.1267C138.196 54.9082 137.979 54.7443 137.709 54.635C137.438 54.4984 137.168 54.4438 136.87 54.4438C136.383 54.4438 135.977 54.6077 135.625 54.9355C135.382 55.1814 135.165 55.5092 135.057 55.9736H138.737Z" fill="#111111"/>
<path d="M140.361 53.9521H141.01V54.6897C141.2 54.3892 141.416 54.1706 141.633 54.034C141.849 53.8974 142.065 53.8155 142.309 53.8155C142.498 53.8155 142.661 53.8701 142.877 53.9794L142.553 54.5257C142.417 54.4711 142.309 54.4438 142.228 54.4438C142.011 54.4438 141.822 54.5258 141.605 54.717C141.416 54.9082 141.254 55.1814 141.145 55.5638C141.064 55.837 141.037 56.438 141.037 57.3121V59.0331H140.388V53.9521H140.361Z" fill="#111111"/>
<path d="M143.094 57.7492L143.689 58.0497L142.769 59.8253L142.336 59.6068L143.094 57.7492Z" fill="#111111"/>
<path d="M148.127 51.9852H147.505V59.0058H148.127V51.9852Z" fill="#111111"/>
<path d="M151.807 53.8155C152.565 53.8155 153.187 54.0887 153.701 54.6623C154.161 55.1814 154.378 55.7824 154.378 56.4926C154.378 57.2029 154.134 57.8039 153.647 58.3502C153.16 58.8692 152.538 59.1424 151.807 59.1424C151.049 59.1424 150.427 58.8692 149.94 58.3502C149.453 57.8312 149.209 57.2029 149.209 56.4926C149.209 55.7824 149.426 55.1814 149.886 54.6623C150.4 54.0887 151.022 53.8155 151.807 53.8155ZM151.807 54.4438C151.266 54.4438 150.833 54.635 150.454 55.0448C150.075 55.4545 149.886 55.9189 149.886 56.4926C149.886 56.8477 149.967 57.2029 150.156 57.5034C150.319 57.8312 150.562 58.0497 150.86 58.2409C151.158 58.4048 151.482 58.5141 151.834 58.5141C152.186 58.5141 152.511 58.4322 152.808 58.2409C153.106 58.077 153.35 57.8312 153.512 57.5034C153.674 57.1755 153.782 56.8477 153.782 56.4926C153.782 55.9189 153.593 55.4545 153.214 55.0448C152.781 54.6623 152.321 54.4438 151.807 54.4438Z" fill="#111111"/>
<path d="M156.191 53.9521V54.8536C156.434 54.4984 156.732 54.2526 157.03 54.0613C157.327 53.8974 157.679 53.8155 158.031 53.8155C158.41 53.8155 158.735 53.8974 159.005 54.0887C159.303 54.2799 159.492 54.5531 159.628 54.8536C159.763 55.1814 159.844 55.7004 159.844 56.3833V58.9785H159.195V56.5472C159.195 55.9736 159.167 55.5638 159.113 55.3726C159.032 55.0448 158.897 54.7716 158.68 54.6077C158.464 54.4438 158.193 54.3618 157.869 54.3618C157.49 54.3618 157.138 54.4984 156.84 54.7443C156.543 54.9901 156.326 55.318 156.245 55.7277C156.191 55.9736 156.164 56.438 156.164 57.0936V58.9512H155.514V53.9521H156.191Z" fill="#111111"/>
<path d="M165.472 53.9521H166.122V57.9951C166.122 58.7053 166.068 59.2244 165.932 59.5522C165.77 60.0166 165.472 60.3717 165.067 60.6176C164.661 60.8634 164.146 61 163.578 61C163.145 61 162.766 60.9454 162.442 60.8088C162.117 60.6995 161.819 60.5083 161.63 60.3171C161.413 60.0985 161.224 59.798 161.035 59.4156H161.711C161.9 59.7434 162.144 59.9893 162.442 60.1532C162.739 60.3171 163.118 60.399 163.551 60.399C163.984 60.399 164.363 60.3171 164.661 60.1532C164.958 59.9893 165.175 59.7707 165.31 59.5249C165.445 59.279 165.499 58.8692 165.499 58.3229V58.0497C165.256 58.3502 164.958 58.5961 164.634 58.76C164.282 58.9239 163.93 59.0058 163.524 59.0058C163.064 59.0058 162.631 58.8965 162.252 58.6507C161.846 58.4322 161.549 58.1043 161.332 57.7219C161.116 57.3395 161.007 56.9024 161.007 56.438C161.007 55.9736 161.116 55.5365 161.359 55.1267C161.576 54.717 161.9 54.3892 162.306 54.1706C162.712 53.9248 163.145 53.8155 163.578 53.8155C163.957 53.8155 164.282 53.8974 164.606 54.0613C164.931 54.2253 165.229 54.4711 165.527 54.8262V53.9521H165.472ZM163.605 54.4438C163.253 54.4438 162.902 54.5258 162.604 54.717C162.306 54.9082 162.063 55.154 161.873 55.4545C161.684 55.755 161.603 56.1102 161.603 56.4653C161.603 57.0116 161.792 57.476 162.144 57.8585C162.496 58.2136 162.983 58.4048 163.551 58.4048C164.146 58.4048 164.606 58.2136 164.958 57.8585C165.31 57.5034 165.499 57.0116 165.499 56.438C165.499 56.0555 165.418 55.7004 165.256 55.4272C165.094 55.1267 164.85 54.8809 164.552 54.717C164.282 54.5258 163.957 54.4438 163.605 54.4438Z" fill="#111111"/>
<path d="M171.642 57.3395L172.183 57.6399C172.021 57.9951 171.804 58.2682 171.561 58.4868C171.344 58.7053 171.074 58.8692 170.776 58.9785C170.479 59.0878 170.154 59.1424 169.802 59.1424C168.99 59.1424 168.368 58.8692 167.908 58.3229C167.448 57.7765 167.231 57.1755 167.231 56.4926C167.231 55.837 167.421 55.2633 167.8 54.7716C168.287 54.1433 168.936 53.8155 169.748 53.8155C170.587 53.8155 171.263 54.1433 171.777 54.7989C172.129 55.2633 172.319 55.837 172.319 56.5199H167.881C167.881 57.1209 168.07 57.5853 168.422 57.9678C168.774 58.3502 169.207 58.5414 169.748 58.5414C169.991 58.5414 170.235 58.4868 170.479 58.4048C170.722 58.3229 170.912 58.1863 171.074 58.0497C171.263 57.9131 171.453 57.6673 171.642 57.3395ZM171.642 55.9736C171.561 55.6184 171.426 55.3453 171.263 55.1267C171.101 54.9082 170.884 54.7443 170.614 54.635C170.343 54.4984 170.073 54.4438 169.775 54.4438C169.288 54.4438 168.882 54.6077 168.53 54.9355C168.287 55.1814 168.07 55.5092 167.962 55.9736H171.642Z" fill="#111111"/>
<path d="M173.293 53.9521H173.942V54.6897C174.132 54.3892 174.348 54.1706 174.565 54.034C174.781 53.8974 174.998 53.8155 175.241 53.8155C175.403 53.8155 175.593 53.8701 175.809 53.9794L175.485 54.5257C175.349 54.4711 175.241 54.4438 175.16 54.4438C174.943 54.4438 174.754 54.5258 174.538 54.717C174.348 54.9082 174.186 55.1814 174.078 55.5638C173.996 55.837 173.969 56.438 173.969 57.3121V59.0331H173.32V53.9521H173.293Z" fill="#111111"/>
<path d="M174.159 2.29467C174.05 2.29467 173.942 2.29467 173.915 2.32199V2.89566H174.132C174.375 2.89566 174.592 2.8137 174.592 2.59516C174.565 2.40394 174.429 2.29467 174.159 2.29467Z" fill="#C8102E"/>
<path d="M174.186 1.39319C173.32 1.39319 172.67 2.10345 172.67 2.97761C172.67 3.85177 173.32 4.56202 174.213 4.56202C175.079 4.56202 175.701 3.85177 175.701 3.00493C175.701 2.10345 175.079 1.39319 174.186 1.39319ZM174.673 4.01567C174.619 3.93372 174.565 3.76982 174.51 3.52396C174.483 3.30542 174.348 3.22347 174.105 3.22347H173.888V4.01567H173.428V2.0215C173.617 1.99418 173.861 1.96686 174.186 1.96686C174.565 1.96686 174.727 2.0215 174.862 2.10345C174.97 2.1854 175.052 2.34931 175.052 2.54053C175.052 2.75907 174.889 2.92297 174.646 3.00493V3.03224C174.835 3.1142 174.943 3.25078 174.997 3.52396C175.052 3.82445 175.106 3.93372 175.133 4.01567H174.673Z" fill="#C8102E"/>
<path d="M171.561 0V5.95522H176.783V0H171.561ZM174.186 4.97179C173.076 4.97179 172.156 4.09763 172.156 2.97761C172.156 1.88491 173.049 1.01075 174.186 1.01075C175.322 1.01075 176.188 1.88491 176.188 2.97761C176.188 4.09763 175.322 4.97179 174.186 4.97179Z" fill="#C8102E"/>
</svg>
