<svg width="24" height="24" viewBox="0 0 24 24" fill="none" xmlns="http://www.w3.org/2000/svg">
<g id="Group">
<path id="Vector" d="M23.0733 21.4371L17.498 15.6385C18.932 13.9371 19.718 11.7833 19.717 9.55818C19.717 4.34308 15.474 0.100098 10.2589 0.100098C5.04376 0.100098 0.800781 4.34308 0.800781 9.55818C0.800781 14.7733 5.04376 19.0163 10.2589 19.0163C12.2167 19.0163 14.0824 18.4258 15.6775 17.3048L21.2952 23.1474C21.53 23.3912 21.8458 23.5257 22.1843 23.5257C22.5046 23.5257 22.8085 23.4036 23.0392 23.1815C23.2747 22.9545 23.4105 22.6434 23.4169 22.3164C23.4233 21.9894 23.2997 21.6732 23.0733 21.4371ZM10.2589 2.56742C14.1137 2.56742 17.2496 5.7034 17.2496 9.55818C17.2496 13.413 14.1137 16.5489 10.2589 16.5489C6.40408 16.5489 3.26811 13.413 3.26811 9.55818C3.26811 5.7034 6.40408 2.56742 10.2589 2.56742Z" fill="#D5D5D5"/>
</g>
</svg>
