<svg width="1920" height="650" viewBox="0 0 1920 650" fill="none" xmlns="http://www.w3.org/2000/svg">
<path opacity="0.54" d="M1961.61 387.963C1971.41 324.911 1911.17 272.381 1846.34 266.008C1781.5 259.611 1715.78 287.302 1656.25 318.66C1596.71 349.993 1537.89 386.259 1472.67 399.801C1337.69 427.804 1212.83 353.365 1106.76 279.212C1000.69 205.058 883.607 124.241 747.33 137.937C640.486 148.691 545.811 216.009 443.766 253.889C265.639 320.025 59.1859 289.519 -76.5532 176.936" stroke="url(#paint0_linear_44_30)" stroke-width="1.56225" stroke-miterlimit="10"/>
<path opacity="0.54" d="M1963 404.819C1972.85 341.841 1913.18 289.172 1848.61 282.146C1842.85 281.504 1837.05 281.177 1831.26 281.044C1772.3 279.963 1712.93 304.732 1658.6 332.629C1648.11 338.012 1637.64 343.549 1627.17 349.086C1578.01 375.1 1528.47 401.207 1474.74 412.083C1457.34 415.619 1440.07 417.449 1423.01 417.799C1307.88 420.229 1201.69 355.224 1110.01 290.001C1103.35 285.25 1096.65 280.492 1089.91 275.724C990.124 205.151 881.132 135.319 755.109 143.475C719.065 145.813 683.923 153.611 648.99 166.254C607.746 181.163 567.638 202.352 528.074 222.754C501.059 236.68 474.142 250.283 446.516 261.724C433.529 267.102 420.345 271.968 406.977 276.281C321.878 303.776 229.741 308.459 143.947 292.172C57.9482 275.842 -21.8308 238.881 -86.1581 184.473" stroke="url(#paint1_linear_44_30)" stroke-width="1.56225" stroke-miterlimit="10"/>
<path opacity="0.54" d="M1964.4 421.679C1974.31 358.734 1915.21 305.95 1850.91 298.272C1845.16 297.589 1839.39 297.182 1833.61 297.008C1774.84 295.347 1715.43 319.378 1660.93 346.617C1650.41 351.887 1639.93 357.294 1629.43 362.717C1580.15 388.172 1530.49 413.824 1476.8 424.408C1459.41 427.839 1442.15 429.629 1425.09 429.914C1309.96 431.915 1204.18 366.696 1113.21 300.85C1106.61 296.068 1099.95 291.253 1093.29 286.437C994.415 215.154 887.175 145.473 762.81 149.13C726.472 150.185 690.662 155.83 654.609 168.046C611.996 182.477 570.783 205.087 530.978 227.09C503.814 242.099 476.958 256.958 449.254 269.604C436.207 275.548 422.989 280.964 409.463 285.801C323.411 316.613 227.807 322.333 139.593 305.135C51.1871 287.919 -30.1279 248.558 -95.7511 191.973" stroke="url(#paint2_linear_44_30)" stroke-width="1.56225" stroke-miterlimit="10"/>
<path opacity="0.54" d="M1965.83 438.522C1975.78 375.65 1917.28 322.711 1853.23 314.42C1847.51 313.681 1841.76 313.193 1836 312.979C1777.39 310.728 1717.96 334.007 1663.3 360.612C1652.77 365.752 1642.22 371.037 1631.72 376.331C1582.32 401.225 1532.56 426.406 1478.89 436.715C1461.52 440.066 1444.29 441.775 1427.23 442.02C1312.15 443.6 1206.76 378.183 1116.48 311.689C1109.92 306.851 1103.34 301.988 1096.73 297.141C998.761 225.124 893.203 155.535 770.592 154.735C733.92 154.499 697.498 158.023 660.297 169.829C616.302 183.758 573.997 207.812 533.967 231.44C506.626 247.548 479.872 263.671 452.076 277.499C439.009 284.018 425.69 289.991 412.034 295.337C325.029 329.466 225.973 336.246 135.338 318.137C44.5105 300.01 -38.3261 258.275 -105.272 199.529" stroke="url(#paint3_linear_44_30)" stroke-width="1.56225" stroke-miterlimit="10"/>
<path opacity="0.54" d="M1967.24 455.404C1977.22 392.581 1919.3 339.528 1855.54 330.569C1849.82 329.765 1844.13 329.244 1838.39 328.95C1779.96 326.094 1720.5 348.66 1665.68 374.632C1655.11 379.633 1644.57 384.813 1634 390.009C1584.49 414.343 1534.59 439.045 1480.95 449.104C1463.59 452.349 1446.37 454.017 1429.34 454.182C1314.27 455.357 1209.3 389.687 1119.69 322.601C1113.18 317.731 1106.64 312.812 1100.09 307.893C1003.04 235.165 899.085 165.482 778.306 160.412C741.31 158.844 704.223 160.279 665.916 171.684C620.511 185.127 577.141 210.61 536.872 235.838C509.395 253.054 482.687 270.409 454.788 285.458C441.687 292.527 428.266 299.057 414.466 304.952C326.523 342.422 223.987 350.214 130.945 331.219C37.7107 312.205 -46.662 268.072 -114.93 207.164" stroke="url(#paint4_linear_44_30)" stroke-width="1.56225" stroke-miterlimit="10"/>
<path opacity="0.54" d="M1968.64 472.264C1978.69 409.499 1921.32 356.282 1857.84 346.694C1852.16 345.834 1846.46 345.249 1840.73 344.914C1782.48 341.453 1723.01 363.306 1668.01 388.62C1657.4 393.508 1646.83 398.574 1636.26 403.64C1586.64 427.414 1536.6 451.661 1483.01 461.429C1465.67 464.593 1448.48 466.181 1431.42 466.297C1316.34 467.043 1211.81 401.183 1122.9 333.45C1116.42 328.523 1109.97 323.581 1103.47 318.606C1007.33 245.168 904.937 175.253 786.02 166.026C748.634 163.134 710.991 162.481 671.548 173.435C624.775 186.401 580.299 213.304 539.763 240.148C512.11 258.464 485.463 277.074 457.513 293.313C444.351 300.948 430.896 308.029 416.939 314.448C328.043 355.235 222.055 364.088 126.592 344.181C30.9634 324.24 -54.9577 277.749 -124.549 214.68" stroke="url(#paint5_linear_44_30)" stroke-width="1.56225" stroke-miterlimit="10"/>
<path opacity="0.54" d="M1970.04 489.123C1980.12 426.406 1923.36 373.059 1860.11 362.834C1854.47 361.918 1848.77 361.268 1843.08 360.877C1785 356.851 1725.49 377.926 1670.38 402.615C1659.74 407.389 1649.15 412.302 1638.55 417.254C1588.82 440.492 1538.67 464.244 1485.1 473.737C1467.77 476.796 1450.57 478.319 1433.55 478.379C1318.49 478.72 1214.36 412.622 1126.15 344.265C1119.73 339.307 1113.32 334.309 1106.9 329.286C1011.67 255.139 910.768 184.868 793.8 171.632C756.035 167.375 717.81 164.65 677.234 175.219C629.078 187.682 583.511 216.03 542.75 244.499C514.946 263.898 488.36 283.764 460.332 301.208C447.152 309.418 433.595 317.057 419.48 324C329.632 368.104 220.177 377.993 122.307 357.2C24.272 336.373 -63.1852 287.483 -134.099 222.252" stroke="url(#paint6_linear_44_30)" stroke-width="1.56225" stroke-miterlimit="10"/>
<path opacity="0.54" d="M1971.46 505.965C1981.61 443.306 1925.39 389.836 1862.45 378.967C1856.82 378.01 1851.16 377.304 1845.47 376.848C1787.57 372.217 1728.04 392.579 1672.75 416.611C1662.1 421.255 1651.46 426.069 1640.85 430.892C1590.98 453.586 1540.72 476.843 1487.2 486.069C1469.9 489.048 1452.7 490.506 1435.7 490.484C1320.65 490.421 1216.93 424.109 1129.42 355.105C1123.07 350.075 1116.72 345.045 1110.35 339.99C1016.03 265.133 916.621 194.337 801.581 177.237C763.408 171.566 724.644 166.844 682.906 176.977C633.367 188.938 586.709 218.731 545.708 248.801C517.727 269.298 491.229 290.405 463.097 309.07C449.856 317.846 436.265 326.035 421.993 333.503C331.207 380.948 218.286 391.874 117.994 370.169C17.5377 348.431 -71.4408 297.167 -143.65 229.759" stroke="url(#paint7_linear_44_30)" stroke-width="1.56225" stroke-miterlimit="10"/>
<path opacity="0.54" d="M1972.87 522.848C1983.07 460.262 1927.44 406.637 1864.73 395.131C1859.13 394.094 1853.48 393.347 1847.83 392.835C1790.09 387.615 1730.56 407.208 1675.09 430.622C1664.4 435.128 1653.74 439.812 1643.11 444.522C1593.12 466.656 1542.73 489.457 1489.26 498.392C1471.95 501.307 1454.8 502.668 1437.79 502.622C1322.76 502.114 1219.43 435.604 1132.64 365.977C1126.34 360.915 1120.03 355.828 1113.72 350.702C1020.35 275.118 922.388 203.724 809.307 182.874C770.712 175.765 731.382 169.06 688.564 178.776C637.657 190.259 589.893 221.472 548.652 253.143C520.521 274.723 494.098 297.11 465.889 316.981C452.614 326.308 438.937 335.078 424.533 343.055C332.794 393.817 216.434 405.762 113.709 383.188C10.8457 360.563 -79.6837 306.875 -153.201 237.331" stroke="url(#paint8_linear_44_30)" stroke-width="1.56225" stroke-miterlimit="10"/>
<path opacity="0.54" d="M1974.28 539.71C1984.52 477.157 1929.46 423.433 1867.03 411.258C1861.44 410.18 1855.82 409.353 1850.2 408.785C1792.66 402.984 1733.09 421.84 1677.46 444.62C1666.74 449.012 1656.05 453.583 1645.38 458.179C1595.28 479.753 1544.79 502.083 1491.34 510.743C1474.04 513.552 1456.9 514.874 1439.92 514.747C1324.9 513.834 1221.98 447.11 1135.86 376.851C1129.62 371.758 1123.37 366.599 1117.12 361.441C1024.66 285.147 928.155 212.985 817.053 188.538C778.047 179.951 738.166 171.288 694.201 180.594C641.911 191.575 593.041 224.208 551.548 257.519C523.255 280.224 496.905 303.826 468.592 324.919C455.298 334.82 441.518 344.148 426.958 352.649C334.28 406.752 214.453 419.734 109.307 396.248C4.03757 372.736 -88.0543 316.666 -162.868 244.945" stroke="url(#paint9_linear_44_30)" stroke-width="1.56225" stroke-miterlimit="10"/>
<path opacity="0.54" d="M1975.67 556.566C1985.97 494.086 1931.48 440.183 1869.35 427.404C1863.79 426.27 1858.21 425.387 1852.56 424.77C1795.17 418.38 1735.6 436.482 1679.8 458.629C1669.07 462.892 1658.36 467.349 1647.65 471.831C1597.45 492.869 1546.81 514.696 1493.41 523.089C1476.14 525.818 1459.02 527.058 1442.03 526.867C1327.03 525.549 1224.53 458.612 1139.11 387.705C1132.9 382.555 1126.7 377.365 1120.53 372.158C1028.99 295.155 933.938 222.095 824.806 194.157C785.375 184.067 744.972 173.495 699.859 182.391C646.186 192.87 596.225 226.948 554.507 261.884C526.037 285.687 499.775 310.529 471.384 332.828C458.029 343.295 444.216 353.173 429.498 362.199C335.868 419.619 212.575 433.637 105.007 409.24C-2.68391 384.817 -96.2976 326.373 -172.434 252.49" stroke="url(#paint10_linear_44_30)" stroke-width="1.56225" stroke-miterlimit="10"/>
<path opacity="0.54" d="M1977.1 573.408C1987.45 510.962 1933.54 456.944 1871.64 443.529C1866.11 442.314 1860.54 441.39 1854.94 440.717C1797.73 433.721 1738.12 451.111 1682.19 472.608C1671.44 476.757 1660.67 481.076 1649.97 485.428C1599.64 505.907 1548.88 527.279 1495.5 535.397C1478.23 538.02 1461.13 539.22 1444.14 538.964C1329.13 537.217 1227.08 470.05 1142.34 398.536C1136.18 393.354 1130.05 388.092 1123.92 382.829C1033.29 305.116 939.746 231.061 832.546 199.754C792.703 188.12 751.751 175.655 705.517 184.124C650.476 194.126 599.409 229.624 557.451 266.16C528.831 291.047 502.629 317.145 474.162 340.649C460.788 351.691 446.872 362.127 431.996 371.677C337.414 432.413 210.654 447.468 100.68 422.184C-9.41746 396.875 -104.567 336.032 -182.026 259.988" stroke="url(#paint11_linear_44_30)" stroke-width="1.56225" stroke-miterlimit="10"/>
<path opacity="0.54" d="M1978.51 590.293C1988.9 527.92 1935.56 473.763 1873.96 459.679C1868.44 458.424 1862.89 457.419 1857.28 456.681C1800.26 449.08 1740.61 465.733 1684.52 486.597C1673.72 490.607 1662.96 494.821 1652.23 499.06C1601.79 518.978 1550.92 539.879 1497.56 547.722C1480.32 550.265 1463.2 551.375 1446.25 551.063C1331.25 548.911 1229.61 481.53 1145.57 409.369C1139.45 404.131 1133.38 398.837 1127.32 393.527C1037.6 315.079 945.589 239.909 840.285 205.352C800.015 192.15 758.517 177.857 711.162 185.9C654.738 195.4 602.58 232.343 560.355 270.495C531.558 296.481 505.432 323.859 476.873 348.544C463.438 360.152 449.463 371.154 434.456 381.213C338.935 445.291 208.709 461.381 96.314 435.187C-16.205 408.966 -112.876 345.749 -191.631 267.528" stroke="url(#paint12_linear_44_30)" stroke-width="1.56225" stroke-miterlimit="10"/>
<path opacity="0.54" d="M1979.91 607.153C1990.36 544.813 1937.6 490.541 1876.23 475.82C1870.75 474.509 1865.22 473.464 1859.63 472.646C1802.78 464.48 1743.11 480.379 1686.86 500.61C1676.03 504.507 1665.26 508.567 1654.5 512.716C1603.94 532.074 1552.94 552.495 1499.63 560.072C1482.41 562.534 1465.32 563.564 1448.37 563.187C1333.41 560.614 1232.14 493.012 1148.82 420.226C1142.78 414.941 1136.74 409.591 1130.74 404.249C1041.93 325.092 951.487 248.725 848.028 211.016C807.369 196.19 765.298 180.084 716.797 187.717C658.989 196.715 605.739 235.102 563.29 274.88C534.357 301.974 508.278 330.583 479.641 356.474C466.172 368.632 452.122 380.176 436.972 390.783C340.498 458.178 206.806 475.305 92.0039 448.224C-22.9218 421.117 -121.129 355.501 -201.206 275.119" stroke="url(#paint13_linear_44_30)" stroke-width="1.56225" stroke-miterlimit="10"/>
<path opacity="0.54" d="M1981.34 623.992C1991.83 561.726 1939.66 507.299 1878.57 491.95C1873.13 490.582 1867.59 489.473 1862.05 488.598C1805.37 479.827 1745.67 494.989 1689.25 514.586C1678.42 518.353 1667.59 522.315 1656.78 526.326C1606.1 545.164 1554.98 565.091 1501.72 572.377C1484.51 574.733 1467.43 575.723 1450.49 575.305C1335.54 572.328 1234.69 504.512 1152.04 431.095C1146.04 425.753 1140.05 420.371 1134.13 414.982C1046.23 335.114 957.365 257.446 855.755 216.649C814.693 200.175 772.078 182.306 722.455 189.513C663.279 198.033 608.95 237.825 566.234 279.219C537.125 307.412 511.133 337.261 482.392 364.373C468.904 377.106 454.752 389.207 439.444 400.339C342.018 471.051 204.874 489.238 87.6508 461.246C-29.6961 433.228 -129.425 365.239 -210.825 282.695" stroke="url(#paint14_linear_44_30)" stroke-width="1.56225" stroke-miterlimit="10"/>
<path opacity="0.54" d="M1982.73 640.852C1993.28 578.619 1941.67 524.093 1880.87 508.075C1875.42 506.643 1869.92 505.477 1864.39 504.562C1807.87 495.202 1748.17 509.635 1691.61 528.558C1680.74 532.212 1669.9 536.044 1659.07 539.941C1608.27 558.219 1557.05 577.675 1503.8 584.686C1486.62 586.962 1469.56 587.871 1452.62 587.388C1337.67 583.982 1237.23 515.952 1155.29 441.911C1149.35 436.538 1143.44 431.108 1137.55 425.638C1050.56 345.061 963.347 265.979 863.521 222.231C822.11 204.077 778.883 184.452 728.113 191.248C667.555 199.266 612.134 240.503 569.178 283.497C539.919 312.773 513.988 343.878 485.169 372.196C471.621 385.495 457.435 398.146 441.97 409.803C343.606 483.856 202.981 503.055 83.3507 474.176C-36.4029 445.272 -137.668 374.883 -220.39 290.178" stroke="url(#paint15_linear_44_30)" stroke-width="1.56225" stroke-miterlimit="10"/>
<path opacity="0.54" d="M1984.15 657.736C1994.74 595.576 1943.71 540.871 1883.15 524.24C1877.75 522.752 1872.29 521.53 1866.76 520.55C1810.42 510.584 1750.69 524.304 1693.97 542.594C1683.05 546.11 1672.18 549.829 1661.34 553.596C1610.43 571.314 1559.06 590.29 1505.88 597.034C1488.71 599.205 1471.66 600.074 1454.74 599.511C1339.81 595.7 1239.78 527.456 1158.54 452.768C1152.63 447.338 1146.78 441.877 1140.97 436.359C1054.9 355.072 969.359 274.56 871.277 227.853C829.527 207.978 785.665 186.677 733.774 193.048C671.833 200.564 615.321 243.245 572.098 287.856C542.662 318.231 516.833 350.6 487.923 380.099C474.355 393.973 460.067 407.182 444.471 419.347C345.155 496.717 201.077 516.977 79.0263 487.187C-43.1485 457.371 -145.935 384.609 -229.98 297.742" stroke="url(#paint16_linear_44_30)" stroke-width="1.56225" stroke-miterlimit="10"/>
<path opacity="0.54" d="M1985.55 674.595C1996.17 612.484 1945.75 557.649 1885.47 540.39C1880.08 538.861 1874.64 537.558 1869.12 536.538C1812.98 525.992 1753.19 538.95 1696.31 556.607C1685.36 560.009 1674.49 563.598 1663.62 567.251C1612.58 584.409 1561.1 602.931 1507.95 609.384C1490.81 611.474 1473.76 612.278 1456.84 611.65C1341.91 607.434 1242.3 538.976 1161.76 463.641C1155.91 458.179 1150.12 452.646 1144.36 447.096C1059.2 365.099 975.436 283.07 879.02 233.516C836.945 211.88 792.447 188.904 739.45 194.873C676.14 201.911 618.522 246.012 575.075 292.248C545.488 323.707 519.72 357.332 490.706 388.052C477.078 402.492 462.729 416.267 446.976 428.956C346.721 509.667 199.163 530.939 74.705 500.263C-49.8765 469.561 -154.199 394.399 -239.54 305.356" stroke="url(#paint17_linear_44_30)" stroke-width="1.56225" stroke-miterlimit="10"/>
<path opacity="0.54" d="M1986.97 691.436C1997.66 629.382 1947.78 574.423 1887.76 556.512C1882.4 554.902 1876.97 553.559 1871.49 552.483C1815.5 541.347 1755.72 553.577 1698.68 570.6C1687.72 573.872 1676.78 577.339 1665.92 580.887C1614.77 597.485 1563.18 615.536 1510.03 621.73C1492.9 623.739 1475.87 624.438 1458.95 623.77C1344.06 619.109 1244.83 550.453 1165 474.494C1159.19 468.976 1153.46 463.411 1147.78 457.814C1063.53 375.107 981.535 291.495 886.773 239.135C844.399 215.722 799.253 191.11 745.093 196.645C680.401 203.181 621.677 248.702 578.004 296.563C548.255 329.145 522.534 364.002 493.483 395.936C479.821 410.926 465.412 425.267 449.501 438.481C348.267 522.525 197.284 544.842 70.3902 513.23C-56.5981 481.641 -162.457 404.081 -249.12 312.876" stroke="url(#paint18_linear_44_30)" stroke-width="1.56225" stroke-miterlimit="10"/>
<path opacity="0.54" d="M1988.37 708.295C1999.09 646.29 1949.82 591.201 1890.06 572.637C1884.73 570.971 1879.32 569.587 1873.86 568.43C1818.06 556.69 1758.23 568.182 1701.03 584.571C1690.04 587.73 1679.1 591.067 1668.16 594.493C1616.91 610.555 1565.17 628.102 1512.06 634.005C1494.94 635.909 1477.92 636.568 1461.05 635.843C1346.16 630.778 1247.38 561.892 1168.19 485.318C1162.46 479.752 1156.74 474.147 1151.1 468.493C1067.77 385.076 987.633 299.859 894.444 244.74C851.826 219.518 805.963 193.279 750.671 198.427C684.595 204.461 624.78 251.428 580.868 300.889C550.942 334.57 525.308 370.666 496.18 403.807C482.472 419.387 467.988 434.27 451.919 448.008C349.733 535.369 195.283 558.722 65.9826 526.223C-63.4269 493.724 -170.834 413.805 -258.793 320.423" stroke="url(#paint19_linear_44_30)" stroke-width="1.56225" stroke-miterlimit="10"/>
<path opacity="0.54" d="M1989.78 725.181C2000.57 663.234 1951.87 608.006 1892.38 588.788C1887.06 587.082 1881.67 585.618 1876.23 584.421C1820.59 572.115 1760.75 582.854 1703.4 598.57C1692.37 601.59 1681.4 604.838 1670.46 608.135C1619.09 623.637 1567.22 640.729 1514.16 646.341C1497.07 648.164 1480.07 648.742 1463.19 647.953C1348.32 642.482 1249.94 573.359 1171.47 496.161C1165.77 490.539 1160.13 484.886 1154.54 479.201C1072.16 395.058 993.909 308.219 902.241 250.373C859.376 223.342 812.786 195.516 756.384 200.198C688.941 205.754 628.02 254.141 583.855 305.242C553.779 340.007 528.206 377.359 498.974 411.721C485.233 427.851 470.661 443.316 454.462 457.564C351.337 548.265 193.421 572.654 61.6994 539.245C-70.1168 505.858 -179.074 423.517 -268.342 327.998" stroke="url(#paint20_linear_44_30)" stroke-width="1.56225" stroke-miterlimit="10"/>
<path opacity="0.54" d="M1991.18 742.038C2002 680.14 1953.87 624.773 1894.66 604.952C1889.39 603.189 1883.99 601.66 1878.59 600.407C1823.13 587.496 1763.25 597.498 1705.75 612.604C1694.69 615.511 1683.71 618.605 1672.74 621.788C1621.22 636.746 1569.28 653.351 1516.23 658.688C1499.15 660.406 1482.16 660.943 1465.29 660.089C1350.41 654.19 1252.46 584.877 1174.69 507.031C1169.05 501.378 1163.44 495.668 1157.93 489.936C1076.45 405.059 1000.17 316.55 909.969 256.009C866.898 227.114 819.552 197.715 762.018 202.012C693.192 207.066 631.18 256.897 586.775 309.599C556.522 345.463 531.051 384.08 501.728 419.623C487.952 436.303 473.32 452.334 456.963 467.106C352.886 561.124 191.53 586.534 57.375 552.254C-76.8624 517.956 -187.342 433.241 -277.932 335.561" stroke="url(#paint21_linear_44_30)" stroke-width="1.56225" stroke-miterlimit="10"/>
<path opacity="0.54" d="M1992.61 758.882C2003.5 697.041 1955.93 641.535 1896.99 621.061C1891.71 619.234 1886.37 617.673 1880.99 616.339C1825.71 602.823 1765.8 612.112 1708.13 626.56C1697.07 629.337 1686.02 632.333 1675.05 635.387C1623.42 649.785 1571.35 665.935 1518.35 670.98C1501.29 672.618 1484.3 673.091 1467.45 672.156C1352.58 665.852 1255.03 596.301 1177.97 517.832C1172.37 512.122 1166.85 506.365 1161.39 500.601C1080.82 415.014 1006.59 324.789 917.776 261.599C874.54 230.848 826.413 199.894 767.717 203.756C697.481 208.324 634.404 259.584 589.76 313.886C559.371 350.858 533.947 390.706 504.519 427.47C490.697 444.741 475.99 461.314 459.475 476.61C354.445 573.945 189.638 600.415 53.0616 565.224C-83.5825 530.041 -195.598 442.927 -287.484 343.069" stroke="url(#paint22_linear_44_30)" stroke-width="1.56225" stroke-miterlimit="10"/>
<path opacity="0.54" d="M1994.01 775.742C2004.92 713.95 1957.97 658.313 1899.26 637.202C1894.02 635.319 1888.7 633.678 1883.31 632.319C1828.19 618.214 1768.26 626.749 1710.45 640.589C1699.35 643.252 1688.29 646.094 1677.3 649.058C1625.56 662.92 1573.34 678.567 1520.39 683.346C1503.35 684.879 1486.39 685.295 1469.54 684.295C1354.71 677.571 1257.55 607.821 1181.19 528.705C1175.64 522.964 1170.16 517.15 1164.77 511.314C1085.11 425.017 1012.94 333.099 925.489 267.213C882.126 234.55 833.164 202.071 773.362 205.531C701.757 209.622 637.574 262.302 592.664 318.221C562.098 356.292 536.761 397.38 507.256 435.35C493.401 453.171 478.619 470.285 461.961 486.13C355.993 586.807 187.704 614.289 48.7213 578.211C-90.3174 542.1 -203.881 452.628 -297.089 350.609" stroke="url(#paint23_linear_44_30)" stroke-width="1.56225" stroke-miterlimit="10"/>
<path opacity="0.54" d="M1995.42 792.623C2006.41 730.889 1959.99 675.129 1901.59 653.374C1896.38 651.434 1891.07 649.728 1885.71 648.313C1830.79 633.627 1770.82 641.425 1712.86 654.591C1701.73 657.141 1690.63 659.869 1679.6 662.695C1627.75 675.997 1575.42 691.172 1522.49 695.677C1505.47 697.128 1488.52 697.48 1471.66 696.416C1356.83 689.262 1260.1 619.323 1184.44 539.559C1178.93 533.762 1173.52 527.901 1168.19 522.032C1089.44 435.025 1019.42 341.368 933.232 272.873C889.757 238.322 839.919 204.311 778.995 207.345C706.008 210.933 640.734 265.058 595.598 322.602C564.883 361.756 539.607 404.1 510.024 443.275C496.123 461.687 481.266 479.343 464.45 495.712C357.529 599.706 185.789 628.248 44.385 591.26C-97.0604 554.262 -212.16 462.391 -306.691 358.211" stroke="url(#paint24_linear_44_30)" stroke-width="1.56225" stroke-miterlimit="10"/>
<path opacity="0.54" d="M1996.82 809.48C2007.83 747.794 1962.03 691.904 1903.86 669.512C1898.65 667.507 1893.39 665.769 1888.02 664.265C1833.25 648.99 1773.27 656.035 1715.14 668.567C1703.99 670.963 1692.88 673.602 1681.81 676.314C1629.85 689.056 1577.4 703.777 1524.49 708.006C1507.49 709.377 1490.54 709.623 1473.71 708.543C1358.9 700.984 1262.56 630.808 1187.59 550.436C1182.13 544.607 1176.78 538.714 1171.51 532.774C1093.68 445.057 1025.84 349.668 940.891 278.516C897.343 242.02 846.631 206.541 784.561 209.165C710.19 212.251 643.825 267.821 598.449 326.965C567.557 367.219 542.356 410.842 512.682 451.199C498.746 470.161 483.802 488.399 466.856 505.277C358.997 612.612 183.776 642.166 39.9237 604.282C-103.928 566.398 -220.564 472.129 -316.418 365.787" stroke="url(#paint25_linear_44_30)" stroke-width="1.56225" stroke-miterlimit="10"/>
<path opacity="0.54" d="M1998.24 826.324C2009.33 764.696 1964.05 708.657 1906.18 685.621C1901.02 683.561 1895.75 681.758 1890.42 680.197C1835.83 664.317 1775.82 670.649 1717.54 682.548C1706.36 684.83 1695.2 687.33 1684.14 689.937C1632.06 702.119 1579.47 716.361 1526.61 720.323C1509.63 721.589 1492.69 721.795 1475.89 720.634C1361.08 712.671 1265.16 642.28 1190.89 561.261C1185.49 555.36 1180.2 549.435 1174.97 543.439C1098.05 455.012 1032.44 357.9 948.699 284.106C905.092 245.691 853.478 208.695 790.286 210.893C714.548 213.502 647.077 270.492 601.461 331.236C570.418 372.573 545.279 417.452 515.527 459.015C501.558 478.527 486.553 497.331 469.449 514.734C360.638 625.385 181.95 655.976 35.6913 617.205C-110.582 578.41 -228.74 481.766 -325.916 373.263" stroke="url(#paint26_linear_44_30)" stroke-width="1.56225" stroke-miterlimit="10"/>
<path opacity="0.54" d="M1999.64 843.183C2010.76 781.605 1966.09 725.436 1908.48 701.747C1903.33 699.646 1898.09 697.762 1892.79 696.145C1838.38 679.701 1778.35 685.279 1719.89 696.52C1708.68 698.688 1697.52 701.059 1686.41 703.528C1634.21 715.15 1581.52 728.92 1528.69 732.608C1511.72 733.793 1494.79 733.934 1477.98 732.709C1363.18 724.341 1267.69 653.696 1194.1 572.07C1188.76 566.136 1183.51 560.156 1178.35 554.111C1102.35 464.975 1039.04 366.133 956.424 289.68C912.812 249.313 860.23 210.873 795.917 212.644C718.796 214.751 650.219 273.161 604.366 335.571C573.161 378.031 548.094 424.126 518.238 466.91C504.223 487.013 489.143 506.358 471.882 524.286C362.118 638.254 179.978 669.905 31.2985 630.223C-117.382 590.542 -237.075 491.5 -335.574 380.835" stroke="url(#paint27_linear_44_30)" stroke-width="1.56225" stroke-miterlimit="10"/>
<path opacity="0.54" d="M2001.06 860.068C2012.24 798.546 1968.14 742.238 1910.78 717.937C1905.67 715.779 1900.44 713.856 1895.14 712.174C1840.91 695.124 1780.84 699.965 1722.24 710.597C1710.99 712.652 1699.78 714.884 1688.69 717.248C1636.36 728.35 1583.56 741.625 1530.76 745.022C1513.81 746.102 1496.91 746.187 1480.1 744.897C1365.33 736.083 1270.24 665.265 1197.35 582.991C1192.05 577.002 1186.87 570.974 1181.78 564.897C1106.69 475.051 1045.71 374.487 964.197 295.391C920.58 253.073 867.041 213.148 801.581 214.509C723.077 216.114 653.408 275.969 607.315 339.979C575.934 383.539 550.955 430.874 521.021 474.863C506.973 495.516 491.805 515.443 474.413 533.879C363.711 651.189 178.09 683.852 27.0036 643.284C-124.098 602.691 -245.313 501.275 -345.107 388.433" stroke="url(#paint28_linear_44_30)" stroke-width="1.56225" stroke-miterlimit="10"/>
<path opacity="0.54" d="M2002.48 876.91C2013.7 815.438 1970.18 759.015 1913.11 734.045C1908.02 731.807 1902.8 729.843 1897.54 728.105C1843.49 710.45 1783.4 714.578 1724.65 724.537C1713.38 726.437 1702.16 728.58 1690.99 730.822C1638.54 741.364 1585.6 754.159 1532.86 757.289C1515.93 758.289 1499.03 758.309 1482.25 756.938C1367.49 747.72 1272.8 676.664 1200.62 593.766C1195.38 587.745 1190.24 581.661 1185.22 575.537C1111.05 484.98 1052.45 382.704 971.976 300.932C928.421 256.654 873.873 215.276 807.292 216.211C727.419 217.338 656.645 278.614 610.312 344.224C578.78 388.867 553.862 437.458 523.866 482.677C509.757 503.896 494.556 524.374 477.006 543.334C365.351 663.96 176.279 697.684 22.7709 656.205C-130.737 614.726 -253.488 510.911 -354.606 395.908" stroke="url(#paint29_linear_44_30)" stroke-width="1.56225" stroke-miterlimit="10"/>
<path opacity="0.54" d="M2003.88 893.77C2015.14 832.371 1972.21 775.793 1915.38 750.186C1910.3 747.908 1905.14 745.847 1899.86 744.085C1845.96 725.84 1785.86 729.216 1726.96 738.565C1715.66 740.351 1704.41 742.381 1693.23 744.493C1640.67 754.475 1587.63 766.8 1534.91 769.655C1517.98 770.589 1501.13 770.513 1484.33 769.117C1369.58 759.495 1275.31 688.225 1203.8 604.696C1198.59 598.618 1193.53 592.486 1188.56 586.306C1115.28 495.015 1059.09 391.074 979.663 306.626C936.171 260.39 880.599 217.535 812.87 218.059C731.615 218.684 659.749 281.404 613.177 348.615C581.468 394.357 556.652 444.212 526.537 490.629C512.409 512.423 497.106 533.458 479.399 552.943C366.791 676.886 174.252 711.646 18.3376 669.28C-137.592 626.89 -261.891 520.716 -364.304 403.536" stroke="url(#paint30_linear_44_30)" stroke-width="1.56225" stroke-miterlimit="10"/>
<path opacity="0.54" d="M2005.28 910.628C2017.6 843.792 1966.26 782.484 1902.23 760.032C1838.22 737.604 1765.1 745.644 1695.52 758.107C1625.93 770.569 1555.46 787.24 1486.43 781.215C1363.38 770.442 1264.3 688.978 1191.98 596.986C1119.63 504.985 1065.89 399.349 987.444 312.232C944.041 264.021 887.406 219.744 818.557 219.843C735.918 219.966 662.961 284.13 616.137 352.982C569.313 421.834 537.81 499.854 481.94 562.495C368.395 689.779 172.39 725.575 14.0537 682.299C-144.282 639.022 -270.118 530.45 -373.853 411.109" stroke="url(#paint31_linear_44_30)" stroke-width="1.56225" stroke-miterlimit="10"/>
<defs>
<linearGradient id="paint0_linear_44_30" x1="-58.1627" y1="120.761" x2="1832.06" y2="763.057" gradientUnits="userSpaceOnUse">
<stop stop-color="#E200AA"/>
<stop offset="0.260417" stop-color="#F2D3EA"/>
<stop offset="0.711" stop-color="#DE74E7"/>
<stop offset="1" stop-color="#9616DB"/>
</linearGradient>
<linearGradient id="paint1_linear_44_30" x1="-67.8772" y1="127.859" x2="1839.41" y2="767.387" gradientUnits="userSpaceOnUse">
<stop stop-color="#E200AA"/>
<stop offset="0.260417" stop-color="#F2D3EA"/>
<stop offset="0.711" stop-color="#DE74E7"/>
<stop offset="1" stop-color="#9616DB"/>
</linearGradient>
<linearGradient id="paint2_linear_44_30" x1="-77.5804" y1="134.92" x2="1846.69" y2="771.604" gradientUnits="userSpaceOnUse">
<stop stop-color="#E200AA"/>
<stop offset="0.260417" stop-color="#F2D3EA"/>
<stop offset="0.711" stop-color="#DE74E7"/>
<stop offset="1" stop-color="#9616DB"/>
</linearGradient>
<linearGradient id="paint3_linear_44_30" x1="-87.2103" y1="142.038" x2="1853.83" y2="775.853" gradientUnits="userSpaceOnUse">
<stop stop-color="#E200AA"/>
<stop offset="0.260417" stop-color="#F2D3EA"/>
<stop offset="0.711" stop-color="#DE74E7"/>
<stop offset="1" stop-color="#9616DB"/>
</linearGradient>
<linearGradient id="paint4_linear_44_30" x1="-96.9754" y1="149.234" x2="1860.79" y2="780.202" gradientUnits="userSpaceOnUse">
<stop stop-color="#E200AA"/>
<stop offset="0.260417" stop-color="#F2D3EA"/>
<stop offset="0.711" stop-color="#DE74E7"/>
<stop offset="1" stop-color="#9616DB"/>
</linearGradient>
<linearGradient id="paint5_linear_44_30" x1="-106.703" y1="156.31" x2="1867.71" y2="784.3" gradientUnits="userSpaceOnUse">
<stop stop-color="#E200AA"/>
<stop offset="0.260417" stop-color="#F2D3EA"/>
<stop offset="0.711" stop-color="#DE74E7"/>
<stop offset="1" stop-color="#9616DB"/>
</linearGradient>
<linearGradient id="paint6_linear_44_30" x1="-116.362" y1="163.445" x2="1874.49" y2="788.418" gradientUnits="userSpaceOnUse">
<stop stop-color="#E200AA"/>
<stop offset="0.260417" stop-color="#F2D3EA"/>
<stop offset="0.711" stop-color="#DE74E7"/>
<stop offset="1" stop-color="#9616DB"/>
</linearGradient>
<linearGradient id="paint7_linear_44_30" x1="-126.023" y1="170.513" x2="1881.22" y2="792.4" gradientUnits="userSpaceOnUse">
<stop stop-color="#E200AA"/>
<stop offset="0.260417" stop-color="#F2D3EA"/>
<stop offset="0.711" stop-color="#DE74E7"/>
<stop offset="1" stop-color="#9616DB"/>
</linearGradient>
<linearGradient id="paint8_linear_44_30" x1="-135.683" y1="177.647" x2="1887.82" y2="796.415" gradientUnits="userSpaceOnUse">
<stop stop-color="#E200AA"/>
<stop offset="0.260417" stop-color="#F2D3EA"/>
<stop offset="0.711" stop-color="#DE74E7"/>
<stop offset="1" stop-color="#9616DB"/>
</linearGradient>
<linearGradient id="paint9_linear_44_30" x1="-145.455" y1="184.821" x2="1894.24" y2="800.527" gradientUnits="userSpaceOnUse">
<stop stop-color="#E200AA"/>
<stop offset="0.260417" stop-color="#F2D3EA"/>
<stop offset="0.711" stop-color="#DE74E7"/>
<stop offset="1" stop-color="#9616DB"/>
</linearGradient>
<linearGradient id="paint10_linear_44_30" x1="-155.13" y1="191.928" x2="1900.62" y2="804.437" gradientUnits="userSpaceOnUse">
<stop stop-color="#E200AA"/>
<stop offset="0.260417" stop-color="#F2D3EA"/>
<stop offset="0.711" stop-color="#DE74E7"/>
<stop offset="1" stop-color="#9616DB"/>
</linearGradient>
<linearGradient id="paint11_linear_44_30" x1="-164.831" y1="198.986" x2="1906.95" y2="808.264" gradientUnits="userSpaceOnUse">
<stop stop-color="#E200AA"/>
<stop offset="0.260417" stop-color="#F2D3EA"/>
<stop offset="0.711" stop-color="#DE74E7"/>
<stop offset="1" stop-color="#9616DB"/>
</linearGradient>
<linearGradient id="paint12_linear_44_30" x1="-174.545" y1="206.086" x2="1913.15" y2="812.081" gradientUnits="userSpaceOnUse">
<stop stop-color="#E200AA"/>
<stop offset="0.260417" stop-color="#F2D3EA"/>
<stop offset="0.711" stop-color="#DE74E7"/>
<stop offset="1" stop-color="#9616DB"/>
</linearGradient>
<linearGradient id="paint13_linear_44_30" x1="-184.228" y1="213.238" x2="1919.21" y2="815.98" gradientUnits="userSpaceOnUse">
<stop stop-color="#E200AA"/>
<stop offset="0.260417" stop-color="#F2D3EA"/>
<stop offset="0.711" stop-color="#DE74E7"/>
<stop offset="1" stop-color="#9616DB"/>
</linearGradient>
<linearGradient id="paint14_linear_44_30" x1="-193.953" y1="220.375" x2="1925.18" y2="819.855" gradientUnits="userSpaceOnUse">
<stop stop-color="#E200AA"/>
<stop offset="0.260417" stop-color="#F2D3EA"/>
<stop offset="0.711" stop-color="#DE74E7"/>
<stop offset="1" stop-color="#9616DB"/>
</linearGradient>
<linearGradient id="paint15_linear_44_30" x1="-203.628" y1="227.418" x2="1931.11" y2="823.484" gradientUnits="userSpaceOnUse">
<stop stop-color="#E200AA"/>
<stop offset="0.260417" stop-color="#F2D3EA"/>
<stop offset="0.711" stop-color="#DE74E7"/>
<stop offset="1" stop-color="#9616DB"/>
</linearGradient>
<linearGradient id="paint16_linear_44_30" x1="-213.326" y1="234.543" x2="1936.93" y2="827.226" gradientUnits="userSpaceOnUse">
<stop stop-color="#E200AA"/>
<stop offset="0.260417" stop-color="#F2D3EA"/>
<stop offset="0.711" stop-color="#DE74E7"/>
<stop offset="1" stop-color="#9616DB"/>
</linearGradient>
<linearGradient id="paint17_linear_44_30" x1="-222.993" y1="241.719" x2="1942.6" y2="831.039" gradientUnits="userSpaceOnUse">
<stop stop-color="#E200AA"/>
<stop offset="0.260417" stop-color="#F2D3EA"/>
<stop offset="0.711" stop-color="#DE74E7"/>
<stop offset="1" stop-color="#9616DB"/>
</linearGradient>
<linearGradient id="paint18_linear_44_30" x1="-232.681" y1="248.8" x2="1948.25" y2="834.689" gradientUnits="userSpaceOnUse">
<stop stop-color="#E200AA"/>
<stop offset="0.260417" stop-color="#F2D3EA"/>
<stop offset="0.711" stop-color="#DE74E7"/>
<stop offset="1" stop-color="#9616DB"/>
</linearGradient>
<linearGradient id="paint19_linear_44_30" x1="-242.46" y1="255.905" x2="1953.76" y2="838.372" gradientUnits="userSpaceOnUse">
<stop stop-color="#E200AA"/>
<stop offset="0.260417" stop-color="#F2D3EA"/>
<stop offset="0.711" stop-color="#DE74E7"/>
<stop offset="1" stop-color="#9616DB"/>
</linearGradient>
<linearGradient id="paint20_linear_44_30" x1="-252.116" y1="263.041" x2="1959.23" y2="842.031" gradientUnits="userSpaceOnUse">
<stop stop-color="#E200AA"/>
<stop offset="0.260417" stop-color="#F2D3EA"/>
<stop offset="0.711" stop-color="#DE74E7"/>
<stop offset="1" stop-color="#9616DB"/>
</linearGradient>
<linearGradient id="paint21_linear_44_30" x1="-261.814" y1="270.165" x2="1964.57" y2="845.664" gradientUnits="userSpaceOnUse">
<stop stop-color="#E200AA"/>
<stop offset="0.260417" stop-color="#F2D3EA"/>
<stop offset="0.711" stop-color="#DE74E7"/>
<stop offset="1" stop-color="#9616DB"/>
</linearGradient>
<linearGradient id="paint22_linear_44_30" x1="-271.474" y1="277.234" x2="1969.89" y2="849.201" gradientUnits="userSpaceOnUse">
<stop stop-color="#E200AA"/>
<stop offset="0.260417" stop-color="#F2D3EA"/>
<stop offset="0.711" stop-color="#DE74E7"/>
<stop offset="1" stop-color="#9616DB"/>
</linearGradient>
<linearGradient id="paint23_linear_44_30" x1="-281.187" y1="284.333" x2="1975.09" y2="852.765" gradientUnits="userSpaceOnUse">
<stop stop-color="#E200AA"/>
<stop offset="0.260417" stop-color="#F2D3EA"/>
<stop offset="0.711" stop-color="#DE74E7"/>
<stop offset="1" stop-color="#9616DB"/>
</linearGradient>
<linearGradient id="paint24_linear_44_30" x1="-290.894" y1="291.496" x2="1980.19" y2="856.419" gradientUnits="userSpaceOnUse">
<stop stop-color="#E200AA"/>
<stop offset="0.260417" stop-color="#F2D3EA"/>
<stop offset="0.711" stop-color="#DE74E7"/>
<stop offset="1" stop-color="#9616DB"/>
</linearGradient>
<linearGradient id="paint25_linear_44_30" x1="-300.726" y1="298.629" x2="1985.19" y2="860.067" gradientUnits="userSpaceOnUse">
<stop stop-color="#E200AA"/>
<stop offset="0.260417" stop-color="#F2D3EA"/>
<stop offset="0.711" stop-color="#DE74E7"/>
<stop offset="1" stop-color="#9616DB"/>
</linearGradient>
<linearGradient id="paint26_linear_44_30" x1="-310.332" y1="305.666" x2="1990.21" y2="863.452" gradientUnits="userSpaceOnUse">
<stop stop-color="#E200AA"/>
<stop offset="0.260417" stop-color="#F2D3EA"/>
<stop offset="0.711" stop-color="#DE74E7"/>
<stop offset="1" stop-color="#9616DB"/>
</linearGradient>
<linearGradient id="paint27_linear_44_30" x1="-320.096" y1="312.797" x2="1995.07" y2="867.039" gradientUnits="userSpaceOnUse">
<stop stop-color="#E200AA"/>
<stop offset="0.260417" stop-color="#F2D3EA"/>
<stop offset="0.711" stop-color="#DE74E7"/>
<stop offset="1" stop-color="#9616DB"/>
</linearGradient>
<linearGradient id="paint28_linear_44_30" x1="-329.736" y1="319.956" x2="1999.89" y2="870.609" gradientUnits="userSpaceOnUse">
<stop stop-color="#E200AA"/>
<stop offset="0.260417" stop-color="#F2D3EA"/>
<stop offset="0.711" stop-color="#DE74E7"/>
<stop offset="1" stop-color="#9616DB"/>
</linearGradient>
<linearGradient id="paint29_linear_44_30" x1="-339.343" y1="326.991" x2="2004.67" y2="873.945" gradientUnits="userSpaceOnUse">
<stop stop-color="#E200AA"/>
<stop offset="0.260417" stop-color="#F2D3EA"/>
<stop offset="0.711" stop-color="#DE74E7"/>
<stop offset="1" stop-color="#9616DB"/>
</linearGradient>
<linearGradient id="paint30_linear_44_30" x1="-349.144" y1="334.178" x2="2009.28" y2="877.622" gradientUnits="userSpaceOnUse">
<stop stop-color="#E200AA"/>
<stop offset="0.260417" stop-color="#F2D3EA"/>
<stop offset="0.711" stop-color="#DE74E7"/>
<stop offset="1" stop-color="#9616DB"/>
</linearGradient>
<linearGradient id="paint31_linear_44_30" x1="-358.799" y1="341.312" x2="2013.87" y2="881.138" gradientUnits="userSpaceOnUse">
<stop stop-color="#E200AA"/>
<stop offset="0.260417" stop-color="#F2D3EA"/>
<stop offset="0.711" stop-color="#DE74E7"/>
<stop offset="1" stop-color="#9616DB"/>
</linearGradient>
</defs>
</svg>
