<svg width="20" height="21" viewBox="0 0 20 21" fill="none" xmlns="http://www.w3.org/2000/svg">
<path d="M19.4557 15.178L16.6646 12.3869C15.6678 11.3901 13.9732 11.7889 13.5745 13.0847C13.2754 13.9819 12.2786 14.4803 11.3815 14.2809C9.3879 13.7825 6.69652 11.1908 6.19812 9.09746C5.89907 8.2003 6.49716 7.20349 7.39428 6.90448C8.69013 6.50576 9.08886 4.81119 8.09205 3.81438L5.30099 1.02332C4.50354 0.325559 3.30738 0.325559 2.60961 1.02332L0.715678 2.91726C-1.17826 4.91087 0.915039 10.1939 5.60003 14.8789C10.285 19.5639 15.5681 21.7569 17.5617 19.7633L19.4557 17.8694C20.1535 17.0719 20.1535 15.8757 19.4557 15.178Z" fill="#D78DFF"/>
</svg>
