<svg width="19" height="16" viewBox="0 0 19 16" fill="none" xmlns="http://www.w3.org/2000/svg">
<path d="M18.8334 2.26344C18.1516 2.5625 17.4251 2.76073 16.6677 2.85698C17.4469 2.39178 18.0416 1.66073 18.3212 0.779584C17.5947 1.21271 16.7926 1.51865 15.9378 1.68938C15.2481 0.954897 14.2649 0.5 13.1924 0.5C11.1116 0.5 9.43637 2.18896 9.43637 4.25949C9.43637 4.5574 9.46158 4.84386 9.52346 5.11657C6.39876 4.96418 3.63386 3.46657 1.77646 1.18521C1.45219 1.74782 1.26198 2.39178 1.26198 3.08501C1.26198 4.38668 1.93229 5.54053 2.93146 6.20855C2.32761 6.1971 1.73521 6.02178 1.23333 5.74564C1.23333 5.75709 1.23333 5.77199 1.23333 5.78689C1.23333 7.61335 2.53615 9.13044 4.24459 9.47992C3.93865 9.56356 3.60522 9.60367 3.25917 9.60367C3.01855 9.60367 2.77563 9.58992 2.54761 9.5395C3.03459 11.0279 4.41647 12.1222 6.0596 12.1577C4.78084 13.158 3.15719 13.7608 1.39948 13.7608C1.09125 13.7608 0.795626 13.747 0.5 13.7092C2.1649 14.7828 4.13803 15.3959 6.26585 15.3959C13.1821 15.3959 16.9634 9.66669 16.9634 4.70063C16.9634 4.53449 16.9576 4.37407 16.9496 4.2148C17.6956 3.68542 18.3223 3.02428 18.8334 2.26344Z" fill="#D78DFF"/>
</svg>
