<svg xmlns="http://www.w3.org/2000/svg" width="1920" height="650" fill="none" style="">
    <rect id="backgroundrect" width="100%" height="100%" x="0" y="0" fill="none" stroke="none"/>


    <defs>
        <linearGradient id="paint0_linear_44_30" x1="0.009018420241773129" y1="-0.058073218911886215"
                        x2="0.9359548091888428" y2="2.325849771499634">
            <stop stop-color="#E200AA"/>
            <stop offset="0.260417" stop-color="#F2D3EA"/>
            <stop offset="0.711" stop-color="#DE74E7"/>
            <stop offset="1" stop-color="#9616DB"/>
        </linearGradient>
        <linearGradient id="paint1_linear_44_30" x1="0.008916515856981277" y1="-0.05440925061702728"
                        x2="0.9391965866088867" y2="2.2707979679107666">
            <stop stop-color="#E200AA"/>
            <stop offset="0.260417" stop-color="#F2D3EA"/>
            <stop offset="0.711" stop-color="#DE74E7"/>
            <stop offset="1" stop-color="#9616DB"/>
        </linearGradient>
        <linearGradient id="paint2_linear_44_30" x1="0.008815408684313297" y1="-0.050084441900253296"
                        x2="0.9423638582229614" y2="2.2159624099731445">
            <stop stop-color="#E200AA"/>
            <stop offset="0.260417" stop-color="#F2D3EA"/>
            <stop offset="0.711" stop-color="#DE74E7"/>
            <stop offset="1" stop-color="#9616DB"/>
        </linearGradient>
        <linearGradient id="paint3_linear_44_30" x1="0.008716147392988205" y1="-0.04415236786007881"
                        x2="0.945415735244751" y2="2.1617720127105713">
            <stop stop-color="#E200AA"/>
            <stop offset="0.260417" stop-color="#F2D3EA"/>
            <stop offset="0.711" stop-color="#DE74E7"/>
            <stop offset="1" stop-color="#9616DB"/>
        </linearGradient>
        <linearGradient id="paint4_linear_44_30" x1="0.008618360385298729" y1="-0.03604510426521301"
                        x2="0.9483625292778015" y2="2.0990803241729736">
            <stop stop-color="#E200AA"/>
            <stop offset="0.260417" stop-color="#F2D3EA"/>
            <stop offset="0.711" stop-color="#DE74E7"/>
            <stop offset="1" stop-color="#9616DB"/>
        </linearGradient>
        <linearGradient id="paint5_linear_44_30" x1="0.008521064184606075" y1="-0.025643715634942055"
                        x2="0.9512588977813721" y2="2.012925148010254">
            <stop stop-color="#E200AA"/>
            <stop offset="0.260417" stop-color="#F2D3EA"/>
            <stop offset="0.711" stop-color="#DE74E7"/>
            <stop offset="1" stop-color="#9616DB"/>
        </linearGradient>
        <linearGradient id="paint6_linear_44_30" x1="0.008424901403486729" y1="-0.013745793141424656"
                        x2="0.9540601968765259" y2="1.931623101234436">
            <stop stop-color="#E200AA"/>
            <stop offset="0.260417" stop-color="#F2D3EA"/>
            <stop offset="0.711" stop-color="#DE74E7"/>
            <stop offset="1" stop-color="#9616DB"/>
        </linearGradient>
        <linearGradient id="paint7_linear_44_30" x1="0.008329146541655064" y1="-0.0015718224458396435"
                        x2="0.9567962288856506" y2="1.855220079421997">
            <stop stop-color="#E200AA"/>
            <stop offset="0.260417" stop-color="#F2D3EA"/>
            <stop offset="0.711" stop-color="#DE74E7"/>
            <stop offset="1" stop-color="#9616DB"/>
        </linearGradient>
        <linearGradient id="paint8_linear_44_30" x1="0.008234911598265171" y1="0.01068173348903656"
                        x2="0.9594486951828003" y2="1.7840209007263184">
            <stop stop-color="#E200AA"/>
            <stop offset="0.260417" stop-color="#F2D3EA"/>
            <stop offset="0.711" stop-color="#DE74E7"/>
            <stop offset="1" stop-color="#9616DB"/>
        </linearGradient>
        <linearGradient id="paint9_linear_44_30" x1="0.008143071085214615" y1="0.022689783945679665"
                        x2="0.9619928002357483" y2="1.7182501554489136">
            <stop stop-color="#E200AA"/>
            <stop offset="0.260417" stop-color="#F2D3EA"/>
            <stop offset="0.711" stop-color="#DE74E7"/>
            <stop offset="1" stop-color="#9616DB"/>
        </linearGradient>
        <linearGradient id="paint10_linear_44_30" x1="0.008050759322941303" y1="0.03411548584699631"
                        x2="0.9644971489906311" y2="1.656582236289978">
            <stop stop-color="#E200AA"/>
            <stop offset="0.260417" stop-color="#F2D3EA"/>
            <stop offset="0.711" stop-color="#DE74E7"/>
            <stop offset="1" stop-color="#9616DB"/>
        </linearGradient>
        <linearGradient id="paint11_linear_44_30" x1="0.007959150709211826" y1="0.04501283913850784"
                        x2="0.9669361710548401" y2="1.5990149974822998">
            <stop stop-color="#E200AA"/>
            <stop offset="0.260417" stop-color="#F2D3EA"/>
            <stop offset="0.711" stop-color="#DE74E7"/>
            <stop offset="1" stop-color="#9616DB"/>
        </linearGradient>
        <linearGradient id="paint12_linear_44_30" x1="0.00786849856376648" y1="0.05536646768450737"
                        x2="0.9693004488945007" y2="1.5453006029129028">
            <stop stop-color="#E200AA"/>
            <stop offset="0.260417" stop-color="#F2D3EA"/>
            <stop offset="0.711" stop-color="#DE74E7"/>
            <stop offset="1" stop-color="#9616DB"/>
        </linearGradient>
        <linearGradient id="paint13_linear_44_30" x1="0.007779349107295275" y1="0.06521578878164291"
                        x2="0.9715784788131714" y2="1.4955590963363647">
            <stop stop-color="#E200AA"/>
            <stop offset="0.260417" stop-color="#F2D3EA"/>
            <stop offset="0.711" stop-color="#DE74E7"/>
            <stop offset="1" stop-color="#9616DB"/>
        </linearGradient>
        <linearGradient id="paint14_linear_44_30" x1="0.007691760081797838" y1="0.07453116774559021"
                        x2="0.9737816452980042" y2="1.4491016864776611">
            <stop stop-color="#E200AA"/>
            <stop offset="0.260417" stop-color="#F2D3EA"/>
            <stop offset="0.711" stop-color="#DE74E7"/>
            <stop offset="1" stop-color="#9616DB"/>
        </linearGradient>
        <linearGradient id="paint15_linear_44_30" x1="0.00760354520753026" y1="0.08325707912445068"
                        x2="0.9759595394134521" y2="1.4049657583236694">
            <stop stop-color="#E200AA"/>
            <stop offset="0.260417" stop-color="#F2D3EA"/>
            <stop offset="0.711" stop-color="#DE74E7"/>
            <stop offset="1" stop-color="#9616DB"/>
        </linearGradient>
        <linearGradient id="paint16_linear_44_30" x1="0.0075169336050748825" y1="0.09154292196035385"
                        x2="0.978054940700531" y2="1.3638396263122559">
            <stop stop-color="#E200AA"/>
            <stop offset="0.260417" stop-color="#F2D3EA"/>
            <stop offset="0.711" stop-color="#DE74E7"/>
            <stop offset="1" stop-color="#9616DB"/>
        </linearGradient>
        <linearGradient id="paint17_linear_44_30" x1="0.0074318042024970055" y1="0.0994533896446228"
                        x2="0.9800713062286377" y2="1.325463056564331">
            <stop stop-color="#E200AA"/>
            <stop offset="0.260417" stop-color="#F2D3EA"/>
            <stop offset="0.711" stop-color="#DE74E7"/>
            <stop offset="1" stop-color="#9616DB"/>
        </linearGradient>
        <linearGradient id="paint18_linear_44_30" x1="0.007346900179982185" y1="0.10683120042085648"
                        x2="0.9820464849472046" y2="1.2890619039535522">
            <stop stop-color="#E200AA"/>
            <stop offset="0.260417" stop-color="#F2D3EA"/>
            <stop offset="0.711" stop-color="#DE74E7"/>
            <stop offset="1" stop-color="#9616DB"/>
        </linearGradient>
        <linearGradient id="paint19_linear_44_30" x1="0.007263507228344679" y1="0.113864965736866"
                        x2="0.9839528799057007" y2="1.2547929286956787">
            <stop stop-color="#E200AA"/>
            <stop offset="0.260417" stop-color="#F2D3EA"/>
            <stop offset="0.711" stop-color="#DE74E7"/>
            <stop offset="1" stop-color="#9616DB"/>
        </linearGradient>
        <linearGradient id="paint20_linear_44_30" x1="0.0071808332577347755" y1="0.12057406455278397"
                        x2="0.9858134984970093" y2="1.2223588228225708">
            <stop stop-color="#E200AA"/>
            <stop offset="0.260417" stop-color="#F2D3EA"/>
            <stop offset="0.711" stop-color="#DE74E7"/>
            <stop offset="1" stop-color="#9616DB"/>
        </linearGradient>
        <linearGradient id="paint21_linear_44_30" x1="0.007098442409187555" y1="0.12688277661800385"
                        x2="0.9876075983047485" y2="1.1917414665222168">
            <stop stop-color="#E200AA"/>
            <stop offset="0.260417" stop-color="#F2D3EA"/>
            <stop offset="0.711" stop-color="#DE74E7"/>
            <stop offset="1" stop-color="#9616DB"/>
        </linearGradient>
        <linearGradient id="paint22_linear_44_30" x1="0.007016838528215885" y1="0.13287431001663208"
                        x2="0.9893578290939331" y2="1.1626040935516357">
            <stop stop-color="#E200AA"/>
            <stop offset="0.260417" stop-color="#F2D3EA"/>
            <stop offset="0.711" stop-color="#DE74E7"/>
            <stop offset="1" stop-color="#9616DB"/>
        </linearGradient>
        <linearGradient id="paint23_linear_44_30" x1="0.006935968995094299" y1="0.13858158886432648"
                        x2="0.9910567998886108" y2="1.1350178718566895">
            <stop stop-color="#E200AA"/>
            <stop offset="0.260417" stop-color="#F2D3EA"/>
            <stop offset="0.711" stop-color="#DE74E7"/>
            <stop offset="1" stop-color="#9616DB"/>
        </linearGradient>
        <linearGradient id="paint24_linear_44_30" x1="0.006857135333120823" y1="0.14405590295791626"
                        x2="0.9926856756210327" y2="1.1089661121368408">
            <stop stop-color="#E200AA"/>
            <stop offset="0.260417" stop-color="#F2D3EA"/>
            <stop offset="0.711" stop-color="#DE74E7"/>
            <stop offset="1" stop-color="#9616DB"/>
        </linearGradient>
        <linearGradient id="paint25_linear_44_30" x1="0.006778743118047714" y1="0.14922277629375458"
                        x2="0.9942660331726074" y2="1.0842481851577759">
            <stop stop-color="#E200AA"/>
            <stop offset="0.260417" stop-color="#F2D3EA"/>
            <stop offset="0.711" stop-color="#DE74E7"/>
            <stop offset="1" stop-color="#9616DB"/>
        </linearGradient>
        <linearGradient id="paint26_linear_44_30" x1="0.006700377911329269" y1="0.1541227102279663"
                        x2="0.9958248734474182" y2="1.0603193044662476">
            <stop stop-color="#E200AA"/>
            <stop offset="0.260417" stop-color="#F2D3EA"/>
            <stop offset="0.711" stop-color="#DE74E7"/>
            <stop offset="1" stop-color="#9616DB"/>
        </linearGradient>
        <linearGradient id="paint27_linear_44_30" x1="0.006623242516070604" y1="0.1589156687259674"
                        x2="0.9973137974739075" y2="1.0378307104110718">
            <stop stop-color="#E200AA"/>
            <stop offset="0.260417" stop-color="#F2D3EA"/>
            <stop offset="0.711" stop-color="#DE74E7"/>
            <stop offset="1" stop-color="#9616DB"/>
        </linearGradient>
        <linearGradient id="paint28_linear_44_30" x1="0.006546677555888891" y1="0.16338592767715454"
                        x2="0.9987598061561584" y2="1.0163276195526123">
            <stop stop-color="#E200AA"/>
            <stop offset="0.260417" stop-color="#F2D3EA"/>
            <stop offset="0.711" stop-color="#DE74E7"/>
            <stop offset="1" stop-color="#9616DB"/>
        </linearGradient>
        <linearGradient id="paint29_linear_44_30" x1="0.006470504216849804" y1="0.16769051551818848"
                        x2="1.000177264213562" y2="0.9955124855041504">
            <stop stop-color="#E200AA"/>
            <stop offset="0.260417" stop-color="#F2D3EA"/>
            <stop offset="0.711" stop-color="#DE74E7"/>
            <stop offset="1" stop-color="#9616DB"/>
        </linearGradient>
        <linearGradient id="paint30_linear_44_30" x1="0.0063966489396989346" y1="0.1718529760837555"
                        x2="1.0015177726745605" y2="0.9761022925376892">
            <stop stop-color="#E200AA"/>
            <stop offset="0.260417" stop-color="#F2D3EA"/>
            <stop offset="0.711" stop-color="#DE74E7"/>
            <stop offset="1" stop-color="#9616DB"/>
        </linearGradient>
        <linearGradient id="paint31_linear_44_30" x1="0.006322626490145922" y1="0.17584213614463806"
                        x2="1.0028361082077026" y2="0.9573094844818115">
            <stop stop-color="#E200AA"/>
            <stop offset="0.260417" stop-color="#F2D3EA"/>
            <stop offset="0.711" stop-color="#DE74E7"/>
            <stop offset="1" stop-color="#9616DB"/>
        </linearGradient>
    </defs>
    <g class="currentLayer" style="">
        <title>Layer 1</title>
        <g class="" transform="rotate(-0.1812485158443451 913.4575195312648,378.54425048825817) ">
            <path opacity="0.54"
                  d="M2128.852665030323,755.373204797978 C2141.4498932634206,690.3122995515935 2088.9546256102376,630.6325763658053 2023.4838038760477,608.7768781703444 C1958.0334321876906,586.9445425598067 1883.2680646224248,594.7710085090094 1812.1223551695912,606.9030041713124 C1740.966420693841,619.0340263925771 1668.9106842014412,635.2622619447119 1598.3273510090135,629.3972796880021 C1472.508444021788,618.9103993806931 1371.1989169653525,539.6099986237436 1297.2515512334046,450.06121061390763 C1223.2735104327076,360.50366163472546 1168.3242372795705,257.6732440961674 1088.11302250899,172.8699811488146 C1043.7333555446132,125.93941524371198 985.8239382571566,82.8383663839034 915.4256779795172,82.93473704671077 C830.9271111000588,83.0544702944411 756.3284114083317,145.51434108606557 708.4507641042287,212.5377034659815 C660.5731168001255,279.56106584589753 628.3612271063542,355.5089356663971 571.234024072008,416.4862557564499 C455.1340013668917,540.3897248955486 254.71843969252188,575.2350203081942 92.81921009153456,533.1083859278822 C-69.0794060080778,490.9807781065317 -197.74700437983364,385.29233767906067 -303.816279603888,269.12091070843456 "
                  stroke="url(#paint31_linear_44_30)" stroke-width="1.56225" stroke-miterlimit="10" id="svg_32"
                  class=""/>
            <path opacity="0.54"
                  d="M2084.199989954077,246.58964443228376 C2094.220512412222,185.21224007542463 2032.6249743633762,134.07738232522146 1966.3361507958684,127.87364258712816 C1900.0371022054437,121.64654026411182 1832.8382515983692,148.6020960600547 1771.9686901765933,179.1272601440232 C1711.0889037319005,209.62808820203026 1650.9453189371943,244.93090090275126 1584.2577194759438,258.1132394455505 C1446.2403601493631,285.3725088454922 1318.5707240142553,212.91053138371092 1210.113905939204,140.72695805892866 C1101.6570878641528,68.54241129310797 981.9394520511879,-10.128173111958905 842.5959072523401,3.2040753507630058 C733.3476724035539,13.67246027834122 636.5422679418259,79.20256410526248 532.2010215906562,116.07651064205467 C350.0657558863605,180.45600716151844 138.96698801862823,150.76021484231617 0.17344720245787926,41.16730240958978 "
                  stroke="url(#paint0_linear_44_30)" stroke-width="1.56225" stroke-miterlimit="10" id="svg_1" class=""/>
            <path opacity="0.54"
                  d="M2085.6212681394663,262.99796657653314 C2095.692915712195,201.69259685652003 2034.6802039695876,150.42243080197125 1968.6572309979083,143.58303406576476 C1962.7676177980186,142.9580849190747 1956.8371045064623,142.63976969949888 1950.9168162378235,142.51030204138388 C1890.6300811222864,141.45801227881077 1829.9241200671743,165.56917336037904 1774.3715705619645,192.72525801024418 C1763.6455215225824,197.96529112026403 1752.9399225290333,203.35523415020646 1742.2343235354838,208.7451771801488 C1691.9681108780921,234.06827235459735 1641.313347349875,259.48189754562264 1586.3742992196542,270.0690422798927 C1568.5827593449874,273.51112979188053 1550.924144768235,275.29252689225876 1533.4802556727286,275.63323125571907 C1415.7595668353513,277.99869297917223 1307.1800484853018,214.7201582742045 1213.4370383870582,151.22941342285299 C1206.6271731246857,146.6045950491386 1199.7764077706474,141.9729625881551 1192.8847423249433,137.3315957167869 C1090.8533286506054,68.63294130968458 979.4087588793599,0.6556067120797167 850.5499525790664,8.594991821743879 C813.6948799789235,10.870896969658851 777.7621044458466,18.461790187554975 742.0430318917245,30.76900523678053 C699.8709473750145,45.2820376791521 658.8604254616163,65.90827984304045 618.4061447948741,85.76842390966223 C590.7832453860167,99.3245638112295 563.2605512017408,112.56628225737484 535.0129028926867,123.70342117837376 C521.7336656310606,128.93858708320127 508.25299541797995,133.67535117633838 494.58418478323597,137.8738023752081 C407.5702622663246,164.63856372761305 313.35996862079816,169.19718811071226 225.63540701119186,153.34275391734553 C137.7014369322561,137.44646175932493 56.12722660690953,101.46710753687577 -9.64758505858724,48.504127516448364 "
                  stroke="url(#paint1_linear_44_30)" stroke-width="1.56225" stroke-miterlimit="10" id="svg_2" class=""/>
            <path opacity="0.54"
                  d="M2087.0527713477723,279.4101824849365 C2097.185769057999,218.13693631919242 2036.7558836216326,166.754824545221 1971.0089862686968,159.28074425193975 C1965.1295980917237,158.61588402267293 1959.229759868918,158.21969352002048 1953.3196966231958,158.05031477932877 C1893.2272369430714,156.43342921444986 1832.4803757962932,179.82619080963616 1776.7540009015038,206.34175125619578 C1765.997276793372,211.47178552887 1755.2814527769062,216.7351812238127 1744.5451787146073,222.0141519753709 C1694.156265782218,246.7930936093215 1643.378801979003,271.7638031278482 1588.4806539404476,282.0667030788886 C1570.699339088698,285.4065792818384 1553.050949534862,287.1490387406781 1535.6070604393556,287.42646943663874 C1417.8863716019778,289.37432495459353 1309.7260791915041,225.88747386739573 1216.7090457203303,161.79027524908474 C1209.9605305954567,157.13528020317813 1203.1506653330846,152.44816160300246 1196.340800070712,147.76006956178836 C1095.2408859840648,78.37027201738081 985.5877402277861,10.539927016583128 858.4242427270439,14.099800894224316 C821.2685544531569,15.12678118979759 784.6527473892593,20.621855851893486 747.7884722684917,32.51341157769741 C704.2165821145163,46.561139203686025 662.0761951688477,68.57064108322328 621.3754914498186,89.98926425241653 C593.6002391995058,104.59964079863386 566.1399176550203,119.06400118908252 537.8125141672176,131.37413656142343 C524.4719267680925,137.16027009401833 510.9564914770958,142.43242675830726 497.12612548027175,147.14096106132905 C409.1377582794201,177.13462633829946 311.3824491887518,182.70270907827975 221.1834320333585,165.96147009887758 C130.78819668819818,149.20270918078322 47.64342284288092,110.88709646603462 -19.45644954236174,55.80493530488398 "
                  stroke="url(#paint2_linear_44_30)" stroke-width="1.56225" stroke-miterlimit="10" id="svg_3" class=""/>
            <path opacity="0.54"
                  d="M2088.5149496248287,295.80584989568604 C2098.6888474267216,234.60366492574934 2038.872463365342,183.07066979081694 1973.3811915853196,174.99987014096092 C1967.5324784770958,174.28049721354043 1961.6530903001226,173.8054579867728 1955.7634771002329,173.5971416045428 C1895.8346177867722,171.40592582697374 1835.0673065941614,194.0666597612394 1779.1773313327083,219.9650585894167 C1768.4103822016598,224.96854552709124 1757.622983024779,230.11318141534224 1746.88670896248,235.26657827293934 C1696.3750957550928,259.4994194843149 1645.495381722713,284.0116382737278 1590.6176837299913,294.0468419391922 C1572.8568189240743,297.30884285906524 1555.2391044389874,298.97245359379014 1537.7952153434808,299.21094664821237 C1420.125651620686,300.7489834889761 1312.3641351039548,237.06939107616364 1220.052628214018,172.3414026649319 C1213.3450131808102,167.63189492087167 1206.6169481017694,162.89805115085002 1199.8582079539792,158.17978243744375 C1099.684680943565,88.07547917080788 991.7513840418371,20.33469074554835 866.3813555606448,19.555937914781886 C828.8841515213476,19.326205829705764 791.6425730549618,22.75661204923204 753.6044653033828,34.24905694926818 C708.6194769823505,47.80811717395083 665.3625175342027,71.22326791302156 624.4317507995531,94.22373276970914 C596.4755156436183,109.90392101719198 569.1194893328808,125.59871088025164 540.698015634247,139.0594535600501 C527.3369781892889,145.4053156897582 513.7182701668357,151.21967901246833 499.75497887209735,156.4236948040653 C410.792166987306,189.64626400560124 309.5071799858704,196.24619424634702 216.83268478239836,178.61815048090958 C123.9613578877844,160.97258477677994 39.260744555496395,120.3460230367318 -29.19159161090853,63.16025579147325 "
                  stroke="url(#paint3_linear_44_30)" stroke-width="1.56225" stroke-miterlimit="10" id="svg_4" class=""/>
            <path opacity="0.54"
                  d="M2089.9566778560516,312.23948150693536 C2100.1612507266946,251.0849951478832 2040.9379179944694,199.4410277345665 1975.7431718790249,190.71996947102053 C1969.8944587708013,189.93732287610015 1964.0764207313273,189.43016009506354 1958.2072575772704,189.1439684297569 C1898.4624486763068,186.36382082392055 1837.6644624149458,208.33049129776572 1781.610886786829,233.612701948599 C1770.8030375641147,238.48088058192792 1760.0258634101506,243.52330516114074 1749.2180141874362,248.581304796969 C1698.5939257279683,272.269019026808 1647.5710613747574,296.3149595587995 1592.724038450785,306.10680296464943 C1574.9733986677843,309.26561913444584 1557.365909205614,310.88931878659395 1539.9526951788575,311.0499365579396 C1422.2933564789785,312.19372977812776 1314.9612909247394,248.2678567825855 1223.3348605702063,182.9635912765865 C1216.678370651581,178.2229334192956 1209.9912056642065,173.43457695112028 1203.293815653915,168.64622048294498 C1104.0599682495244,97.8498006379655 997.7657425213079,30.017508755090887 874.2689382384134,25.082162690108433 C836.4404434566226,23.55580714180614 798.5189009662909,24.952695031993493 759.3499056801502,36.05479007560794 C712.923189127895,49.14075795559994 668.5772647391424,73.94695593862728 627.4021199567887,98.50492645684778 C599.3068244891905,115.26368737494215 571.9978332838688,132.15775659738222 543.471041849195,146.8070707851379 C530.075239326321,153.6883254859981 516.3522360701197,160.04489546712944 502.24170444538424,165.78333038883977 C412.31978541102717,202.25816609986418 307.47649043465833,209.84321867152954 212.34083221519091,191.35270614601822 C117.00854680503963,172.84369824077623 30.737267702551918,129.88282489050565 -39.06691874364019,70.59247812010071 "
                  stroke="url(#paint4_linear_44_30)" stroke-width="1.56225" stroke-miterlimit="10" id="svg_5" class=""/>
            <path opacity="0.54"
                  d="M2091.388181064359,328.6516974153386 C2101.664329095416,267.553670636517 2043.0033726235984,215.75005889289312 1978.0949271498146,206.41670621615722 C1972.2871141332564,205.57954692308317 1966.4588510708659,205.01008391558523 1960.5999129397255,204.68398116770166 C1901.0391544512581,201.31490173359822 1840.2309431669808,222.58750874702275 1783.9933171263679,247.2291951945507 C1773.1445678119878,251.9873749905338 1762.3367185892737,256.9188272913625 1751.5288693665595,261.85027959219116 C1700.7923056550108,284.99286684049343 1649.6262909809689,308.59589169998674 1594.830393171579,318.1044637636453 C1577.1002034344112,321.1844312093267 1559.5233890409904,322.7302555783981 1542.0794999454843,322.84317473885926 C1424.4099362226889,323.56936175354895 1317.527771676775,259.45853496069947 1226.617092926395,193.52445310281826 C1219.9912780765192,188.7283091063353 1213.3961382953923,183.91756349427544 1206.7498733996838,179.07469432794645 C1108.4465030806923,107.5871313456617 1003.7494259320289,39.529001141864796 882.1565209161821,30.54706068001211 C843.9292502406488,27.731869196791322 805.4391964761613,27.096212198678174 765.1086385867086,37.75928533394803 C717.2831388994797,50.38092183859554 671.8063269761655,76.56940609623337 630.3581740819418,102.70045733260213 C602.0829182110134,120.53000339300038 574.8362996454822,138.6457411187053 546.2573605939342,154.45345014222616 C532.79918543127,161.8856724708536 519.0414170971526,168.7786084641753 504.7703526126286,175.02712649003774 C413.8739888943314,214.7308661256276 305.5010160071955,223.348739639097 207.88987973964927,203.97044888651197 C110.10941709260644,184.55906113861926 22.254895441731676,139.30281381966455 -48.90236828699753,77.90886096515167 "
                  stroke="url(#paint5_linear_44_30)" stroke-width="1.56225" stroke-miterlimit="10" id="svg_6" class=""/>
            <path opacity="0.54"
                  d="M2092.819684272665,345.06293988270335 C2103.1265073724717,284.0116382737278 2045.089277298559,232.08147919510452 1980.4160073518542,222.12804457687062 C1974.6490944269626,221.23637258564295 1968.8208313645716,220.60363591064515 1963.0027933250972,220.2230204646081 C1903.6158602262099,216.30394684377583 1842.7667488502668,236.81921672927996 1786.4166475575728,260.8525025277715 C1775.5372231744434,265.4997100453705 1764.708923905896,270.28222586731516 1753.8703996144322,275.1027058897595 C1703.0213606508019,297.7235287414485 1651.7428707246795,320.8447002869048 1596.967422961122,330.0855760649874 C1579.247458246871,333.06333220163066 1561.6604188305337,334.5458829032023 1544.257429826693,334.6042893655098 C1426.6083161497309,334.93623275962403 1320.135152520476,270.5937269996217 1229.940225374249,204.05221793374238 C1223.375760661872,199.22589726506726 1216.821520972412,194.36063895485375 1210.2570562600345,189.4710446186788 C1112.8841630264424,117.2933119401273 1009.7116367946255,48.888636726639305 890.1115887452002,36.00417114160811 C851.4967897011319,31.860232640892036 812.4116396029059,29.207605811093792 770.9225866170165,39.49590414655725 C721.682966260439,51.62789980886035 675.090604336937,79.2230063670701 633.412388427093,106.93589929093324 C604.9827347101257,125.81968199598171 577.7984887843852,145.15806166598992 549.1397945540887,162.1387671408528 C535.6632143501746,170.1307180665936 521.8011507823093,177.56683415937485 507.3685309357048,184.32543528938936 C415.4987450357593,227.25807884954463 303.5807567034813,236.8844372788567 203.5084574199397,216.6436777661977 C103.2674452582762,196.36982125823118 13.842257837201785,148.77828888801554 -58.667265172231254,85.2797565083563 "
                  stroke="url(#paint6_linear_44_30)" stroke-width="1.56225" stroke-miterlimit="10" id="svg_7" class=""/>
            <path opacity="0.54"
                  d="M2094.2716375268046,361.45763385241435 C2104.6500357870264,300.4627918236693 2047.1649569506026,248.41289949731583 1982.80866271431,237.83256885031477 C1977.0519748123338,236.90098577651042 1971.2646118416087,236.21373640335895 1965.446573802135,235.7698472898221 C1906.243691115744,231.2618418407227 1845.3741296939677,251.08304826580627 1788.8399779887775,274.47678330203087 C1777.9503285827311,278.9974434846302 1767.070904199602,283.6835886437675 1756.222154885222,288.37849477225075 C1705.2299656007606,310.4697656990186 1653.8390004225569,333.1090839304382 1599.1146777735823,342.09005095125246 C1581.4253881280802,344.98993180481915 1563.8383487117433,346.40920883889083 1546.4558097537356,346.38779313604493 C1428.8169210996896,346.32646635062196 1322.7629834100103,281.7756442083896 1233.2838078679365,214.604318790628 C1226.7909183159747,209.7079103671839 1220.298028764013,204.8115019437397 1213.7846891662186,199.89075749433405 C1117.3422730180253,127.02188167847731 1015.6963427076385,58.10614991979891 898.0676790765093,41.46030816216562 C859.0356990974489,35.939924033069886 819.399420264025,31.3433354494708 776.722219615241,41.207213492166545 C726.0684785893151,52.85054175316368 678.3605666656257,81.85227061194534 636.4369502057863,111.12364263837995 C607.8263135831974,131.07626360365532 580.7320478591216,151.62268360239 551.967013390494,169.79196058521015 C538.4280605467893,178.33487913871826 524.531231901008,186.30638780265156 509.93807919461483,193.57604547785655 C417.10918614510433,239.76095554750026 301.647204869976,250.39677233369332 199.098405036064,229.26823459396059 C96.38160807563452,208.10757329995883 5.4008879182766805,158.20509190444355 -68.43318455975663,92.58737838406111 "
                  stroke="url(#paint7_linear_44_30)" stroke-width="1.56225" stroke-miterlimit="10" id="svg_8" class=""/>
            <path opacity="0.54"
                  d="M2095.713365758027,377.89223890470225 C2106.142889132832,316.9684580717647 2049.261086648481,264.76768238445004 1985.139967939266,253.56726979595118 C1979.4139551060396,252.55781143907024 1973.6368171582317,251.83065098334203 1967.8596792104229,251.33224917165154 C1908.8203968906962,246.25088695090034 1847.9508354689196,265.3235172174096 1791.2326333512326,288.11566569186715 C1780.302083853521,292.50199101115925 1769.4022094245584,297.0615888352969 1758.5330100643448,301.64649612643456 C1707.4181205048858,323.1926400716657 1655.8942300287683,345.38806918954833 1601.2210324943758,354.0857648681715 C1583.5215178259577,356.9233454952767 1565.9856035242026,358.2481987486182 1548.5928395432784,358.2034204608492 C1430.9744009350657,357.70891241331236 1325.3192391391287,292.9653489454652 1236.5762652470416,225.18756976074428 C1230.134500809662,220.26001122406947 1223.6825113493665,215.30811666143313 1217.2305218890706,210.31825789829708 C1121.7594829179432,136.7416904474813 1021.5931134235693,67.24384094780491 905.9675317817777,46.947595295953874 C866.5040558356424,40.02740295355535 826.2890407051456,33.50048079069391 782.5075375813826,42.95843392035266 C730.4550134204832,54.13645736496683 681.6162139622315,84.52047249835898 639.4471969523966,115.35032362736496 C610.6831849860608,136.35718123729038 583.6656069338585,158.14960576525152 554.8218397887738,177.492852640452 C541.2481218671533,186.57213720615056 527.2633580242903,195.10921511342795 512.5352350153996,202.8743542772081 C418.73189728194865,252.28816827141736 299.7535306258447,263.91592147579917 194.7169827163545,241.94146347364637 C89.53902273992935,219.91735997853223 -3.0274962215445953,167.65525750579468 -78.19910394728188,99.95827392726571 "
                  stroke="url(#paint8_linear_44_30)" stroke-width="1.56225" stroke-miterlimit="10" id="svg_9" class=""/>
            <path opacity="0.54"
                  d="M2097.1550939892495,394.3064016951826 C2107.625517455721,333.414744416514 2051.3265412776095,281.1175980663919 1987.4917232100547,269.2659534231648 C1981.7759353997453,268.21658398370704 1976.0294725206866,267.4115482449021 1970.2830096416278,266.85863373505794 C1911.4482277802294,261.21170227096263 1850.537766266788,279.5669064921282 1793.6559637824369,301.74189334820335 C1782.6947392159757,306.0172463891112 1771.7641897182634,310.46684537590306 1760.854090266385,314.94078038865644 C1709.6267254548445,335.9417973523512 1658.0005847495622,357.67873574112014 1603.3478372610027,366.10873513416726 C1585.6585476155008,368.8431310111962 1568.1328583366628,370.1300200640375 1550.770769424488,370.00639305215327 C1433.1625558391916,369.1176413840411 1327.9266199828296,304.16576153396403 1239.8687226261466,235.7727676129375 C1233.488308326266,230.8150324040705 1227.0976690034688,225.79305008666523 1220.7070296806721,220.77204121029843 C1126.166467794944,146.50433062217738 1027.4898841395009,76.25887840496523 913.8878345328794,52.461165337780486 C874.0041101448769,44.102227140540904 833.2256962516823,35.669307424378516 788.2713829993997,44.72814972826946 C734.8047381691515,55.41750577157765 684.8350511763379,87.18380717958027 642.4083635890078,119.61010161165751 C613.4787062514249,141.7120803898483 586.5357708665131,164.68723577953597 557.5856634830969,185.22002760373223 C543.992518017935,194.85806732550577 529.9024364390325,203.93832533224284 515.0148030726446,212.21354760017496 C420.251335687337,264.8796281038727 297.72795358609096,277.5168396651355 190.21592762852214,254.65460343590894 C82.57769421309519,231.7670577396825 -11.586453904009218,177.18621871333775 -88.08363360063836,107.3700539940856 "
                  stroke="url(#paint9_linear_44_30)" stroke-width="1.56225" stroke-miterlimit="10" id="svg_10"
                  class=""/>
            <path opacity="0.54"
                  d="M2098.5763721746407,410.71472383943194 C2109.1081457786104,349.8941277565709 2053.391995906737,297.4227354605648 1989.8639285266772,284.983132430109 C1984.1788157851165,283.8792502924975 1978.4732529977243,283.01970185553915 1972.6961150499158,282.41908873481043 C1914.0147085322653,276.1988004990632 1853.1042470188231,293.8200301772315 1796.048619144892,315.37882885596264 C1785.077169555514,319.5286080029094 1774.1261700119694,323.8672347113171 1763.1751704684245,328.2301974456863 C1711.8455554277198,348.70945001276743 1660.0660393786902,369.956747559192 1605.464417004713,378.12683819497073 C1587.8058024279605,380.7833587889228 1570.3005631949554,381.99042567661076 1552.928249259864,381.8044984382653 C1435.3404857204005,380.5215031495776 1330.534000826531,315.3622803583089 1243.1918550740008,246.3384966443615 C1236.84211584287,241.32527529630244 1230.5026016346553,236.27311630670494 1224.1937624951904,231.20440881945376 C1130.5939027177772,156.24652853506592 1033.4030148920988,85.12692626531837 921.8152948000226,57.930930532876445 C881.4970069380697,48.10891045483439 840.1848468486356,37.81769179625552 794.0567009655414,46.477423274378594 C739.1759354659449,56.67811191638087 688.0906984729437,89.85103562495544 645.4339478699926,123.85917174452703 C616.3233076267882,147.02998878294483 589.4703524435415,171.2122110603205 560.4404898813768,192.9189727768973 C546.7849717764244,203.1079801264381 532.6611476218973,212.72363070432698 517.6119588934293,221.50990951744967 C421.875069326473,277.4048939457128 295.80769428237704,291.0505904228183 185.81916777443774,267.3015494075563 C75.70496550983226,243.5271989252946 -20.0152470447471,186.6354108736504 -97.86489052253845,114.71466662925178 "
                  stroke="url(#paint10_linear_44_30)" stroke-width="1.56225" stroke-miterlimit="10" id="svg_11"
                  class=""/>
            <path opacity="0.54"
                  d="M2100.0385504516967,427.10941780914305 C2110.6214491702485,366.3219187215895 2055.4983506275303,313.73858070616086 1992.20545877455,300.6798691752457 C1986.5510211017393,299.497138313519 1980.8556833372625,298.5976787939838 1975.1296705040365,297.94255297510136 C1916.632314398883,291.13235947004864 1855.6809527937746,308.06049912883475 1798.4923996219297,328.9865611325683 C1787.500499986719,333.02536800113086 1776.4881503056752,337.22965984623124 1765.5473757850468,341.46607524560085 C1714.0848354464279,361.4011742721839 1662.1826191224004,382.2055561461101 1607.6014467942562,390.1079504963128 C1589.942832217504,392.6612863401883 1572.458043030332,393.82941558633803 1555.0857290952406,393.5802146804928 C1437.4877405328607,391.87961318630647 1333.141381670232,326.49649895619257 1246.4945374760223,256.88183653190094 C1240.1959233594737,251.83746507061124 1233.9279843116744,246.71521832624484 1227.6600452638756,241.59199814083996 C1134.9906625718613,165.9429747191469 1039.3417082019869,93.85479861613355 929.7294625373745,63.37928002512632 C888.9899037312628,52.054266983705006 847.116389883714,39.920324439324986 799.8420189316832,48.1643965940265 C743.5624702971123,57.90075386068429 691.3463457695491,92.45596384386928 648.444194616603,128.02160562497383 C619.1801790296516,152.2476327490802 592.3885739839033,177.65249697075916 563.2810012475736,200.53225513867795 C549.60605559908,211.28099108533212 535.3769137085133,221.4398217626807 520.166169617965,230.73618367995545 C423.4558578693603,289.8590985917456 293.84346738012226,304.5142534257321 181.39480035847913,279.90177020935784 C68.81989520390918,255.26495096702223 -28.470727495297027,196.03787786411692 -107.67273250402141,122.01352753561054 "
                  stroke="url(#paint11_linear_44_30)" stroke-width="1.56225" stroke-miterlimit="10" id="svg_12"
                  class=""/>
            <path opacity="0.54"
                  d="M2101.480278682919,443.54596974350767 C2112.104077493137,382.82953185176166 2057.563805256659,330.11088553198726 1994.5776640911727,316.4009419463437 C1988.933451441278,315.1792734430787 1983.258563722634,314.20096519942837 1977.5223258664914,313.48256571304637 C1919.2192451967508,306.08344037972626 1858.2269834999768,322.29415399316895 1800.8748299614685,342.60402781955827 C1789.8318052116756,346.50752638377526 1778.829680553548,350.60960691983763 1767.8582309641702,354.7360234818614 C1716.2832153734698,374.12502208586943 1664.2685237973615,394.4709132306819 1609.7078015150503,402.1056112953087 C1592.0798620070473,404.58107185610754 1574.5746227740417,405.6615914087961 1557.2432089306167,405.35787780479706 C1439.6554453911533,403.2630326900352 1335.7283124681003,337.67160207769115 1249.797219878044,267.42712330151744 C1243.539505853161,262.3282391420739 1237.332916942861,257.1748422844769 1231.1365530554767,252.0058703702644 C1139.3976474488622,175.64136778530482 1045.3161890920837,102.46780492441064 937.6426077724343,68.82860295841465 C896.4664404877891,55.97723436869106 854.034640389001,42.06384160600966 805.6140443680331,49.89322787832812 C747.9203750641142,59.140917743679864 694.5887005363633,95.1027500274368 651.4135412715474,132.24147252668962 C621.968542778974,157.53731135206135 595.2546479073912,184.18818010296675 566.0530049602303,208.2175721373045 C552.3156866719457,219.51727571172586 538.026217146172,230.22707401684175 522.6815252554177,240.0189174226917 C425.01108385495627,302.3950722850088 291.8547004228677,318.05773859379923 176.9305553531461,292.55942403242824 C61.87961999926006,267.03482656301884 -36.9666990365962,205.49680443481424 -117.4938670152957,129.3532729655845 "
                  stroke="url(#paint12_linear_44_30)" stroke-width="1.56225" stroke-miterlimit="10" id="svg_13"
                  class=""/>
            <path opacity="0.54"
                  d="M2102.9117818912255,459.95818565191104 C2113.596930838942,399.273871314434 2059.6497099316202,346.443279275237 1996.898744293212,332.11325374809553 C1991.2954317349836,330.837072546677 1985.6409940621736,329.8198266614884 1979.9252062518633,329.0235518920296 C1921.7959509717025,321.07443237198095 1860.783239229096,336.5511714424261 1803.2674853239234,356.24485709147143 C1792.1937855053811,360.0383568183426 1781.1814358243373,363.9905274344824 1770.17931116621,368.02933430304495 C1718.481595300512,386.8732059255165 1666.3339784264895,406.75184537186914 1611.8243812587607,414.127608120266 C1594.2168917965903,416.5242199569497 1576.7423276323343,417.5268642265616 1559.4109137889093,417.1598769550629 C1441.8640503411118,414.6552131631103 1338.3152432659688,348.84865208126695 1253.120352325898,277.9957726560569 C1246.944438484347,272.8511367678059 1240.7685246427964,267.64322721205525 1234.6335108929115,262.4431051846121 C1143.8250823716962,185.38843290338556 1051.3469076082204,111.04966111945714 945.5598430166607,74.34217300024125 C903.9859223405648,59.90993616406173 860.9682284286625,44.23169479865588 811.3758447814668,51.661970245206405 C752.2670323059078,60.420992709252204 697.8187852756779,97.78847385254267 654.414585497533,136.5100114803283 C624.8305266932954,162.8844229763116 598.1646894294203,190.73359764555897 568.8832913035105,215.93695957227717 C555.1112079373104,227.7720557178505 540.7450507396627,239.0094590658107 525.2541410212029,249.33474816073561 C426.6092549368012,314.9398069476181 289.90887856186254,331.61193161328964 172.5234682259162,305.25017485080633 C55.01167660672209,278.863108621323 -45.40541044956308,214.98980144185737 -127.28432645782058,136.7426638885198 "
                  stroke="url(#paint13_linear_44_30)" stroke-width="1.56225" stroke-miterlimit="10" id="svg_14"
                  class=""/>
            <path opacity="0.54"
                  d="M2104.373960168282,476.34995929850675 C2115.100009207664,415.7376795978756 2061.7560646524134,362.7562041977176 1999.2913996556672,347.8148576984245 C1993.728987189105,346.4831903578137 1988.064324493378,345.4036442461638 1982.3996617976502,344.5518833375129 C1924.44423190707,336.01383198919723 1863.4008450957137,350.77314501429845 1805.7112658009612,369.8496690449616 C1794.6375659824187,373.5166214368331 1783.563866163876,377.37339483120417 1772.5106163911666,381.27786683645957 C1720.6902002504708,399.6155491189329 1668.41988310145,419.013308692287 1613.9614110483037,426.1058000984927 C1596.3641466090503,428.3992271851 1578.899807467711,429.3629338131734 1561.5786186472021,428.95603545909796 C1444.041980222321,426.05810148760827 1340.9226241096694,360.0432240235349 1256.412809705003,288.57610330305783 C1250.2777959551179,283.37598127561466 1244.1530072281494,278.1369216066333 1238.0997936615968,272.89104785038273 C1148.2218422257806,195.14425899081243 1057.3571760785244,119.53904041585011 953.4607182242213,79.82556636987563 C911.4747291245916,63.789098702317204 867.9007939660329,46.3946807861097 817.1611627476083,53.41027035027709 C756.6535671370755,61.70398799793996 701.1020401341581,100.439153800264 657.4248322441432,140.7337721461979 C627.6608130365759,168.17799534344667 601.0839334720738,197.23423690038203 571.6961951078329,223.62617033505757 C557.9046841980912,236.02099507774432 543.4342317666956,247.8006050841256 527.7817666861555,258.636950724241 C428.1634584201053,327.4709134356889 287.93340413439955,345.17488560212615 168.0724135001454,317.9263240536075 C48.08493933241432,290.652453038089 -53.88808946107085,224.46917027436217 -137.11977600117788,144.11745319587817 "
                  stroke="url(#paint14_linear_44_30)" stroke-width="1.56225" stroke-miterlimit="10" id="svg_15"
                  class=""/>
            <path opacity="0.54"
                  d="M2105.795238353672,492.7621752069099 C2116.5826375305533,432.18201906054827 2063.811294258625,379.1041729975826 2001.6431549264564,363.5115944435611 C1996.0705174369782,362.1176268764891 1990.446754832917,360.9825946256469 1984.7923171601055,360.0918960754578 C1927.0004876361884,350.9804879554901 1865.9571008248324,365.03016246355565 1808.1243712092487,383.4505872342979 C1797.0097712990407,387.0075407888238 1785.925846457582,390.7377668481952 1774.8521466390393,394.53126657506635 C1722.909030223346,412.32382187600314 1670.5364628451605,431.2630907202436 1616.0882158149304,438.0878858408733 C1598.5216264444266,440.3034376444038 1581.07773734892,441.1882955483622 1563.756548528411,440.718123526787 C1446.21991010353,437.40258334979876 1343.5197799304544,371.1793895034953 1259.7359421528574,299.1048415750205 C1253.6622785404713,293.8745428753851 1247.6192899968346,288.5887580365578 1241.5967514990307,283.264035556192 C1152.6492771486144,204.827077000355 1063.4737847871602,127.84541279701287 961.4014710211557,85.25931424654866 C919.0586286217408,67.58746563438064 874.8589220606941,48.48368525464073 822.9464807137502,55.09919055200184 C761.0257869361602,62.90424079835877 704.3576874307638,103.04602890125474 660.4350789907534,144.89815290872158 C630.5176844394388,173.39661275062048 604.0031775147273,203.67549625185916 574.5356839717379,231.24139957891515 C560.6828229244974,244.1871919493692 546.177605415186,256.50219452690243 530.3646074748573,267.84959671220827 C429.78719205924153,339.93582593314466 285.99780729631084,358.6249204305015 163.67555139583195,330.5129166808705 C41.22722096279292,302.376576905278 -62.31657585112123,233.857035649252 -146.90001042078634,151.40171248666 "
                  stroke="url(#paint15_linear_44_30)" stroke-width="1.56225" stroke-miterlimit="10" id="svg_16"
                  class=""/>
            <path opacity="0.54"
                  d="M2107.247191607811,509.19775370023615 C2118.0754908763583,448.68865874968174 2065.897198933586,395.43656674083235 2003.974460151413,379.24726883023595 C1998.4529477765166,377.7987885650102 1992.8700852641207,376.6092436160145 1987.21564759131,375.6552713983255 C1929.6078684798897,365.9539580090524 1868.5338065997842,379.3095690566973 1810.5374766175375,397.1138056500956 C1799.3717515927465,400.53642434131416 1788.257151682538,404.1566515633398 1777.173226841079,407.8236039552115 C1725.1176351733045,425.07103227461175 1672.591692451372,443.5430494203923 1618.2150205815578,450.1079357837537 C1600.65865623397,452.22127627824614 1583.2249921613798,453.06719654066615 1565.924253386704,452.51914923601436 C1448.4080650076562,448.80936543845064 1346.1271607741558,382.37785520991713 1263.0590746007122,309.67349092955976 C1257.0160860570752,304.3877060907326 1251.0344476509376,299.07174457971286 1245.0937093364655,293.7002969295012 C1157.0869370943647,214.57219523635888 1069.6210685645449,136.19851034802167 969.3319987951742,90.73199976476 C926.6425281188907,71.3848591254056 881.7935326026476,50.649591565209974 828.7348661867669,56.851384421226456 C765.4000517398283,64.16776726627741 707.6164022342442,105.7152042287068 663.420785682364,149.14138239536038 C633.3224082254279,178.70965393852464 606.9121965344646,210.21896691237438 577.3516552829351,238.93450410584938 C563.4783441898618,252.4400250734169 548.868831446802,265.29820775040963 532.9218857062676,277.1401179832522 C431.37104810900377,352.4552511287541 284.05096293301403,372.17716656791487 159.2538424858314,343.1783580322485 C34.329829504255414,314.1542400295824 -70.76960229617112,243.3247231892953 -156.70580739768602,158.76482050155695 "
                  stroke="url(#paint16_linear_44_30)" stroke-width="1.56225" stroke-miterlimit="10" id="svg_17"
                  class=""/>
            <path opacity="0.54"
                  d="M2108.678694816117,525.608996167601 C2119.537669153414,465.14759982793106 2067.983103608547,411.7689604840821 2006.3466654680358,394.968341601334 C2000.8353781160547,393.47995025353146 1995.2729656494923,392.2115565804206 1989.6287529995984,391.2186467211934 C1932.2254743465073,380.9527375296145 1871.0900623289024,393.5665865059544 1812.9301319799927,410.7546349220086 C1801.7337318864522,414.0662813348432 1790.6191319762438,417.55996122186906 1779.5045320660354,421.1159413353565 C1727.3160151003462,437.81824267322037 1674.6775971263328,455.84831758754103 1620.3316003252678,462.129932608711 C1602.8059110464296,464.16442437908836 1585.3722469738395,464.9470709740087 1568.0715081991639,464.335750001857 C1450.5553198201158,460.2317225837177 1348.703866549107,393.59189597295426 1266.3515319798166,320.25771534071464 C1260.369893573679,314.94078038865644 1254.4496053050398,309.5547311228679 1248.55999210515,304.1521333594256 C1161.4836969484486,224.33288852897812 1075.834814990887,144.48249358529998 977.2492340394006,96.24459636554812 C934.2274501183317,75.18322605746906 888.7281431446005,52.81744475785615 834.5385891941581,58.62791431641243 C769.8039691099542,65.47899234508041 710.8894320698082,108.40871558212035 666.4647750045988,153.41673543626834 C636.211999701624,184.0402170651211 609.8641606504509,216.7721719832742 580.1972791605901,246.6762806847065 C566.2626179300178,260.7327692800412 551.5907325471677,274.1419195848013 535.4832539468445,286.493912921796 C432.9722866977235,365.0613125767863 282.09389354680064,385.76835034686655 154.8353033329351,355.9070730511264 C27.45043408605109,326.0204862883864 -79.2195612343462,252.85471095579987 -166.48092930583613,166.1766005683768 "
                  stroke="url(#paint17_linear_44_30)" stroke-width="1.56225" stroke-miterlimit="10" id="svg_18"
                  class=""/>
            <path opacity="0.54"
                  d="M2110.130648070257,542.0027166962738 C2121.061197567969,481.5968064957957 2070.0587832605906,428.097460463178 2008.6881957159078,410.6621580233551 C2003.2075834326774,409.0949179514377 1997.6553959890318,407.78758663678843 1992.052083430803,406.7401640794076 C1934.802180121459,395.8999246751383 1873.6769931267713,407.80510857548074 1815.3534624111971,424.37599537315265 C1804.1468372947404,427.56109445098747 1792.9606622241165,430.9360145313218 1781.8562873368248,434.38978333577097 C1729.5552951190546,450.5469576920982 1676.8044018929597,468.11854187730506 1622.4584050918947,474.1480356695145 C1604.942940835973,476.1036787157768 1587.5297268092156,476.7841140016589 1570.2289880345402,476.133855387969 C1452.7536997471577,471.5966467077159 1351.2907973469755,404.7640787713376 1269.664439404755,330.82247093110016 C1263.7237010902827,325.4510232808885 1257.864762959143,320.0338239018692 1252.0569499425849,314.58547440961934 C1165.9111318712824,234.07508644186663 1082.0710564676447,152.68373433430935 985.1766943065437,101.71436156064405 C941.8491822002723,78.92318652722501 895.6872937415536,54.964855688694655 840.3085696259247,60.35285183656019 C774.160851374664,66.71526246392222 714.1154267999559,111.02727197557257 669.4596842168343,157.6171335172149 C639.0412635426127,189.33378943225614 612.7414820991472,223.26502370978955 583.0367680244952,254.35088983190997 C569.0673417160071,268.9427709983967 554.334106195658,282.902888930924 538.0650722332543,295.76593881310924 C434.5530752406106,377.5778174492803 280.172611740795,399.3021011045494 150.4234104449344,368.5296829968125 C20.577582682513118,337.7796540329601 -87.66338515877126,262.27956709015115 -176.27650125981933,173.49687717758158 "
                  stroke="url(#paint18_linear_44_30)" stroke-width="1.56225" stroke-miterlimit="10" id="svg_19"
                  class=""/>
            <path opacity="0.54"
                  d="M2111.5621512785633,558.4139591636384 C2122.5233758450254,498.0557475740451 2072.1446879355526,444.4298542064277 2011.0399509866968,426.3588947684918 C2005.5900137722163,424.73714199842067 2000.058276374403,423.3898996011946 1994.4754138620078,422.2636283196986 C1937.4197859880765,410.8354305282008 1876.243473878806,422.0222149421611 1817.7563427965688,437.9759401214506 C1806.5190426113627,441.05104036193967 1795.3328675407386,444.29941310727423 1784.146692470115,447.6344221050317 C1731.7434500231805,463.2698320647454 1678.8391814533386,480.3508019665694 1624.534084743939,486.0970244165875 C1607.0288455109337,487.9504561538116 1589.6258565070932,488.5919537981556 1572.3762428469997,487.8862090452733 C1454.9009545596175,482.9557301854833 1353.898178190677,415.89927081025974 1272.9262217151102,341.35899673137044 C1267.0672835839703,335.94082391131275 1261.2185704757467,330.48468689075514 1255.4516575508542,324.98085125931317 C1170.2465415878676,243.77932015425523 1088.3062754421112,160.82559517997274 993.0203093857717,107.17049858120168 C949.4433067203382,82.61836870921188 902.5482841185084,57.07624930111024 846.0120874087344,62.08752376709245 C778.4492259858337,67.96126699314853 717.2882514109382,113.68087224640934 672.3881307801128,161.8282394495846 C641.7887272002695,194.61470706589122 615.5779034561772,229.75203479007422 585.7944567050688,262.0128442456137 C571.7779952911644,277.1790556247905 556.968072098942,291.66677860016216 540.5374827744581,305.03991158649933 C436.05206360016587,390.08069414723604 278.12658465520815,412.8134627183476 145.91662934426887,381.1776024094982 C13.595119033310581,349.5417421006491 -96.22888685590246,271.74530774811745 -186.1671659269257,180.8434366948248 "
                  stroke="url(#paint19_linear_44_30)" stroke-width="1.56225" stroke-miterlimit="10" id="svg_20"
                  class=""/>
            <path opacity="0.54"
                  d="M2113.0038795097867,574.8514845390418 C2124.036679236663,514.5497325296789 2074.2408176334297,460.78853085771567 2013.4121563033195,442.08094098062827 C2007.972444111755,440.4202505690189 2002.4611567597747,438.9951328887163 1996.898744293212,437.8299239656819 C1940.006716785945,425.85075854641667 1878.820179653758,436.30454185841813 1820.1796732277733,451.6031412188254 C1808.9014729509013,454.54293315496875 1797.684622811528,457.70466964788056 1786.4984477409046,460.9141047516768 C1733.972505018972,476.00438772985393 1680.9353111512157,492.6424419591798 1626.6813395563988,498.1053930670063 C1609.2067753921428,499.8799760801154 1591.8242364341352,500.44262500034415 1574.5643977511254,499.6745800210008 C1457.1095595095762,494.3488840995966 1356.5157840572942,427.06171919825863 1276.2800292317145,351.91401791137145 C1270.4517661693233,346.4413323931601 1264.684853244432,340.9384702027565 1258.9690654341218,335.4044578991223 C1174.7353266482005,253.4962086001438 1094.7234998244912,168.96356226148234 1000.9927597537474,112.653891950836 C957.1631990222767,86.34080724027562 909.5248172544195,59.25383690414094 851.8536430009168,63.81148784620174 C782.8930209453341,69.21992625587481 720.601158835876,116.32181778374607 675.442345125264,166.06562828999265 C644.6895662016732,199.90730599198787 618.5411150973717,236.26727566047418 588.6513281079317,269.7166566239709 C574.6011241184032,285.4182605742998 559.7012207245159,300.47252623405393 543.1377061021176,314.3421141500048 C437.69215727596855,402.6341897791915 276.2226853881606,426.3754432661455 141.5370475286842,393.85375161229945 C6.754680952417985,361.35347566129946 -104.65430573907798,281.1993671136225 -195.93104030986774,188.21725256114476 "
                  stroke="url(#paint20_linear_44_30)" stroke-width="1.56225" stroke-miterlimit="10" id="svg_21"
                  class=""/>
            <path opacity="0.54"
                  d="M2114.435382718093,591.2607801243297 C2125.498857513719,531.0067267258512 2076.285822216725,477.1102167495425 2015.7434615282755,457.81564192626485 C2010.3548744512934,456.099465375463 2004.833362076397,454.61107402766083 1999.3118497015012,453.3913524064728 C1942.6038726067293,440.8232551589405 1881.3764353828767,450.5596124255983 1822.582553613145,465.2644127525462 C1811.2736782675236,468.0942058513437 1800.046603105234,471.106032424333 1788.8297529658607,474.20449524974504 C1736.1504349001814,488.7652263030011 1683.0416658720096,504.9292147465975 1628.7979193001092,510.1244695688482 C1611.3335801587698,511.7968412729192 1593.9612662236786,512.3195791105712 1576.711652563585,511.48826046372824 C1459.2465892991193,505.7459317778639 1359.092489832246,438.27381307921866 1279.5724866108196,362.49532199941086 C1273.8055736859274,356.9924598090073 1268.0693358297847,351.43411147941157 1262.435348202807,345.8543474469698 C1179.1218614793681,263.2315924257632 1101.1253866724962,177.07329955287668 1008.8946574635993,118.1402056435858 C964.8544612600492,90.01262683733955 916.4430677597068,61.39443374771028 857.6144209120588,65.57730988996468 C787.2396781871272,70.49708089833183 723.8322660774821,119.00462128573659 678.4280518168745,170.30691089455448 C647.4942899876627,205.21840029781524 621.4501341171089,242.80977287995097 591.4672994191291,277.4087877098667 C577.3813078493928,293.6457842313475 562.4200543180065,309.25101751886905 545.6949843335283,323.6306885389718 C439.2760133257305,415.1516680927239 274.2891335546552,439.88680487994384 137.11533861868372,406.5172460816007 C-0.14271050611951352,373.13016534456534 -113.10835468641955,290.6651077715888 -205.7368372867673,195.57938713500317 "
                  stroke="url(#paint21_linear_44_30)" stroke-width="1.56225" stroke-miterlimit="10" id="svg_22"
                  class=""/>
            <path opacity="0.54"
                  d="M2115.89756099515,607.6574209761174 C2127.032610951191,547.4588537168313 2078.3921769375183,493.42703543617677 2018.1258918678143,473.49680361478613 C2012.727079767916,471.7183268375232 2007.266917530518,470.19878537649004 2001.7658552014545,468.900215031187 C1945.2419285191802,455.74318595538756 1883.9838162265773,464.7854797616247 1825.0161090672661,478.849755885267 C1813.7072337216446,481.5530016490651 1802.4085833989398,484.46943100028534 1791.1917332595665,487.4423199317365 C1738.3999399418058,501.457924003456 1685.15824561572,517.178996774554 1630.965624158402,522.0900068135751 C1613.5217350628957,523.6845032345695 1596.1494211278039,524.1449408457601 1578.920257513544,523.2347734748018 C1461.4654192719943,517.098201168362 1361.72032072178,449.3944035025639 1282.926294127423,373.0094586557965 C1277.2002812941967,367.4511103262009 1271.556068644303,361.8470102677977 1265.9732061319075,356.2360961221254 C1183.5901964938676,272.9221979636133 1107.689851384873,185.09348026873283 1016.8773328544912,123.58174104856644 C972.6684237728194,93.647455674942 923.4584559827002,63.51556177051046 863.4416614721583,67.2749910610356 C791.6251905160034,71.7216697247121 727.1288134657538,121.62025735607344 681.4802211574423,174.4800526264243 C650.4073990165663,210.47011470029656 624.41130075372,249.2597932007743 594.3211033151169,285.0473795386472 C580.1880766399652,301.8596797138568 565.1501354367056,317.99251804422266 548.2635100901467,332.8822721684774 C440.870094398409,427.63215564679507 272.3545592188581,453.3991399347804 132.70487723389138,419.1427763504021 C-7.014028156219879,384.8942002943313 -121.55013360626143,300.09385767009377 -215.50377917658432,202.88798245174658 "
                  stroke="url(#paint22_linear_44_30)" stroke-width="1.56225" stroke-miterlimit="10" id="svg_23"
                  class=""/>
            <path opacity="0.54"
                  d="M2117.3290642034563,624.069636884521 C2128.4845642053297,563.918768236119 2080.4780816124803,509.75942917942655 2020.446972069854,489.209115416538 C2015.089060061621,487.37612594112136 2009.649347870057,485.7787091970117 2004.1380605180764,484.4558028257471 C1947.777734202466,470.7254169782959 1886.4991718640304,479.0337362415356 1827.3883143838884,492.5061602137955 C1816.038538946601,495.0984336992093 1804.7296636009794,497.8649531305073 1793.4923634157735,500.750232368497 C1740.5880948459312,514.2440720436028 1687.1930251760984,529.4755039723566 1633.0515288333631,534.1275786951478 C1615.6280897836891,535.619863807104 1598.2864509173476,536.0248152791025 1581.057287303087,535.0513742406443 C1463.6433491532039,528.5059566980523 1364.2970264967319,460.60844426560107 1286.2187515065282,383.5936830669513 C1280.5438637878847,378.0051580651634 1274.940551229656,372.3455718675681 1269.4292638776762,366.6645699671268 C1187.9767313250352,282.65952867130954 1114.1827409368348,193.18277529831948 1024.7638930299686,129.04663903847018 C980.4251261572576,97.2511343993138 930.3613689536126,65.63474291123373 869.2136869085084,69.00284890429869 C795.9974103150881,72.98519619263075 730.3701457302762,124.2660700986026 684.4495678123869,178.6999195281401 C653.1957627658891,215.7597933032777 627.2886222024161,255.7565386914435 597.1196920873563,292.7180949216969 C582.9529228365802,310.0657876680583 567.8382939614467,326.7252576002301 550.8054507871825,342.1494308545984 C442.4529279458794,440.15255428344284 270.3770397868119,466.9046609023478 128.26691053745367,431.78485511685716 C-13.900478840236701,396.63292577709734 -130.0195200879777,309.5372091841757 -225.32491368785855,210.2277278817205 "
                  stroke="url(#paint23_linear_44_30)" stroke-width="1.56225" stroke-miterlimit="10" id="svg_24"
                  class=""/>
            <path opacity="0.54"
                  d="M2118.7707924346787,640.5022950547319 C2130.0080926198843,580.4078859865605 2082.543536241608,526.1288136821378 2022.829402409394,504.95160389048203 C2017.502165469909,503.0631282758733 2012.0726783012608,501.4024378642639 2006.5920660180304,500.02501879484555 C1950.4362401607489,485.7290637040502 1889.1167777306482,493.3199569219464 1829.8525449067588,506.1362816342854 C1818.4720944007217,508.61855628235355 1807.1223189634347,511.2741034352674 1795.8441186865625,514.0250478099499 C1742.8273748646393,526.9737605035193 1689.3198299427254,541.7457282621207 1635.198783645823,546.1310801403744 C1617.795794641982,547.5435430871771 1600.464380798557,547.8861943327145 1583.2249921613798,546.8504530677949 C1465.8110540114965,539.8864558786659 1366.9044073404327,471.8049630899459 1289.5418839543825,394.15941209837524 C1283.9078963274048,388.51637439843375 1278.376158929592,382.81103647203105 1272.9262217151102,377.09791101732054 C1192.4041662478692,292.401726584198 1120.8085557867112,201.23215924532923 1032.6811282741953,134.55631531614287 C988.22784114482,100.92295399637769 937.2683719336914,67.81525083737982 874.9734423173588,70.76867094806165 C800.3440675568819,74.26137739404923 733.6012529718824,126.948873600593 687.4495895360806,182.9645647176249 C656.0434316481274,221.07867513741272 630.1986637244447,262.2980624698818 599.9499784306366,300.43261515147725 C585.7361740744448,318.3556115515675 570.5448575274376,335.5426865265834 553.3504589910929,351.4769428851037 C444.0234914658498,452.7089702385137 268.4189478983069,480.49292435818427 123.83303385018257,444.48728722769664 C-20.795211792815863,408.4719156868245 -138.48481656052738,319.040914042642 -235.142980692258,217.6278266560788 "
                  stroke="url(#paint24_linear_44_30)" stroke-width="1.56225" stroke-miterlimit="10" id="svg_25"
                  class=""/>
            <path opacity="0.54"
                  d="M2120.2022956429846,656.9115906400197 C2131.460045874024,596.8639067416942 2084.6294409165675,542.458287102272 2025.1504826114326,520.6609953691186 C2019.8232456719488,518.7092460870101 2014.4448836178835,517.01740556217 2008.9540463117362,515.5533502403291 C1952.9515957982023,500.68403837788185 1891.6219083451847,507.541930493819 1832.183850131715,519.7410935877757 C1820.7829495798455,522.0734583159214 1809.4229491196415,524.6423692164121 1798.1038487511037,527.2823413127105 C1744.9746296770988,539.6859270247435 1691.3443844801873,554.0159525518849 1637.2437882291179,558.1326347035241 C1619.86124927111,559.4672223672501 1602.5298354276847,559.7066888627108 1585.3211218592573,558.655372541176 C1467.9276337552067,551.2971317314715 1369.4197629778857,482.984933416637 1292.762766173072,404.74753027368394 C1287.179903660677,399.07334246051164 1281.7095164003626,393.33685442087835 1276.3209293233804,387.5546146524371 C1196.7395759644548,302.1672870820095 1127.3730204990877,209.31171986453145 1040.5124733259236,140.04944309616195 C995.9845435292576,104.5227389565957 944.1314073152296,69.98602435314133 880.6646900726687,72.54033363805534 C804.6201721405517,75.54437268273702 736.7618075553648,129.63849118985272 690.3647435695676,187.21168796841746 C658.7776027759927,226.3965835305092 633.0095225241837,268.8610019511662 602.6677895218357,308.14616194021903 C588.418197585436,326.6045509114613 573.1379233390559,344.35816857085985 555.8105995047972,360.78790641795536 C445.5245248299883,465.2722002808536 266.3606507852205,494.0412767314439 119.2713443764556,457.16343643049794 C-27.817348530934268,420.2855961295519 -147.07792581953305,328.52028287514673 -245.08886048311325,225.00261596343734 "
                  stroke="url(#paint25_linear_44_30)" stroke-width="1.56225" stroke-miterlimit="10" id="svg_26"
                  class=""/>
            <path opacity="0.54"
                  d="M2121.6542488971245,673.3082314918074 C2132.9937993114954,613.3170071737128 2086.6948955456965,558.7663448195605 2027.5226879280551,536.34215705764 C2022.2465761031533,534.3368685184163 2016.8579890261717,532.5817543260764 2011.4080518116903,531.0622128650432 C1955.5896517106528,515.6039691743289 1894.2292891888858,521.7677978298456 1834.6378556316688,533.3507727464582 C1823.2062800110496,535.5721651962197 1811.7951544362638,538.0057677923648 1800.4862790906423,540.543528579625 C1747.2343597416402,552.4019873101216 1693.4609642238977,566.2657345798411 1639.4114930874105,570.1225079742123 C1622.0494041752356,571.3548843289003 1604.7282153547267,571.5554131828226 1587.550176855049,570.4252481371728 C1470.1566887509982,562.673737147931 1372.0782689361693,494.152249009828 1296.137023735509,415.28502951499263 C1290.6155113606123,409.54075394705154 1285.2064742377975,403.7731157941873 1279.8587872524806,397.93636332759263 C1201.207910978954,311.8578926198598 1134.121535623961,217.32508649311836 1048.496171219107,145.49097850114256 C1003.9079137872345,108.09624100877531 951.1324805061397,72.08281634998004 886.5185156923505,74.22243975251091 C809.0762371275517,76.76214742184807 740.0869850078027,132.23855220357422 693.4445204720099,191.36925464367218 C661.7029818323962,231.6083868504138 635.9982967226696,275.29544721537405 605.576808541573,315.75457709680745 C591.2934740295489,334.74835863920157 575.9508271433781,353.0529439263675 558.4619479470391,369.9937383186535 C447.20245109058203,477.70596266507874 264.4935616006721,507.48449747255006 114.94370567728669,469.7432149704917 C-34.6210787795568,431.9785698835103 -155.43790455604315,337.90133416276734 -254.80058724918132,232.28006116694985 "
                  stroke="url(#paint26_linear_44_30)" stroke-width="1.56225" stroke-miterlimit="10" id="svg_27"
                  class=""/>
            <path opacity="0.54"
                  d="M2123.0857521054304,689.7194739591724 C2134.455977588551,629.7769216930004 2088.7808002206575,575.0997120038484 2029.8744431988443,552.0398672438149 C2024.6085563968597,549.9946676220145 2019.2506443886266,548.1607047055595 2013.8313822428943,546.5866505463728 C1958.197032554354,530.5793861099681 1896.816219986754,536.0092402224872 1837.040736017041,546.9516909357944 C1825.578485327672,549.0621111071715 1814.167359752886,551.3701398093558 1802.8073592926821,553.7735657333087 C1749.4327396686822,565.0868974822686 1695.5570939217755,578.4911805818364 1641.5382978540374,582.0812311316699 C1624.1864339647789,583.2347587622426 1606.8754701671864,583.3720139486652 1589.687206644592,582.1795486765542 C1472.3039435634582,574.033794066737 1374.6651997340375,505.26505190486546 1299.4192560916974,425.80695369968623 C1293.9590938542995,420.03055457747575 1288.5909568231505,414.2093771674965 1283.3148449982489,408.32492609001736 C1205.6046708330384,321.5562856860176 1140.8700507488347,225.33942656274377 1056.3950014220843,150.91693884950797 C1011.8016314787528,111.62204445007049 958.036415979344,74.20297093174173 892.2762260966178,75.92693501085103 C813.4198268624704,77.97797527888221 743.2996872081593,134.83666633521884 696.414889629246,195.58912154538785 C664.5077056183853,236.92142803831808 638.8766406736573,281.79219270604347 608.3488122542292,323.439894095434 C594.0184426367896,343.0089792915568 578.599108078745,361.84019618052855 560.9496960226174,379.292047118005 C448.71575448222023,490.23317538899596 262.4771870815432,521.0435576972327 110.45205761053748,482.41547040913895 C-41.57409436275987,443.7883565620838 -163.96046115692508,347.37680923111833 -264.67591438191283,239.6509567101545 "
                  stroke="url(#paint27_linear_44_30)" stroke-width="1.56225" stroke-miterlimit="10" id="svg_28"
                  class=""/>
            <path opacity="0.54"
                  d="M2124.5377053595703,706.156025893537 C2135.9692809801895,646.2679863255189 2090.876929918534,591.4554683320213 2032.2261984696338,567.7998776564511 C2027.0012117593146,565.6991918954586 2021.6535247739987,563.8272647785038 2016.2342626282664,562.1899369518175 C1960.783963352222,545.5927672461071 1899.3622506929566,550.3051953132828 1839.4436164024125,560.6548204341691 C1827.940465621378,562.6552417682003 1816.4782149320092,564.8279621660388 1805.1386645176385,567.1291767809537 C1751.6311195957242,577.9363191899154 1697.6429985967359,590.8587489754464 1643.6548775977476,594.1655281830887 C1626.3234637543221,595.216844504623 1609.0431750254793,595.2995869928922 1591.8549115028845,594.0438480532813 C1474.5023234905,585.4639387403116 1377.2725805777386,516.5267912787871 1302.7423885395517,436.4379032806868 C1297.32312639382,430.6079649013612 1292.0265645230857,424.7400623215361 1286.8220278586002,418.82446113082625 C1210.0423307787887,331.36467758952125 1147.6901410341236,233.47155299802267 1064.3429117350602,156.47626062014203 C1019.7444292802709,115.2821827546729 965.000679087755,76.41754929423391 898.0676790765093,77.74240254757535 C817.7971591730134,79.30477541430061 746.5604470162228,137.57008877120916 699.4302488873145,199.88004964291113 C667.343104473124,242.2831412781452 641.8020197300608,288.36097283355855 611.1944361318843,331.1816706742912 C596.8303239388204,351.28614844156607 581.3210091791107,370.6839080149202 563.5376493227775,388.6302669999335 C450.34460063281466,502.824635221451 260.54670275491276,534.6201398606074 106.06051251814061,495.12958381244005 C-48.44121975346448,455.61469173831114 -172.38383503551725,356.89219538204605 -274.42342872818864,247.047161720359 "
                  stroke="url(#paint28_linear_44_30)" stroke-width="1.56225" stroke-miterlimit="10" id="svg_29"
                  class=""/>
            <path opacity="0.54"
                  d="M2125.98965861371,722.5507198632482 C2137.462134325996,662.7113523471528 2092.9628345934957,607.7868886342326 2034.6086288091724,583.4800659039341 C2029.4040921446856,581.301504859865 2024.0666301822857,579.3896666603333 2018.6882681282204,577.6978261354931 C1963.4220192646728,560.5117246015158 1901.9798565595738,564.5300892082705 1841.907846925283,574.2245885102748 C1830.3842460984156,576.074126483345 1818.9117703861302,578.1602106287608 1807.4904197884277,580.3426654369837 C1753.8601745915162,590.6046808644088 1699.728903271697,603.05985895148 1645.8021324102072,606.1067294018537 C1628.4911686126152,607.0801704403119 1611.2108798837721,607.099639261081 1594.053291429927,605.765051597355 C1476.710928440459,596.7918721048484 1379.8901864443562,527.6230456761708 1306.085971033239,446.9267304700726 C1300.7280590250066,441.06564197751646 1295.472397245938,435.1432266995375 1290.3394357418674,429.18187378002034 C1214.5004407703716,341.02997366037164 1154.5818064798275,241.4703180110327 1072.296957061786,161.87009741423833 C1027.7618697490793,118.76807511339126 971.9864147442911,78.4890318240727 903.9071896641083,79.399199195031 C822.2368641233467,80.49626724537325 749.870286934286,140.14484031793071 702.4946882553818,204.0123068511656 C670.2531459951527,247.46963513104976 644.7744338918803,294.7701086307666 614.1034551516215,338.7881389488027 C599.6769703187667,359.44358434384475 584.1339129834328,379.3777099293893 566.1889977650189,397.8341520185545 C452.0215043911167,515.2564507235994 258.69495110473906,548.0847763045597 101.7325670682842,507.70741547035686 C-55.229612467712315,467.33005463615405 -180.74279126973556,366.2722732286282 -284.1361779965484,254.3236334828332 "
                  stroke="url(#paint29_linear_44_30)" stroke-width="1.56225" stroke-miterlimit="10" id="svg_30"
                  class=""/>
            <path opacity="0.54"
                  d="M2127.4211618220165,738.9629357716514 C2138.9345376259676,679.1946294513637 2095.0385142455402,624.1192823774821 2036.9297090112123,599.1923777056861 C2031.7353973696427,596.9748790200783 2026.459285544742,594.9686170398162 2021.0604734448432,593.2534139300533 C1965.9475999250424,575.4929821833857 1904.4952121970273,578.77931912922 1844.269827218989,587.8800193977646 C1832.715551323372,589.6185850924508 1821.2124005423373,591.5946704005205 1809.780824921718,593.6505778737443 C1756.038104472725,603.3674663196327 1701.8045829237415,615.3651271186284 1647.898262108085,618.1443012834264 C1630.5872983104923,619.0534952133464 1613.3581346962321,618.9795136944236 1596.180096196554,617.6205900047358 C1478.847958230002,608.2541403326924 1382.4566671963914,538.8769975217847 1309.3375283206783,457.5664410204195 C1304.0102913811947,451.6498663886713 1298.836429785458,445.68072594084623 1293.7545933959705,439.6648603231754 C1218.8256254640405,350.79845448129845 1161.371221696367,249.61801950292687 1080.1569321776806,167.41287068721857 C1035.6862625093472,122.40485083307064 978.863765157912,80.68803512994951 909.6107074469179,81.19811823410153 C826.5272837390995,81.80651888313784 753.0441340475596,142.86074081522887 705.424157320952,208.28668645103505 C673.0016321551011,252.81382643218473 647.6272152855768,301.3447294045124 616.834558772612,346.5289420866213 C602.3886463962159,367.74411607877676 586.7412938271342,388.2204483227424 568.6358457489317,407.1879469570983 C453.4939076910891,527.8391495867085 256.62233895956956,561.6759600835114 97.19950765872326,520.4351570481963 C-62.23886567695595,479.17099142795826 -189.3348780264496,375.8168626107096 -294.05240522094584,261.74904172419144 "
                  stroke="url(#paint30_linear_44_30)" stroke-width="1.56225" stroke-miterlimit="10" id="svg_31"
                  class=""/>
        </g>
    </g>
</svg>