<svg width="21" height="12" viewBox="0 0 21 12" fill="none" xmlns="http://www.w3.org/2000/svg">
<path d="M20.394 10.6C20.3698 10.5478 20.3472 10.5045 20.3262 10.4698C19.9792 9.84485 19.3161 9.07776 18.3373 8.16832L18.3166 8.14749L18.3062 8.13728L18.2958 8.12681H18.2853C17.841 7.70333 17.5597 7.41859 17.4419 7.27281C17.2264 6.9951 17.1781 6.71401 17.2959 6.4292C17.3791 6.21401 17.6918 5.75956 18.2331 5.06523C18.5178 4.69726 18.7433 4.40235 18.9099 4.18016C20.1109 2.58339 20.6317 1.56303 20.4719 1.11869L20.4099 1.01485C20.3682 0.952337 20.2606 0.895148 20.0872 0.842992C19.9135 0.790946 19.6914 0.782338 19.4206 0.817024L16.4217 0.83774C16.3731 0.820525 16.3037 0.82213 16.2133 0.842992C16.1231 0.863854 16.0779 0.874322 16.0779 0.874322L16.0257 0.9004L15.9843 0.931729C15.9496 0.952446 15.9114 0.988882 15.8697 1.04097C15.8282 1.09287 15.7935 1.15377 15.7658 1.22318C15.4393 2.06318 15.0681 2.84417 14.6515 3.5661C14.3946 3.99659 14.1587 4.36967 13.9433 4.68555C13.7281 5.00133 13.5476 5.23399 13.4019 5.38313C13.256 5.53241 13.1244 5.652 13.0061 5.74235C12.8881 5.83273 12.798 5.87091 12.7355 5.85694C12.673 5.84297 12.6141 5.82911 12.5583 5.81525C12.4612 5.75274 12.3831 5.66772 12.3242 5.56013C12.265 5.45254 12.2252 5.31711 12.2044 5.15397C12.1836 4.99072 12.1714 4.8503 12.1679 4.73224C12.1646 4.61432 12.1661 4.44754 12.1732 4.23235C12.1804 4.01705 12.1836 3.87138 12.1836 3.79501C12.1836 3.53116 12.1888 3.24482 12.1991 2.93589C12.2096 2.62697 12.2181 2.38221 12.2252 2.20188C12.2323 2.02138 12.2356 1.83041 12.2356 1.62908C12.2356 1.42776 12.2233 1.26987 12.1991 1.15527C12.1752 1.04082 12.1385 0.929724 12.0901 0.82202C12.0414 0.714426 11.9701 0.631196 11.8766 0.572111C11.7829 0.513098 11.6664 0.466267 11.5278 0.431472C11.1598 0.348206 10.6912 0.303162 10.1219 0.296159C8.83069 0.2823 8.00105 0.365676 7.63311 0.546178C7.48733 0.622442 7.35541 0.726644 7.23746 0.858456C7.11247 1.01124 7.09503 1.09462 7.18527 1.10833C7.60186 1.17073 7.89677 1.32002 8.07035 1.55603L8.1329 1.68109C8.18155 1.77133 8.23013 1.93108 8.27875 2.16012C8.32729 2.38917 8.35862 2.64255 8.37241 2.9201C8.40706 3.42696 8.40706 3.86084 8.37241 4.22177C8.33765 4.58285 8.30483 4.86394 8.2735 5.06527C8.24217 5.2666 8.19534 5.42974 8.1329 5.55466C8.07035 5.67961 8.02873 5.75599 8.00787 5.78371C7.98704 5.81143 7.96968 5.8289 7.9559 5.83575C7.86566 5.87033 7.77182 5.88794 7.67469 5.88794C7.57742 5.88794 7.45947 5.83929 7.32065 5.74205C7.18188 5.64482 7.03785 5.51126 6.88856 5.34115C6.73928 5.171 6.57092 4.93324 6.38342 4.62782C6.19606 4.3224 6.00166 3.96143 5.80033 3.54491L5.63376 3.24285C5.52963 3.04852 5.38739 2.76557 5.20689 2.39424C5.02628 2.02277 4.86664 1.66344 4.72786 1.31633C4.67238 1.17055 4.58904 1.05957 4.47799 0.983193L4.42587 0.951862C4.39122 0.924143 4.3356 0.89471 4.2593 0.863343C4.18289 0.832014 4.10316 0.809546 4.01978 0.795723L1.16657 0.81644C0.87501 0.81644 0.677184 0.882491 0.573018 1.01441L0.53133 1.07682C0.510504 1.11158 0.5 1.16709 0.5 1.2435C0.5 1.31987 0.520826 1.4136 0.562514 1.52459C0.97903 2.50351 1.43198 3.4476 1.92137 4.35701C2.41076 5.26642 2.83603 5.99897 3.19692 6.55401C3.55789 7.10945 3.92583 7.63367 4.30073 8.12641C4.67563 8.61934 4.92379 8.93522 5.04521 9.074C5.16677 9.21304 5.26225 9.31698 5.33166 9.38639L5.59204 9.63626C5.75865 9.80291 6.0033 10.0025 6.32612 10.235C6.64901 10.4677 7.00648 10.6967 7.3987 10.9225C7.791 11.1479 8.24738 11.3319 8.7681 11.4742C9.28875 11.6166 9.7955 11.6738 10.2884 11.6462H11.486C11.7288 11.6252 11.9128 11.5488 12.0379 11.417L12.0793 11.3648C12.1072 11.3234 12.1333 11.259 12.1573 11.1724C12.1817 11.0856 12.1938 10.99 12.1938 10.8861C12.1867 10.5876 12.2094 10.3186 12.2614 10.0791C12.3133 9.83974 12.3724 9.65924 12.4386 9.53768C12.5047 9.41622 12.5793 9.31374 12.6624 9.23065C12.7456 9.14738 12.8049 9.09694 12.8397 9.07958C12.8743 9.06211 12.9019 9.05026 12.9227 9.04315C13.0893 8.98764 13.2854 9.0414 13.5112 9.20468C13.7369 9.36782 13.9485 9.56926 14.1465 9.80867C14.3444 10.0483 14.5821 10.3171 14.8597 10.6156C15.1376 10.9142 15.3805 11.1361 15.5886 11.2821L15.7968 11.407C15.9359 11.4904 16.1164 11.5668 16.3386 11.6362C16.5603 11.7056 16.7547 11.7229 16.9215 11.6882L19.5872 11.6467C19.8509 11.6467 20.056 11.603 20.2015 11.5164C20.3474 11.4296 20.434 11.334 20.4619 11.23C20.4898 11.1259 20.4913 11.0078 20.4672 10.8758C20.4425 10.7441 20.4182 10.652 20.394 10.6Z" fill="#D78DFF"/>
</svg>
